<svg width="108" height="101" fill="none" xmlns="http://www.w3.org/2000/svg"><path d="M24.25 100.184a11.28 11.28 0 01-5.297-1.15 10.952 10.952 0 01-6.216-8.091 2.518 2.518 0 00-2.478-2.245 11.569 11.569 0 01-8.516-5.737c-1.738-2.916-1.67-6.94.206-12.69a87.046 87.046 0 003.286-19.045v-.3a2.738 2.738 0 000-.59 83.759 83.759 0 00-3.327-19.865c-1.89-5.736-1.958-9.775-.22-12.69a11.72 11.72 0 018.571-5.778 2.519 2.519 0 002.478-2.246 10.953 10.953 0 016.16-8.036C22.034.106 26.1.161 32.316 1.926A103.391 103.391 0 0053.713 5.02h.301A105.774 105.774 0 0075.07 1.9C81.313.12 85.366.065 88.501 1.68a10.953 10.953 0 016.215 8.106 2.574 2.574 0 002.451 2.231 11.666 11.666 0 018.543 5.723c1.739 2.916 1.67 6.955-.205 12.691a86.36 86.36 0 00-3.3 19.537v.438a84.608 84.608 0 003.327 19.865c1.889 5.75 1.958 9.775.219 12.705a11.895 11.895 0 01-8.556 5.777 2.52 2.52 0 00-2.492 2.232 10.803 10.803 0 01-6.161 8.05c-3.135 1.616-7.201 1.561-13.417-.205a105.624 105.624 0 00-20.987-3.094h-.48a102.836 102.836 0 00-21.385 3.121 30.436 30.436 0 01-8.022 1.328zM7.823 51.487a88.128 88.128 0 01-3.41 19.603c-1.615 4.97-1.766 8.31-.438 10.529a9.078 9.078 0 006.42 4.435 5.19 5.19 0 014.943 4.669 8.393 8.393 0 004.792 5.969c2.478 1.273 6.01 1.136 11.473-.424a108.004 108.004 0 0122.11-3.218h.589c7.286.323 14.52 1.387 21.59 3.177 5.476 1.56 9.008 1.683 11.486.41a8.215 8.215 0 004.737-5.914 5.188 5.188 0 014.929-4.669 9.103 9.103 0 006.503-4.49c1.369-2.218 1.164-5.559-.465-10.515a88.377 88.377 0 01-3.464-20.7 4.621 4.621 0 010-.616 87.46 87.46 0 013.423-20.18c1.615-4.956 1.766-8.296.451-10.514a8.947 8.947 0 00-6.49-4.45 5.258 5.258 0 01-4.887-4.655 8.352 8.352 0 00-4.791-5.969c-2.478-1.287-6.01-1.15-11.487.425a107.211 107.211 0 01-21.645 3.203h-.438a107.623 107.623 0 01-22.124-3.19c-5.476-1.56-8.995-1.684-11.473-.41a8.214 8.214 0 00-4.737 5.914 5.189 5.189 0 01-4.928 4.668 9.049 9.049 0 00-6.49 4.491c-1.369 2.204-1.177 5.558.452 10.514a87.497 87.497 0 013.464 20.687 4.55 4.55 0 01-.055 1.177l-.04.041zm12.062-15.731l6.845-17.798h2.533l7.283 17.798h-2.738l-1.999-5.394h-7.434l-1.958 5.38-2.532.014zm5.133-7.297h6.024l-1.848-4.929a53.795 53.795 0 01-1.273-3.683 20.644 20.644 0 01-.958 3.396l-1.945 5.216zm11.692 16.25l2.218-.191c.061.778.31 1.53.726 2.19a4.107 4.107 0 001.793 1.37 6.97 6.97 0 002.739.52 6.366 6.366 0 002.368-.397 3.218 3.218 0 001.533-1.096c.33-.437.509-.97.507-1.52a2.355 2.355 0 00-.48-1.464 3.752 3.752 0 00-1.601-1.054c-.48-.178-1.534-.466-3.176-.863a16.514 16.514 0 01-3.423-1.109 4.86 4.86 0 01-1.903-1.656 3.998 3.998 0 01-.63-2.218c.003-.893.27-1.764.767-2.506a4.71 4.71 0 012.231-1.78 8.391 8.391 0 013.273-.602 8.856 8.856 0 013.477.63 5.065 5.065 0 012.327 1.876c.538.815.842 1.762.877 2.738l-2.26.164a3.657 3.657 0 00-1.232-2.546 4.791 4.791 0 00-3.094-.863 5.025 5.025 0 00-3.121.78 2.354 2.354 0 00-.972 1.89 2.012 2.012 0 00.698 1.574 9.419 9.419 0 003.546 1.273 23.95 23.95 0 013.93 1.123 5.354 5.354 0 012.3 1.82c.557.763.855 1.685.848 2.63a4.792 4.792 0 01-.821 2.738 5.298 5.298 0 01-2.328 1.944 8.132 8.132 0 01-3.423.698c-1.402.05-2.8-.188-4.107-.698a5.585 5.585 0 01-2.56-2.122 5.914 5.914 0 01-.986-3.313l-.04.04zm15.635 20.975V47.886h3.546l4.217 12.581c.383 1.178.67 2.054.849 2.643.205-.644.52-1.602.944-2.848l4.258-12.321h3.176v17.797h-2.273v-14.95l-5.134 14.896h-2.122l-5.147-15.142v15.142h-2.314zM71.69 80.935V63.137h12.855v2.109h-10.5v5.476h9.843v2.08h-9.843v6.052h10.952v2.108l-13.307-.027z" fill="#575757"/></svg>