<svg width="116" height="117" fill="none" xmlns="http://www.w3.org/2000/svg"><path d="M58.157.798a57.665 57.665 0 1057.501 57.734A57.72 57.72 0 0058.158.797zm49.15 50.546c0 .164-.411.452-.671.493-1.794.301-3.614.534-5.476.807l.41 3.259c-.518.118-1.044.2-1.574.246a.71.71 0 01-.507-.438 82.823 82.823 0 01-.684-4.805c0-.206.328-.452.52-.671.192-.22.178 0 .274 0l7.489-1.054c.133.715.229 1.437.287 2.163h-.068zm-1.109-6.23c.137.617.287 1.233.452 2l-8.215 2.026-.602-2.56 4.217-1.082 3.203-.794c.425-.096.822-.164.945.41zm-2.15-6.475c.685 1.807.712 1.807-.78 3.026l-5.394 4.408a16.791 16.791 0 01-.835-2.108 1.042 1.042 0 01.465-.822c.712-.424.63-.958.343-1.574-.288-.616-.37-1.37-1.37-1-.615.206-.985 0-1.136-.684a9.573 9.573 0 00-.506-1.246l4.107-.356c1.369-.11 2.738-.192 4.025-.328a.93.93 0 011.081.684zM91.946 62.707c1.054.616 1.999 1.027 2.738-.41-.342 1.286 0 2.121 1.37 2.505-1.192.123-2.013.534-1.972 1.93a1.794 1.794 0 00-2.506-1.369 1.672 1.672 0 00.37-2.656zm2.957-8.913c-.862-.82-1.67-1.492-2.738-.492.15-.48.465-.986.383-1.37-.082-.383-.588-.698-1.04-1.204 1.19.164 2.286.41 2.327-1.219l2.287 1.986c-1.287.26-1.712.958-1.219 2.327v-.028zm5.627-21.466c.2.43.269.91.2 1.38a2.432 2.432 0 01-1.776 1.998c-.46.123-.944.11-1.395-.038a.793.793 0 00-1.123.383c-.534.836-1.109 1.657-1.752 2.588-.52-.767-.986-1.37-1.37-2.081a.974.974 0 01.138-.808c.397-.657.903-1.246 1.369-1.889a2.56 2.56 0 00.15-.931h-.342c-.684.452-1.369.931-2.08 1.37a.835.835 0 01-.781-.138c-.416-.552-.8-1.128-1.15-1.725l7.146-4.668c.959 1.492 1.958 2.97 2.766 4.559zm-9.406 8.898c-1.122-.506-2.026-.575-2.738.712.11-1.19 0-2.135-1.52-2.327 1.178-.26 2.123-.643 1.917-2.136.452 1.37 1.37 1.451 2.56 1.11-.766.807-1.054 1.628-.177 2.642h-.041zm-1.71-20.262c-.179 1.15-.275 2.3-.412 3.464l1.123-1.369c.383-.48.767-.945 1.164-1.369a.877.877 0 01.78-.123c.301.465 1.52.575.89 1.369-1.602 2.08-3.354 4.107-5.024 6.037-1.67-.958-1.767-1.108-1.52-2.833.178-1.26.397-2.52.63-4.108l-3.108 3.656-1.657-1.37 5.367-6.38c1.698.795 2.013 1.384 1.766 3.026zm-9.475 7.037c.959 1.137 1.848.877 2.738 0-.164 1.684-.164 1.684.644 2.738a3.957 3.957 0 00-1.506.178c-.356.206-.493.767-.85 1.37-.136-1.37-.697-2-2.066-1.726 1.095-.533 1.738-1.177 1.095-2.546l-.055-.014zm2.177-13.827c1.739.944 1.766.93 1.37 2.875-.398 1.944-.836 4.107-1.26 6.106 0 .192-.124.383-.22.726a17.795 17.795 0 01-1.916-1.164c-.192-.137-.22-.616-.165-.89.151-.616.124-1.054-.56-1.37-.685-.314-1.206-.862-1.85 0a.808.808 0 01-1.368.179c-.354-.229-.72-.439-1.095-.63.219-.246.383-.465.561-.643 1.752-1.657 3.519-3.314 5.257-4.997a.862.862 0 011.246-.178v-.014zm-7.297-2.437c.233-.643.52-.822 1.136-.507.616.315 1.068.425 1.657.644-.959 2.505-1.862 4.942-2.82 7.338a.822.822 0 01-.74.37c-1.985-.466-2.026-.562-1.287-2.451.74-1.89 1.397-3.573 2.054-5.38v-.014zm-4.107 14.06c-.315-.383-.575-.945-.972-1.068-.397-.123-.972.137-1.643.274.356-.52.835-.903.862-1.369.028-.465-.342-.917-.547-1.369 1.232.78 1.862 0 2.56-.972-.22 1.273.219 2.026 1.533 2.245-1.15.397-2.012.863-1.766 2.273l-.027-.014zm-6.353-9.789a238.487 238.487 0 011.643-7.05.821.821 0 01.671-.425c1.143.2 2.272.47 3.382.808a3.93 3.93 0 012.505 4.655 4.108 4.108 0 01-4.34 3.505c-.93-.192-2.259-.452-3.56-.794-.123-.028-.314-.466-.273-.685l-.028-.014zm-8.488-.616V7.85a16.51 16.51 0 012.245 0c.335.11.615.346.78.657.74 1.205 1.438 2.437 2.273 3.874V8.027c.094-.052.196-.09.302-.11 2.217 0 1.78-.26 1.78 1.739s0 3.792-.097 5.695v.959c-1.998.273-2.08.219-2.984-1.37a27.396 27.396 0 00-2.054-3.203v3.683c0 1.218-.657.876-1.369.944-.712.069-.862-.274-.849-.958l-.027-.014zm1.752 3.6c.288 1.11.74 1.945 2.191 1.575-1.068.726-1.506 1.561-.794 2.738a1.672 1.672 0 00-2.738.083c.41-1.123.616-2.109-.835-2.739 1.533.398 1.889-.533 2.204-1.642l-.028-.014zM51.75 8.26a4.792 4.792 0 012.04-.246c.137 0 .383.356.41.575.206 2.41.384 4.82.548 7.229 0 .191-.205.561-.355.588a6.27 6.27 0 01-1.821 0c-.206 0-.48-.52-.507-.821-.164-1.944-.274-3.902-.397-5.86h-.082c.068-.451-.055-1.341.192-1.45l-.028-.015zm-4.737 13.69c-.383.74-.808 1.191-.78 1.616.027.424.493.862.917 1.547-1.369-.671-2.15-.452-2.642.89 0-1.233-.22-2.218-1.766-2.287 1.629-.137 1.629-1.205 1.602-2.368.616 1.095 1.423 1.396 2.697.561l-.028.041zm-4.422-8.707a2.327 2.327 0 012.273 2.286 2.298 2.298 0 01-3.214 2.285 2.3 2.3 0 01-1.373-2.285 2.34 2.34 0 012.341-2.327l-.027.04zm-28.49 38.553a1.574 1.574 0 001.246 0 20.534 20.534 0 002.026-1.37c.123-.095.246-.164.616-.396 0 .56.164 1.067 0 1.369a5.832 5.832 0 01-4.107 2.573c-1.191.096-1.835-.479-1.739-1.67.096-1.19.383-2.231.52-3.354 0-.205-.232-.452-.356-.67-.232.122-.63.218-.657.396a38.98 38.98 0 00-1.054 8.365 7.271 7.271 0 012.26-.164 7.378 7.378 0 011.984 1.246c.507-.616 1.123-1.37 1.67-2.054.343-.479.644-.807 1.37-.397a11.363 11.363 0 01-2.834 4.545 3.382 3.382 0 01-1.698.767c-.808.123-1.191-.465-1.082-1.287 0-.315 0-.862-.136-.944a1.369 1.369 0 00-1.11 0c-.232.123-.342.588-.355.903v1.752c0 .59.26.836.903.754 1.93-.247 3.875-.439 5.983-.671a14.48 14.48 0 01-.767 1.862 1.369 1.369 0 01-.89.465 78.2 78.2 0 01-4.107.41c-.67 0-.808.343-.74.945.07.603.466.59.918.507l4.696-.821c.41-.069.835-.083 1.37-.124a12.125 12.125 0 01-.548 1.753 1.245 1.245 0 01-.85.534c-.725.123-.944.438-.684 1.136.13.377.24.761.329 1.15l.698-.192c.63-.219 1 0 1.164.657a3.244 3.244 0 01-.548 2.876 1 1 0 01-1.793 0 9.156 9.156 0 01-.617-.986h-.273c.026.257.067.513.123.766.206.629.352 1.275.438 1.93a1.63 1.63 0 01-1.246 1.808c-.876.246-1.451-.288-1.903-.958a3.435 3.435 0 011.205-4.792c.342-.22.917-.561.89-.78a8.214 8.214 0 00-.685-1.972c0-.082-.328-.096-.506-.082l-1.534.246c.138.907.206 1.822.206 2.739 0 .355-.671.643-1.15 1.081a50.873 50.873 0 01-1.862-11.664 47.3 47.3 0 01.958-11.802c-.534.206-.903.384-1.369.507a1.205 1.205 0 01-1.739-1.054 5.148 5.148 0 013.861-5.778 2.41 2.41 0 001.643-1.602c.986-2.204 2.08-4.353 3.121-6.53.534-1.095 1.48-.452 2.287-.74-.315 1.37-.315 1.37.945 2.054l4.695 2.355c-1.163.48-1.684 1.835-3.094.89-.07.38-.12.764-.15 1.15-.11 1.807-1.739 2.889-3.875 2.328-.137 0-.26-.59-.191-.863.136-.63.314-1.205-.343-1.643-.452-.287-.848-.342-1.081.288-.233.63-.63 1.52-1.013 2.45l6.516 2.273c-.458.502-.962.96-1.506 1.369a1.547 1.547 0 01-1.109 0c-1.505-.48-2.998-1.013-4.572-1.547l-.616 1.862 6.475 1.232c-.67 1.698-1.122 1.971-2.738 1.684a4.251 4.251 0 01-.63-.137c-.67-.233-1.04 0-1.15.698 0 .411-.273.808-.315 1.232-.04.425.042.986.233 1.096l-.027.04zm8.064 13.58c-.397.179-.616.754-1.11 1.37.22-1.616-.725-1.862-1.916-1.958 1.04-.465 1.657-1.095 1.287-2.396.835 1.123 1.698.986 2.738.26a1.766 1.766 0 00.48 2.739c-.493-.028-1.055-.233-1.452-.055l-.027.04zm1.068-11.979c-1.096-.78-1.986-.82-2.739.452.493-1.369-.178-2.094-1.369-2.6 1.26 0 2-.453 1.917-1.89.561 1.122 1.205 1.848 2.574 1.26-.958.793-1.26 1.629-.356 2.737l-.027.041zm.794-25.574c.191-.123.492-.438.451-.534a2.026 2.026 0 00-.684-.89c-.164-.123-.561 0-.794.11-.233.11-.329.356-.493.548-1.04 1.19-1.191 1.218-2.82.63l1.985-2.314a2.875 2.875 0 00-3.218 1.054c-.438.589-.903.52-1.834-.247.63-1.807 1.37-2.409 3.245-2.258a6.23 6.23 0 005.27-1.808 60.239 60.239 0 016.695-5.134c1.287-.93 1.37-.862 2.56.425l-1.122.821 4.107 5.299c-1.027.643-1.917.725-2.45.178-.534-.548-1.11-1.287-1.74-2.013a4.63 4.63 0 00-.246.643c-.219 1.37-.205 1.37-1.369 1.164-.301-.328-.506-.753-.74-.767a1.068 1.068 0 00-.875.507c-.15.288-.15.917 0 1.068a6.984 6.984 0 001.875.972 4.56 4.56 0 001.37 0c.451 1.027.383 1.218-.672 1.191a14.012 14.012 0 01-2.738-.26 2.601 2.601 0 01-1.971-2.82 2.505 2.505 0 012.656-2.054c1.369 0 1.63-.589.945-1.985a49.09 49.09 0 00-7.024 5.654c1.698.548 2.656 1.492 2.246 3.245a3.957 3.957 0 002.834-.082.93.93 0 011.369.616 10.952 10.952 0 01-5.819 1.369 2.3 2.3 0 01-1.136-.534c-.726-.63-.616-1.355.164-1.807l-.027.013zm10.281 4.573c-.424-1.082-.862-2.053-2.41-1.533 1.37-.712 1.137-1.643.617-2.738a1.767 1.767 0 002.738-.22c-.48 1.233-.274 2.081 1.04 2.588-1.19.055-2.04.41-1.957 1.862l-.028.041zm-7.365 9.584c-.808-.808-1.479-1.794-2.738-.575a1.766 1.766 0 00-.37-2.82 1.725 1.725 0 002.478-1.178c.082 1.232.424 2.136 1.917 2.095-1.328.342-1.766 1.095-1.26 2.41l-.027.068zm-3.08 35.732v-.26c.287-.397.766-.767.82-1.191.055-.424-.3-.89-.492-1.37a1.863 1.863 0 002.738-.807 1.699 1.699 0 001.37 2.41c-1.165.205-2.15.451-1.863 2.053-.616-1.273-1.451-1.547-2.574-.835zm4.695-21.262c0-.492.123-.725.657-.725h9.79c-.302 1.273-.617 2.492-.863 3.71-.11.602-.329.876-1 .863h-7.708c-.67 0-.93-.178-.89-.877-.013-.958-.04-1.957-.054-2.97h.068zm58.281 3.19c0 .507-.205.699-.712.699H74.285c-.233 0-.657-.301-.67-.48v-4.107h12.238c.753 0 1.067.192 1.026.972-.15.959-.123 1.93-.04 2.916zM74.025 76.89c-.603 0-.808-.177-.794-.78v-3.12c0-.425.082-.712.589-.712h8.803c.185.047.364.116.534.205-1.055 1.438-2.04 2.82-3.067 4.108a1.095 1.095 0 01-.753.205c-1.835.096-3.615.068-5.38.096h.068zm4.983 1.233l-5.367 4.49-.287-.205v-4.545h5.476l.178.26zm3.998-6.763h-9.09c-.534 0-.699-.192-.685-.699v-3.217c0-.493.15-.725.684-.712h10.953c.218.029.433.075.643.137-.643 1.465-1.218 2.862-1.862 4.217-.082.178-.465.274-.712.274h.069zm2.067-5.477H74.106c-.738 0-.957-.232-.916-.958v-2.848c0-.63.205-.862.835-.862H85.88c.561 0 .794.178.67.767-.218 1.04-.451 2.08-.615 3.148-.096.59-.37.767-.931.753h.068zm-19.345 11.13c-.096.138-.191.37-.3.37H51.16v-.26a4.863 4.863 0 011.205-.3h12.322c.193.002.386.025.575.068l.547.096-.232-.452-.096-.137a2.108 2.108 0 01.178-2.738 2.013 2.013 0 11.862 3.381 4.226 4.226 0 00-.712-.096l-.082.069zm-8.871-1.08c.233-1.206 1.026-.904 1.697-.945.671-.041.671.273.699.725.027.452-.233.616-.671.616h-2.245l-.165-1.725h-.26l-.137 1.67h-3.628l.11-1.875h8.105v1.807c-.493.233-.699.096-.699-.479 0-1.26 0-1.246-1.287-1.177h-.917c-.903.054-1.027.479-.67 1.382h.068zm3.82-2.26a17.62 17.62 0 007.598-3.56v2.985a2.587 2.587 0 00-3.177.507.548.548 0 01-.314.164c-1.438.014-2.793.014-4.176-.096h.069zm4.107 2.574h-3.957c0-.342 0-.67-.096-1-.096-.698.192-1.012.931-.971.74.04 1.821 0 2.738 0l.384 1.971zm8.05-2.847v.3a18.847 18.847 0 01-3.93 0v-.328l3.93.028zm-2.999-2.177a1.026 1.026 0 011.041-1.027 1.135 1.135 0 011.136 1.177 1.205 1.205 0 01-1.163 1.178c-.712-.028-1.15-.548-1.15-1.328h.136zm-.52 5.627h3.108c.178 0 .356.205.534.315-.178.109-.37.3-.561.314h-4.108v-.314a4.65 4.65 0 01.89-.315h.137zm2.013-.534h-2.013l.165-1.944h3.354c0 .095.123.136.123.191.041 1.78.041 1.78-1.766 1.753h.137zm-.794-8.981c-.063.1-.118.205-.165.315.206-.151.466-.274.576-.48.657-1.081 1.273-2.204 1.861-3.244v6.01c-.465-.589-.698-1.137-1.081-1.3a4.205 4.205 0 00-1.561 0v-.26c0-.247.11-.466.15-.685-.725.684-1.368 1.369-2.162 2.067-.247.233-.507.438-.767.643A14.388 14.388 0 0155.5 73.14h-.356s-.123 0-.438.096l2.15.562H51.38c.575 1.766.452 2.573-.534 3.19a1.943 1.943 0 01-2.45-.288 2.053 2.053 0 01-.328-2.45c.56-.945 1.45-1.123 3.148-.63-.383-.726-.643-.794-2.56-.644V70.62l.082-.068.274-.096.164-.164a7.112 7.112 0 01-1.287-.876c-.314-.315-.424-.822-.712-1.164a14.732 14.732 0 01-3.217-6.709A14.566 14.566 0 0148.3 47.99c.192-.206.397-.384.575-.589.178-.205 0-.11 0-.288-.274.11-.52.178-.753.288-1.273.589-2.546 1.191-3.833 1.766a2.19 2.19 0 01-.876.233h-9.447c.986-.835 1.835-1.451 2.574-2.19a8.035 8.035 0 016.927-2.465c2.341.22 4.71 0 7.065 0 .561 0 1.273-.383 1.711.37h.246c1.37-.644 3.067-.822 4.258-2.026a2.97 2.97 0 014.203.328 4.8 4.8 0 001.725 1.068 14.812 14.812 0 017.736 22.85h.123zm-23.096 4.107a1.027 1.027 0 01-1.082 1.109 1.083 1.083 0 01-1.081-1.137 1.151 1.151 0 011.108-1.204 1.11 1.11 0 01.918 1.204l.137.028zm.602 1.999a11.446 11.446 0 01-4.107.356v-.356h4.107zm-2.136-4.847c-.602 0-1.369-.26-1.369.835 0 .082-.273.26-.397.247a.466.466 0 01-.301-.356v-6.284c1 1.793 2.012 3.628 3.067 5.558-.411-.027-.78-.04-1.137-.027l.137.027zm-1.643 5.791c1.082-.068 2.177 0 3.245 0l.11 1.972h-3.45c-.151 0-.343-.726-.343-1.123s.137-.876.302-.876l.136.027zm-.164 2.506c1.37 0 2.738 0 4.107.096.165 0 .329.205.493.328v.178H44.29c-.137 0-.274-.192-.41-.287-.097-.11-.015-.343.081-.343l.137.028zm0-26.588a.67.67 0 01.315-.479c.684-.342 1.37-.643 2.245-1.013l-2.574 4.86a29.072 29.072 0 01-.096-3.395l.11.027zm11.39-9.583c-.424.342-.533.561-.218 1.123a2.068 2.068 0 010 1.52c-.069.218-.698.383-1.068.383H41.523l-.123-.22c1.37-.835 2.738-1.642 4.107-2.491a10.706 10.706 0 017.297-1.89c.685.083 1.37 0 2.109 0a1.368 1.368 0 01.89.658c.04.219-.192.712-.452.903l.137.014zm.493 1.013l.124-.192a.794.794 0 01.301-.273 7.243 7.243 0 014.75 0c.274.096.48.41.713.63l-.233.287a3.352 3.352 0 01-.534 0 6.27 6.27 0 00-4.463 0 .615.615 0 01-.384 0h-.411a.869.869 0 00.028-.466l.11.014zm29.956 13.088H74.01a.986.986 0 01-1.109-.794c-.438-1.246-1.027-2.45-1.615-3.82h13.677a.93.93 0 011.109.89c.191 1.192.451 2.383.698 3.642-.48.014-.712.069-.945.069l.11.013zm-5.819-5.476H71.3c-.342 0-.835 0-1.013-.246a20.26 20.26 0 00-5.353-4.313h17.73a1.287 1.287 0 011.45.917c.453 1.191.96 2.355 1.507 3.724l-5.504-.082zm1.917-5.558h-17.99c-1.903 0-2.587-.644-1.369-2.56-.232-.165-.52-.26-.616-.439a3.066 3.066 0 01-.328-1.232c0-.137.534-.37.835-.37h16.333a1.863 1.863 0 011.725.836 321.715 321.715 0 002.628 3.778l-1.218-.013zm-3.108-5.477h-16.1c-.849 0-1.082-.26-1.109-1.095a35.292 35.292 0 00-.425-3.56H72.41c.85-.059 1.69.216 2.341.767 1.37 1.205 2.834 2.396 4.258 3.587l-.082.301zM68.33 32.998h-5.476a4.108 4.108 0 01-3.217-.876 3.6 3.6 0 00-3.245-.506 10.17 10.17 0 00-2.738.753 7.243 7.243 0 01-3.381.643h-6.846c1.78-2.012 8.968-4.011 14.32-4.025a26.285 26.285 0 0114.307 4.025l-3.724-.014zm-18.044.918c-.424.26-.862.52-1.273.794-1.547 1.04-3.067 2.122-4.627 3.121-.449.3-.968.474-1.506.507h-6.284l-.206-.356 5.12-4.107a.835.835 0 01.425-.15c2.656-.083 5.421-.083 8.242.081l.11.11zm-8.05 5.34a1.369 1.369 0 01-.178.355c-1.56 1.37-3.121 2.642-4.71 3.943-.17.166-.392.267-.63.288h-4.202l-.178-.26a383.162 383.162 0 012.943-4.108c.195-.188.456-.29.726-.287 1.93-.055 3.97-.041 6.12-.041l.11.11zm-6.311 5.475l-1.11 1.054c-1.067 1-2.149 1.986-3.175 3.026a1.533 1.533 0 01-1.794.397c.589-1.369 1.164-2.738 1.78-4.107a.863.863 0 01.657-.356c1.013-.082 2.136-.068 3.532-.068l.11.054zm14.813-10.364a15.265 15.265 0 015.791-2.19c2.492-.301 4.108.767 4.546 3.245a25.69 25.69 0 01.082 4.477c0 .178-.466.506-.726.506h-3.477a.849.849 0 01-.575-.465c-.59-1.493-1.37-2.136-2.903-1.972a16.168 16.168 0 00-4.422 1.054A58.649 58.649 0 0032.816 49.88l-3.505 3.176-.301-.15c.178-.493.22-1.123.561-1.452 6.435-6.407 13.116-12.554 21.057-17.14l.11.054zm-21.7 19.455a135.88 135.88 0 013.56-3.313 1.37 1.37 0 01.821-.301h9.584c-.329.534-.575.958-.863 1.369-.753 1.068-1.369 2.519-2.354 3.08-.986.561-2.506.164-3.793.164h-7.16l-.288-.137c.114-.313.28-.605.494-.862zm8.105 7.434c.164 0 .52.48.466.602-.52 1.246-1.082 2.506-1.725 3.697-.137.246-.699.356-1.068.37h-4.49a.888.888 0 01-1.055-.85c-.205-1.218-.452-2.436-.712-3.82 3.04-.013 5.805-.026 8.584.015v-.014zm-2.04 5.558a9.65 9.65 0 01-.465 1.753c-.358.808-.79 1.583-1.287 2.314a1.124 1.124 0 01-1.999-.165c-.561-1.218-1.04-2.478-1.629-3.902h5.38zM31.9 75.686a1.974 1.974 0 01.137-1.657c.917-1.67 1.957-3.258 2.943-4.874.11-.15.288-.3.288-.465 0-1.807 1.492-2.985 2.067-4.518a39.326 39.326 0 001.451-5.476 6.434 6.434 0 011-2.506c1.204-1.642 2.327-3.34 3.641-5.243v12.965c0 5.64-.11 11.267-.15 16.908 0 .548-.11.917-.685 1.123-5.325 1.807-10.638 3.655-15.963 5.476-.16.017-.32.017-.48 0l1.26-2.3c1.492-2.643 2.957-5.285 4.463-7.913a1.369 1.369 0 00.028-1.479v-.041zM41.948 90.65a1.37 1.37 0 01-1.944-.329 9.41 9.41 0 01-.644-1.136 12.468 12.468 0 01-2.067 2.259c-.74.506-1.37-.069-2.232-1.753-1.109 1.89-1.78 1.479-2.93 0-1.369 1.37-1.369 1.37-2.738.452-.547-.082-1.095-.123-1.629-.246a13.68 13.68 0 01-1.766-.52 2.744 2.744 0 01-.534-.384c.189-.163.407-.289.644-.37 1.369-.136 2.738-.232 4.025-.342l12.17-.958h.822a3.245 3.245 0 01-1.177 3.34v-.013zm4.915 3.149c-1.37-.699-2 0-2.615.972.123-1.246-.11-2.136-1.575-2.3 1.246-.302 2.04-.85 1.712-2.328.643 1.246 1.465 1.56 2.738.876-.657.89-1.533 1.684-.26 2.793V93.8zm4.928-3.628c-2.519-.74-5.01-1.561-7.516-2.328-.67-.205-1.054-.589-.808-1.369-.561.466-13.02 1.588-16.538 1.37l16.196-5.6c.26 1.369.178 1.492-.904 1.766l-7.365 1.807.068.315 7.968-1.684c.249.249.524.47.822.657 3.477 1.657 7.352 2.533 10.432 5.476-.793-.08-1.58-.213-2.355-.397v-.013zm5.778 6.845a1.724 1.724 0 00-2.163-1.67 1.75 1.75 0 00.807-2.629c1.013 1 1.876.78 2.739-.123-.48 1.095-.63 2.026.698 2.738-1.493-.342-1.766.67-2.081 1.752v-.068zm3.71-7.776l-.561.315c-.52.3-.945.547-1.37.725-.424.178-.355.164-.506.233-1.218.465-1.807 0-3.71-1.37-.233-.136-.48-.246-.726-.369a7.397 7.397 0 01-.712-.41c-.15-.096-.164-.398-.274-.699-1.71.11-2.902-1.287-4.531-1.999l.917-1.3c-1.848.082-3.642.397-5.038-1.37l1.369-1.519h-1.971l-.137 1.205h-.247V77.67h27.86c.96 0 1.22.274 1.15 1.205-.068.93 0 2.08 0 3.121a1.067 1.067 0 01-.342.835c-1.588.959-3.217 1.876-4.915 2.848l-.123-1.369c-.52.205-1.163.246-1.369.561-.205.315-.082 1.068.863 1.137-1.506.876-2.738 1.985-4.505 1.56.165 1.04-.41 1.438-1.122 1.74v-.07zm1.369.684a37.86 37.86 0 015.476-3.368C79.186 82.038 85.922 74.03 87.73 62.201a30.215 30.215 0 00-24.027-34.063 30.517 30.517 0 00-35.87 23.931 30.037 30.037 0 003.328 20.755 1.438 1.438 0 010 1.684c-.206.302 0 .918.123 1.37.123.451.164.712.26 1.067l-.315.069a32.57 32.57 0 0139.936-48.766 32.652 32.652 0 0118.331 36.965C86.305 79.519 73.847 88.91 62.757 90.17l-.11-.247zm8.214 4.737c-.63-1.218-1.492-1.26-2.6-.767a1.726 1.726 0 00-.124-2.738c1.177.397 2.108.384 2.396-1.136l.205.205c0 .507 0 1.137.22 1.493.218.356.89.424 1.532.698-1.341.219-1.793.986-1.615 2.314l-.014-.069zm11.87-6.612c-.986-.754-1.862-.877-2.738.232.301-1.205.342-2.19-1.164-2.615 1.37 0 2.081-.451 2.081-1.848.452 1.068.85 2.04 2.382 1.492-1.314.712-1.177 1.602-.56 2.739zm7.12-10.474c-.37.15-.562.726-1.014 1.37 0-1.438-.328-2.287-1.848-2.219 1.369-.438 1.78-1.163 1.369-2.464.794.862 1.506 1.725 2.738.534-.903 1.15-.643 2.012.52 2.848-.821-.124-1.382-.315-1.793-.124l.027.055zm8.761 9.748a3.56 3.56 0 01-3.326 1.465c0-1.37.232-1.848 1.245-2.26.11 0 .26-.095.302-.177.205-.41.369-.835.547-1.26a5.26 5.26 0 00-1.164.37c-.52.356-.958.849-1.478 1.219a2.41 2.41 0 01-2.916 0 2.437 2.437 0 01-1.04-2.657 4.709 4.709 0 013.367-3.86 7.902 7.902 0 011.93 0c-.684 1.081-.465 2.34-1.985 2.505-.766.096-1.19.78-1 1.862.494-.301.904-.52 1.288-.78.544-.44 1.111-.851 1.698-1.233a2.272 2.272 0 013.258 1.192 3.56 3.56 0 01-.753 3.56l.027.054zm5.476-9.871a.97.97 0 01-.684.329c-.753.095-1.52.15-2.478.232.315.411.561.74.808 1.04 1.204 1.52 1.204 1.575 0 3.314-.671-.863-1.369-1.657-1.972-2.547a6.216 6.216 0 00-3.628-2.738c-.821-.246-1.04-.602-.602-1.369.712-1.369.74-1.52 1.985-.753 1.82 1.123 3.669.63 5.476.452l1.931-.164c-.288.766-.575 1.478-.918 2.15l.082.054zm2.177-6.407c-.493 1.89-.493 1.916-2.45 1.944H96.97c.142-.66.33-1.31.562-1.944.096-.233.588-.384.903-.384 1.027 0 1.013-.766 1.26-1.369.246-.602 0-.93-.561-1.232-.808-.493-.808-.93 0-2.41 2.354 1.48 4.654 2.917 6.941 4.395.191.124.232.493.315.767.082.274-.178.096-.206.178l.082.055zm1.027-12.472c-1.26.246-2.519.438-3.765.657v.178c1.232.383 2.437.807 3.669 1.122.876.206.63.808.63 1.37 0 .56 0 .985-.767 1.081a19.054 19.054 0 00-3.778.876c.89.301 1.766.603 2.656.876 1.766.534 1.766.52 1.437 2.451l-.684-.178c-2.287-.794-4.546-1.63-6.846-2.355-.93-.301-.561-.917-.588-1.465-.028-.547 0-1.013.766-1.109a22.78 22.78 0 003.724-.766c-1.164-.37-2.313-.767-3.477-1.096-.616-.164-.822-.41-.74-1.081.178-1.479.137-1.492 1.643-1.78l7.065-1.369c-.03.715-.099 1.428-.206 2.136-.15.164-.561.342-.821.397l.082.055z" fill="#575757"/></svg>