<svg width="16" height="16" fill="none" xmlns="http://www.w3.org/2000/svg"><path d="M14.665 11.28v2a1.334 1.334 0 01-1.453 1.333 13.193 13.193 0 01-5.754-2.046 13 13 0 01-4-4 13.193 13.193 0 01-2.046-5.78 1.333 1.333 0 011.326-1.454h2A1.333 1.333 0 016.072 2.48a8.56 8.56 0 00.466 1.873 1.333 1.333 0 01-.3 1.407l-.846.847a10.666 10.666 0 004 4l.846-.847a1.334 1.334 0 011.407-.3 8.56 8.56 0 001.873.467 1.334 1.334 0 011.147 1.353z" stroke="#FAF3E7" stroke-width="1.5" stroke-linecap="round" stroke-linejoin="round"/></svg>