<svg width="201" height="239" fill="none" xmlns="http://www.w3.org/2000/svg"><g clip-path="url(#clip0_1576:1966)"><path d="M91.098.446C94.103.22 97.132.26 100.141 0c3.619.33 7.275.125 10.87.723 13.952 1.53 27.578 5.986 39.657 13.128 6.319 3.643 12.132 8.135 17.567 12.983 2.289 2.407 4.856 4.556 6.905 7.179 5.15 5.58 9.36 11.975 13.1 18.567.972 2.125 2.253 4.093 3.029 6.31 2.627 5.207 4.198 10.843 5.857 16.406a132.107 132.107 0 012.715 16.426c.225 5.291.201 10.585 0 15.876-.622 5.736-1.498 11.461-2.908 17.065-1.024 2.796-1.559 5.748-2.696 8.504-5.435 15.144-14.678 28.891-26.605 39.693-2.434 2.269-5.037 4.346-7.624 6.439-2.965 1.852-5.644 4.166-8.798 5.713-5.628 3.519-11.746 6.178-17.948 8.5-2.651.783-5.267 1.675-7.918 2.454-6.062 1.314-12.16 2.68-18.382 2.82-3.861.462-7.765.402-11.642.221-2.169-.365-4.394-.104-6.551-.55-1.395-.245-2.825-.153-4.206-.478-4.307-.972-8.73-1.515-12.92-2.949-4.631-1.538-9.343-2.964-13.674-5.254-3.727-1.462-7.086-3.672-10.6-5.552-5.733-3.792-11.361-7.797-16.262-12.642-11.698-10.998-20.696-24.869-25.794-40.098-.558-1.386-1.06-2.796-1.35-4.266A97.694 97.694 0 01.095 95.346C.179 90.108 1.16 84.938 1.971 79.78c2.193-9.943 5.62-19.656 10.69-28.51 1.04-2.237 2.63-4.141 3.776-6.319 5.86-8.42 12.573-16.37 20.768-22.604 3.692-3.101 7.705-5.78 11.81-8.287 1.912-.832 3.515-2.226 5.476-2.94 6.294-3.21 12.894-5.882 19.76-7.597C79.746 1.92 85.442 1.221 91.098.446zm3.592 3.933c-6.428.421-12.803 1.47-19.061 3.012-5.102 1.527-10.204 3.13-15.037 5.387-22.052 9.878-40.102 28.413-49.24 50.797C8.254 70.653 6.494 78.22 5.14 85.8c-1.499 11.087-1.378 22.484 1.14 33.418 5.427 26.782 23.34 50.556 47.237 63.684 21.745 12.24 48.394 15.313 72.385 8.496 22.222-6.074 41.898-20.648 54.512-39.89 7.789-11.855 12.907-25.477 14.69-39.552 2.704-20.243-1.358-41.352-11.549-59.068-8.09-14.361-20.033-26.473-34.153-34.953-10.883-6.495-23.059-10.89-35.62-12.65-6.303-1.052-12.714-1.072-19.093-.907z" fill="#02164F"/><path d="M90.705 8.524c20.11-2.16 40.934 2.519 58.099 13.245 17.423 10.701 31.141 27.372 38.139 46.598 2.924 7.604 4.495 15.667 5.314 23.753-.072 3.093.551 6.158.342 9.243-.281 2.387-.302 4.785-.33 7.183-.297 4.065-.863 8.119-1.791 12.092-.647 2.659-1.724 5.186-2.551 7.789-7.576 23.102-24.762 42.814-46.578 53.532-9.236 4.647-19.287 7.616-29.534 8.905-1.997.378-4.049.197-6.046.615-14.863.795-29.923-1.976-43.493-8.123-9.894-4.595-19.117-10.765-26.79-18.546-14.317-13.96-23.737-32.788-26.453-52.584-1.032-7.99-1.149-16.125-.056-24.11.297-4.21 1.482-8.276 2.447-12.365 5.933-21.87 20.326-41.308 39.524-53.344a87.173 87.173 0 0119.426-9.371c3.126-1.282 6.444-1.925 9.702-2.756 3.49-.868 7.066-1.31 10.629-1.756zm-9.822 3.76C67.57 15.277 54.925 21.26 44.287 29.823c-11.65 9.235-20.973 21.407-26.794 35.093-1.442 3.178-2.41 6.54-3.671 9.79 44.44-.008 88.882-.056 133.315-.317 13.144-.008 26.288-.073 39.436-.044-4.222-14.78-12.658-28.269-23.693-38.93-11.28-10.83-25.376-18.748-40.568-22.524-13.51-3.423-27.815-3.523-41.429-.607zm-52.84 68.432c-1.246.658-2.64 2.225-1.704 3.667.76 1.884 3.587 2.238 4.772.587 1.884-1.88-.75-5.186-3.069-4.254zm12.368 1.506c-2.414 1.133-4.387 3.318-5.07 5.917-6.608.137-13.224.024-19.836.085.012 1.132.016 2.27.012 3.406 3.286-.064 6.576-.028 9.862-.024.325.59.149 1.314.233 1.96-3.19.044-6.853-.136-9.308 2.278-1.233.9-1.072 2.575-1.04 3.925.092 1.864 1.462 3.623 3.33 3.965 2.924.771 6.488.032 8.797 2.418-.574 1.655-2.056 3.189-3.936 2.928-1.302-.534-1.993-1.956-3.358-2.382-1.326-.466-3.086-.643-4.15.458-1.213.94-.984 2.671-.7 3.993.832 1.848 2.91 2.868 4.861 3.001 1.009 2.169 2.632 3.997 4.56 5.395.968-1.008 1.767-2.153 2.707-3.186-.703-.594-1.647-1.145-1.787-2.137 1.016-1.755 3.583-1.141 4.857-2.619.936-1.205 1.916-2.587 1.84-4.19.023-2.193-.27-4.921-2.431-6.074-2.832-1.51-6.158-.466-9.195-.803-1.049-.161-.715-1.406-.65-2.141 3.634-.675 7.39-.466 11.074-.446.221-2.121.073-4.258.089-6.387 1.321.177 2.792-.257 4.017.22.032 7.03-.048 14.065.12 21.09 1.51-.072 3.025-.056 4.54-.092-.049-7.054.052-14.112-.016-21.17 4.009.024 8.022-.024 12.035.028-.02.767-.032 1.543-.049 2.314-2.06.016-4.266-.321-6.162.69-1.582.668-2.856 2.126-2.884 3.901-.687 1.856.711 3.612 2.205 4.56 2.869 1.792 6.412 1.55 9.537 2.523 0 .751.414 1.868-.538 2.213-2.732 1.663-5.998.538-8.73-.518-.783.964-1.65 1.86-2.406 2.844 3.567 2.531 8.416 3.74 12.554 1.936 2.908-1.189 4.712-4.431 4.358-7.52-.317-.868-1.12-1.45-1.908-1.864-3.165-1.711-6.901-1.37-10.308-2.245a71.622 71.622 0 01-.193-1.519c1.121-.783 2.515-.51 3.797-.57 2.117-.008 4.234-.145 6.35-.044.234-2.242.113-4.5-.003-6.741 1.775.229 4.025-.675 5.379.868.851.831 1.51 2.032 1.205 3.254-.374 2.153-2.499 3.39-4.415 3.98.675 3.194 2.691 6.074 5.523 7.713 2.515 1.382 5.652 1.069 8.147-.205-.04 1.876-.076 3.752-.04 5.628 1.7-.052 3.394-.06 5.094.004-.157-7.05.208-14.088.225-21.13 5.145-.1 10.295-.028 15.441-.08a76.162 76.162 0 00-.144 5.664c-3.266.442-6.572.129-9.85.189-1.776.008-3.712 1.559-3.395 3.479-.036 2.209 2.278 4.543 4.528 3.563 1.522-.45 2.29-1.88 3.293-2.969 1.684-.04 3.37.02 5.058.004-.044 3.696-.024 7.396-.137 11.096 1.68.036 3.359.06 5.038-.025.032-6.993.305-13.98.193-20.977.71-.036 1.422-.064 2.133-.104-.04-1.093-.04-2.19-.008-3.282-14.622-.04-29.253.044-43.875-.1-.615-2.672-2.784-4.757-5.238-5.826-3.459-1.715-7.757-1.876-11.232-.12zm91.566-.751c-1.262 1.297-3.045 2.281-4.905 1.908-1.173-.105-2.057-.928-2.981-1.563-.976.004-1.904.619-2.74 1.093 1.157 3.15 4.966 5.094 8.171 3.989 2.097-.619 4.166-1.84 5.214-3.832a21.347 21.347 0 01-2.759-1.595zm-25.822 6.692c-2.109.543-3.752 2.415-3.929 4.6.787.578 1.515 1.273 2.398 1.707 1.559-.052 2.246-2.29 3.957-1.908 1.237-.197 2.543.667 2.647 1.956-.514 2.09-2.442 4.198-4.784 3.748-.036.916-.08 1.832-.12 2.752 1.598.241 4.081-.659 4.828 1.322.048 1.586.502 3.531-.831 4.744-.932 1.173-2.692 1.165-3.893.434-1.414-.695-2.037-2.238-2.555-3.624-1.012.639-2.017 1.286-3.025 1.924.293 1.117.49 2.322 1.213 3.258 3.194 4.275 10.666 4.431 13.747-.068 1.406-1.547.984-3.704.647-5.564-.181-1.277-1.306-2.068-2.166-2.908 1.712-1.478 1.965-3.897 2.129-6.014-.224-4.828-5.917-7.946-10.263-6.359zm11.344.032c.036 1.141.02 2.286-.008 3.431 1.081-.004 2.161-.032 3.246-.052-.06 1.675-.02 3.346.008 5.021a287.84 287.84 0 01-3.716.008c-.072 1.527-.072 3.053-.08 4.584a51.677 51.677 0 003.712-.085c.1 3.869.056 7.741-.025 11.61 1.7.032 3.403.08 5.098-.056-.144-7.038.036-14.076-.096-21.11 1.221.02 2.442.032 3.663.036-.12 6.994.073 13.987-.096 20.977 1.571.105 3.145.097 4.72.133a1563.99 1563.99 0 01-.028-21.223c2.089.37 4.704-.634 6.307 1.173 2.245 2.254.056 6.617-3.041 6.552.385 2.531.675 5.58 3.041 7.102 2.972 2.198 6.901 1.378 10.199.511a225.693 225.693 0 00-.112 5.933c1.598.02 3.205.064 4.804-.04-.165-7.03.06-14.068-.048-21.102 7.106.02 14.216-.06 21.323.032-.117 1.59-.101 3.186-.085 4.78-.891.314-1.767.675-2.623 1.077-2.237-1.639-4.784-3.125-7.64-3.145-2.656-.201-5.464 1.044-6.789 3.414-1.45 2.02-1.515 4.66-1.061 7.014.996 3.39 3.539 6.142 6.532 7.926.659-1.23 1.314-2.459 1.908-3.72-1.546-1.631-3.868-3.097-3.876-5.604-.229-1.852 1.261-3.507 2.948-4.025 1.089-.313 2.206.341 2.82 1.217-.639.767-1.651 1.097-2.478 1.615.675 1.257 1.229 2.571 1.952 3.8 2.258-1.434 4.816-2.282 7.154-3.567a5.2 5.2 0 011.394-.522c.028 3.575.273 7.15.177 10.725 1.627.209 3.274.129 4.913.089-.084-7.046.02-14.088-.048-21.134 1.321.008 2.643.044 3.969.024a45.63 45.63 0 01.012-3.39 18376.1 18376.1 0 00-68.05-.009zm-103.54 36.58c5.201 18.025 16.377 34.166 31.172 45.663 7.72 6.057 16.498 10.721 25.73 14.015 4.35 1.491 8.83 2.539 13.324 3.503 4.062.812 8.203 1.028 12.32 1.382 3.664-.008 7.348.181 10.996-.273 7.724-.418 15.321-2.242 22.632-4.72 13.288-4.644 25.42-12.489 35.19-22.617 9.673-10.07 16.984-22.411 21.126-35.752-5.737-.068-11.473.008-17.21-.056-2.944-.173-5.893-.116-8.841-.137-14.329 0-28.654-.144-42.983-.208-7.368.096-14.727-.189-22.09-.25-15.534-.277-31.069-.128-46.603-.317-11.589-.096-23.178-.052-34.764-.233z" fill="#02164F"/><path d="M40.168 88.264c.502-2.82 3.583-4.017 6.154-3.764 2.374-.125 5.01 1.213 5.487 3.716-3.88.004-7.76.144-11.641.048zm28.213 3.398l4.89-.024c-.061 3.057.312 6.19-.6 9.163-.642 1.888-2.635 3.35-4.66 3.057-1.209.008-1.94-1.113-2.546-2 1.02-1.049 2.338-1.92 2.888-3.339.948-2.173.502-4.623.028-6.857zm76.727-.108c1.764.028 3.523.032 5.287.012-.169 3.306.522 6.773-.719 9.934-1.129 3.029-6.211 2.864-7.356-.048 1.519-.964 2.82-2.322 3.102-4.178.124-1.9.237-3.872-.314-5.72zm10.65 113.362c3.901-.514 8.075-.341 11.61 1.563 3.691 1.9 6.351 5.519 7.315 9.533.968 4.025.948 8.319-.165 12.316-1.157 4.174-4.25 7.789-8.279 9.42-2.973 1.269-6.283 1.37-9.46 1.113-4.435-.422-8.726-2.856-11.031-6.725-2.772-4.527-2.957-10.159-2.061-15.261 1.044-5.961 5.953-11.204 12.071-11.959zm.78 5.946c-2.873.795-5.074 3.286-5.789 6.146-.848 3.354-.864 6.989.257 10.284 1.129 3.245 4.262 5.816 7.769 5.836 2.973.274 6.022-1.124 7.701-3.599 1.671-2.466 2.012-5.572 1.952-8.48-.108-2.852-.659-5.957-2.772-8.046-2.273-2.463-5.997-2.973-9.118-2.141zm-146.474-5.544a331.23 331.23 0 016.612 0c.02 11.007 0 22.018.012 33.025-2.213.012-4.423.008-6.632.004.008-11.011-.012-22.018.008-33.029zm56.236-.004c2.14 0 4.285-.044 6.427.028.004 10.995-.013 21.99.007 32.981-1.976.04-3.952.032-5.929.028-.012-1.077-.016-2.154-.028-3.226-1.832 2.278-4.6 3.985-7.604 3.844-3.491.109-6.7-2.165-8.328-5.158-1.69-3.081-1.835-6.74-1.49-10.163.305-2.92 1.535-5.857 3.893-7.701 2.233-1.896 5.358-2.362 8.17-1.844 1.916.394 3.48 1.647 4.901 2.921-.048-3.905-.02-7.809-.02-11.71zm-7.003 13.851c-1.546.655-2.711 2.109-3.1 3.736-.507 2.02-.419 4.15-.113 6.198.277 1.828 1.37 3.608 3.093 4.387 1.675.671 3.788.462 5.09-.876 1.86-1.683 2.193-4.37 2.117-6.74-.105-2.001-.406-4.218-1.909-5.685-1.301-1.37-3.45-1.667-5.178-1.02zm19.29-13.863c2.129.004 4.258 0 6.383.008.012 1.94.012 3.876 0 5.817-2.125.008-4.254 0-6.38.008a85.557 85.557 0 01-.003-5.833zm101.506.02c2.133-.024 4.27-.024 6.407 0 .02 1.928.02 3.86-.004 5.793-2.133.02-4.27.02-6.407 0-.02-1.933-.02-3.865.004-5.793zm12.536.024c2.141-.072 4.282-.044 6.423-.028.016 11.011.012 22.018.004 33.025-2.145.004-4.29.024-6.431-.02.02-10.991.008-21.986.004-32.977zM33.81 214.22c2.953-.683 6.416-.338 8.71 1.816 1.86 1.839 2.016 4.599 2.076 7.066.025 5.073-.016 10.147.017 15.224-2.146.041-4.29.025-6.44.017-.112-5.48.273-10.987-.261-16.446-.301-2.997-4.158-3.893-6.36-2.306-1.955 1.064-2.321 3.45-2.39 5.471-.063 4.423.009 8.85-.035 13.277a281.04 281.04 0 01-6.428-.009c.028-7.994-.008-15.988.016-23.982 1.997-.012 3.993 0 5.986-.012.036 1.053.036 2.109.04 3.166 1.466-1.386 3.037-2.816 5.07-3.282zm60.679.783c2.86-1.321 6.105-1.149 9.171-.964 2.651.221 5.66 1.442 6.608 4.138 1.639 6.608-1.101 13.799 1.819 20.166-2.173-.012-4.35.072-6.523-.061a71.973 71.973 0 00-.663-2.293c-1.711 1.426-3.688 2.707-5.966 2.916-2.406.225-5.057-.004-6.973-1.623-2.937-2.326-3.318-7.174-.824-9.946 1.51-1.703 3.82-2.322 5.962-2.804 2.45-.494 4.908-.968 7.311-1.683.108-1.193.088-2.66-1.033-3.387-1.317-.783-2.96-.651-4.43-.538-1.543.173-2.379 1.627-2.981 2.888-1.945-.293-3.873-.679-5.817-.988.695-2.362 2.045-4.708 4.338-5.821zm3.253 13.747c-1.615.57-2.362 2.679-1.333 4.097 1.373 2.298 4.796 1.912 6.56.285 1.872-1.422 1.426-4.017 1.502-6.069-2.242.558-4.551.899-6.729 1.687zm29.757-14.494c3.02-.759 6.608-.394 8.93 1.864 1.759 1.844 1.944 4.551 1.976 6.97-.004 5.081.012 10.167-.012 15.249-2.141.016-4.286.024-6.427-.009-.113-5.523.297-11.075-.27-16.574-.413-3.093-4.575-3.756-6.672-1.92-1.82 1.257-1.98 3.659-2.065 5.672-.048 4.27-.004 8.544-.016 12.818-2.141.049-4.286.021-6.427.017.016-8.003-.056-16.005.036-24.007 1.992.008 3.985 0 5.977.008.004 1.021.004 2.045.049 3.069 1.462-1.297 2.972-2.659 4.921-3.157zm-48.948.088c2.125-.008 4.254 0 6.383-.008.089 8.002.025 16.005.032 24.007-2.145.016-4.29.02-6.43-.02.023-7.99-.005-15.985.015-23.979zm101.549-.016a283.3 283.3 0 006.387-.004c.052 8.006.02 16.012.016 24.019-2.141.012-4.278.012-6.42 0-.008-8.007-.032-16.013.017-24.015z" fill="#02164F"/><path d="M80.882 12.284c13.614-2.916 27.919-2.816 41.428.607 15.193 3.776 29.289 11.694 40.569 22.524 11.035 10.661 19.471 24.15 23.693 38.93-13.148-.029-26.292.036-39.436.044-44.433.26-88.874.309-133.316.317 1.262-3.25 2.23-6.612 3.672-9.79 5.82-13.686 15.144-25.858 26.794-35.093 10.637-8.565 23.283-14.546 36.596-17.539zM13.957 124.775c11.585.181 23.175.137 34.764.233 15.534.189 31.068.04 46.602.317 7.364.061 14.723.346 22.09.25 14.329.064 28.654.208 42.983.208 2.949.021 5.898-.036 8.842.137 5.736.064 11.473-.012 17.209.056-4.141 13.341-11.452 25.682-21.126 35.752-9.769 10.128-21.901 17.973-35.189 22.617-7.312 2.478-14.908 4.302-22.633 4.72-3.647.454-7.331.265-10.995.273-4.117-.354-8.259-.57-12.32-1.382-4.495-.964-8.974-2.012-13.325-3.503-9.231-3.294-18.008-7.958-25.73-14.015-14.794-11.497-25.97-27.638-31.172-45.663z" fill="#BBB8B3"/></g><defs><clipPath id="clip0_1576:1966"><path fill="#fff" d="M0 0h200.002v238.979H0z"/></clipPath></defs></svg>