<svg width="273" height="67" fill="none" xmlns="http://www.w3.org/2000/svg"><path fill-rule="evenodd" clip-rule="evenodd" d="M60.797 38.017v-8.095H32.863v37.034h27.934v-8.094h-19.84v-6.375h17.46v-8.095h-17.46v-6.375h19.84zm119.317 0v-8.095h-27.935v37.034h27.935v-8.094h-19.84v-6.375h17.46v-8.095h-17.46v-6.375h19.84zm69.278-8.095h-10.975l-13.878 15.16v-15.16h-8.094v37.034h8.094v-9.884l4.776-5.217 10.139 15.101h9.752L234.94 45.71l14.452-15.788zm-58.454 8.096h11.489a3.19 3.19 0 013.187 3.186 3.19 3.19 0 01-3.187 3.187h-11.489v-6.373zm14.369 28.938h9.75l-9.918-14.8c4.921-1.214 8.57-5.656 8.57-10.952 0-6.23-5.051-11.282-11.282-11.282h-19.583v37.034h8.094v-14.47h4.677l9.692 14.47zM0 29.922v8.095h18.747L0 59.828v7.128h30.255v-8.094H11.509l18.746-21.818v-7.122H0zm142.202 0l-7.431 23.573-7.43-23.573h-8.49l-7.432 23.573-7.431-23.573H95.5l11.669 37.017h8.501l7.425-23.555 7.426 23.555h8.5l11.669-37.017h-8.488zm-48.51 0H63.098v8.095h11.25v28.94h8.094v-28.94h11.25v-8.095zM259.957 6.751a6.445 6.445 0 015.888 6.413 6.446 6.446 0 01-5.888 6.414 12.544 12.544 0 001.754-6.414c0-2.341-.641-4.534-1.754-6.413zm-.55 16.956c-5.813 0-10.543-4.729-10.543-10.543 0-2.31.748-4.45 2.013-6.188l.003-.003a6.39 6.39 0 011.894.898l-.005.006a8.452 8.452 0 00-1.852 5.287c0 4.682 3.808 8.491 8.49 8.491s8.491-3.809 8.491-8.49c0-4.682-3.809-8.49-8.491-8.49a8.57 8.57 0 00-.94.052 12.67 12.67 0 00-1.899-1.716 10.48 10.48 0 012.839-.39c5.813 0 10.543 4.73 10.543 10.543 0 5.813-4.73 10.543-10.543 10.543zm-10.841-4.129c-3.293-.28-5.889-3.049-5.889-6.414 0-3.364 2.596-6.134 5.889-6.413a12.536 12.536 0 00-1.754 6.413c0 2.343.64 4.535 1.754 6.414zm6.986-6.414c0 1.446-.478 2.78-1.284 3.856l-.008.007a6.403 6.403 0 01-1.29-3.863 6.41 6.41 0 011.284-3.855l.008-.007a6.402 6.402 0 011.29 3.862zm-16.98 0c0-5.813 4.729-10.543 10.543-10.543 5.814 0 10.543 4.73 10.543 10.543 0 2.312-.748 4.45-2.014 6.19l-.002.001a6.415 6.415 0 01-1.894-.897l.005-.006a8.454 8.454 0 001.852-5.288c0-4.681-3.808-8.49-8.49-8.49s-8.49 3.809-8.49 8.49c0 4.682 3.808 8.491 8.49 8.491.318 0 .632-.019.94-.052a12.715 12.715 0 001.899 1.716 10.49 10.49 0 01-2.839.388c-5.814 0-10.543-4.73-10.543-10.543zM259.407.57c-1.833 0-3.574.392-5.146 1.096A12.556 12.556 0 00249.115.57c-6.956 0-12.595 5.64-12.595 12.595 0 6.958 5.639 12.596 12.595 12.596a12.55 12.55 0 005.146-1.096 12.563 12.563 0 005.146 1.096c6.957 0 12.596-5.638 12.596-12.596 0-6.955-5.639-12.595-12.596-12.595z" fill="#FAF3E7"/></svg>