<svg width="275" height="41" fill="none" xmlns="http://www.w3.org/2000/svg"><path fill-rule="evenodd" clip-rule="evenodd" d="M67.008 8.922V0H36.219v40.819h30.789v-8.921H45.14V24.87h19.244v-8.922H45.14V8.922h21.868zm131.511 0V0h-30.79v40.819h30.79v-8.921h-21.867V24.87h19.243v-8.922h-19.243V8.922h21.867zM274.876 0h-12.097l-15.295 16.71V0h-8.922v40.819h8.922V29.925l5.263-5.75 11.175 16.644h10.749L258.947 17.4 274.876 0zm-64.428 8.923h12.664a3.516 3.516 0 013.512 3.512 3.516 3.516 0 01-3.512 3.513h-12.664V8.923zm15.838 31.896h10.747l-10.932-16.312c5.424-1.339 9.446-6.235 9.446-12.072C235.547 5.568 229.98 0 223.112 0h-21.585v40.819h8.921V24.87h5.156l10.682 15.948zM0 0v8.922h20.663L0 32.962v7.858h33.346v-8.921H12.685L33.346 7.85V0H0zm156.736 0l-8.191 25.983L140.356 0h-9.358l-8.19 25.983L114.617 0h-9.355l12.861 40.8h9.369l8.184-25.963 8.185 25.963h9.369L166.091 0h-9.355zm-53.469 0H69.546v8.922h12.4V40.82h8.922V8.922h12.399V0z" fill="#202020"/></svg>