<svg version="1.1" id="Layer_1" xmlns="http://www.w3.org/2000/svg" x="0" y="0" viewBox="0 0 44 44" xml:space="preserve"><style>.st57{fill:none;stroke:#231f20;stroke-width:2;stroke-linecap:round;stroke-linejoin:round;stroke-miterlimit:10}</style><circle cx="31.7" cy="30.5" r="11.9" opacity=".4" fill="#ffc900"/><circle class="st57" cx="17.9" cy="24.9" r="15.8"/><path class="st57" d="M21.6 5.3h-7.2c-1 0-1.9-.8-1.9-1.9 0-1 .8-1.9 1.9-1.9h7.2c1 0 1.9.8 1.9 1.9 0 1.1-.9 1.9-1.9 1.9zm9.8 6.4l-3.2-2.5c-.5-.4-.6-1.1-.2-1.5.4-.5 1.1-.6 1.5-.2l3.2 2.5c.5.4.6 1.1.2 1.5-.4.4-1.1.5-1.5.2zM18 5.3v3.9"/><circle class="st57" cx="17.9" cy="24.9" r="1.2"/><circle class="st57" cx="17.9" cy="24.9" r="12.5"/><path class="st57" d="M18.6 24l6.7-4.8m4.3-8.9l-1.7 2.4m15 19.2l-4.2-7.3-4.2 7.3h2.2c-.4 4.4-4.1 9.4-9 10.1h8c2.9-2.5 4.7-6.1 5-10.1h2.2z"/></svg>