<svg version="1.1" id="Layer_1" xmlns="http://www.w3.org/2000/svg" x="0" y="0" viewBox="0 0 44 44" xml:space="preserve"><style>.st58{fill:none;stroke:#231f20;stroke-width:2.0359;stroke-linecap:round;stroke-linejoin:round;stroke-miterlimit:10}</style><circle cx="12.9" cy="34.4" r="9.4" opacity=".4" fill="#ffc900"/><circle class="st58" cx="28.1" cy="16" r="14.4"/><path class="st58" d="M25.6 31.8l-4.9 8-1.1-4.2-4.5.9 4.9-8m10.4 3.3l4.8 7.8 1.1-4.1 4.4.8-4.7-7.8M22.9 18l3.1 2.9 9.1-11.3"/><path class="st58" d="M11.7 22.5v7.3h3l-.1-7.9h-10C3.2 21.9 2 23 2 24.4v15.4c0 1.4 1.1 2.5 2.5 2.5h21.2c1.4 0 2.5-1.1 2.5-2.5V35"/></svg>