<svg version="1.1" id="Layer_1" xmlns="http://www.w3.org/2000/svg" x="0" y="0" viewBox="0 0 44 44" xml:space="preserve"><style>.st57{fill:none;stroke:#231f20;stroke-width:2;stroke-linecap:round;stroke-linejoin:round;stroke-miterlimit:10}</style><circle cx="9.8" cy="34.4" r="9.4" opacity=".4" fill="#ffc900"/><path class="st57" d="M25.9 32.4c-1.3 0-2.3-1.3-1.9-2.6 1.1-3.8 4.6-6.5 8.8-6.5 4.2 0 7.7 2.8 8.8 6.7.3 1.2-.7 2.4-1.9 2.4H25.9z"/><circle class="st57" cx="32.7" cy="16.5" r="4.4"/><path class="st57" d="M37.3 35.1v4.2c0 1.6-1.3 3-3 3h-25c-1.6 0-3-1.3-3-3V4.5c0-1.6 1.3-3 3-3h25c1.6 0 3 1.3 3 3V10"/><path class="st57" d="M9.8 9l1.4 1.6L16 6.1m4.6 1.5h7M9.8 17.2h11.3M9.8 26.8h11.3M9.8 36.4h11.3"/></svg>