<svg width="108" height="109" fill="none" xmlns="http://www.w3.org/2000/svg"><path d="M49.837.508a53.271 53.271 0 00-36.964 19.729 54.461 54.461 0 00.63 69.014 66.177 66.177 0 006.557 6.585 52.916 52.916 0 0061.033 5.216 54.225 54.225 0 0026.12-53.257A54.231 54.231 0 0068.936 2.48 56.417 56.417 0 0058.462.563C56.847.358 51.48.372 49.837.508zm7.311 2.287a50.491 50.491 0 0132.46 14.361 51.728 51.728 0 0114.965 28.477c.649 4.155.851 8.369.602 12.568a51.71 51.71 0 01-15.06 32.857 51.144 51.144 0 01-30.283 14.649 73.04 73.04 0 01-11.227 0 50.203 50.203 0 01-16.524-4.86 49.448 49.448 0 01-13.691-9.789 51.669 51.669 0 01-14.663-29.42 55.57 55.57 0 01.233-16.019A51.546 51.546 0 0138.187 5.341a50.464 50.464 0 0118.961-2.546z" fill="#575757"/><path d="M51.04 5.177c-1.807.15-4.107.438-5.476.684a48.697 48.697 0 00-21.577 9.926A49.08 49.08 0 0012.104 29.71a23.084 23.084 0 00-1.246 2.424H97.67a21.887 21.887 0 00-1.233-2.424 49.08 49.08 0 00-11.883-13.923 48.601 48.601 0 00-24.78-10.405c-1.452-.178-7.476-.315-8.735-.205zM9.256 35.516a50.204 50.204 0 00.288 38.333l.164.411h89.14l.52-1.273a50.238 50.238 0 002.054-30.996 58.664 58.664 0 00-2.136-6.462l-.493-1.177-1.451.082c-1.903.123-59.91.123-75.49 0l-12.103-.082-.493 1.164zm88.4 2.313a47.915 47.915 0 01.165 32.57l-.534 1.52h-85.95l-.178-.315a53.191 53.191 0 01-1.738-5.394 47.698 47.698 0 011.465-28.34l.342-.944h86.087l.342.903z" fill="#575757"/><path d="M23.852 39.061h-8.501v1.589c.007.777.057 1.554.15 2.327l.15.753.726.082a3.833 3.833 0 013.177 1.643c.219.438.232.726.328 4.668.11 5.723 0 12.582-.137 13.17-.173.368-.41.701-.698.986a3.532 3.532 0 01-2.574.986l-.89.069v4.38H27.44c6.53 0 11.966 0 12.117-.095h.26v-9.584H37.64c-.76-.019-1.52.023-2.273.124-.1.5-.156 1.009-.164 1.52-.137 1.998-.48 2.737-1.602 3.217-.493.205-.684.219-2.998.191-1.37 0-2.505 0-2.56-.082-.055-.082-.082-2.012-.082-4.422 0-3.86 0-4.367.178-4.422.178-.055 1.697-.069 3.573-.069h3.423v-3.75l-.603-.083c-.328 0-1.93-.068-3.56-.068h-2.957l-.082-3.286v-4.107c0-.74.11-.863.329-.918a28.76 28.76 0 014.586 0 2.602 2.602 0 011.944 1.15c.247.452.288.685.343 2.068v1.56l1.095.083c1.095.099 2.198.066 3.286-.096.178-.082.191-.343.123-4.354 0-2.355-.11-4.518-.137-4.833v-.534h-3.587l-12.062.137zm21.166.137a21.895 21.895 0 000 3.587l.083.89h.492a11.23 11.23 0 012.739.41 2.833 2.833 0 011.588 2.123c.164.74.287 9.501.15 13.69-.096 3.834-.096 3.861-.849 4.56-.479.438-1.245.616-2.738.616h-1.19l-.083 1.944a18.729 18.729 0 000 2.245l.069.301h8.844c4.873 0 8.871 0 8.885-.096.014-.096 0-1.026 0-2.204v-2.136l-1-.082a3.422 3.422 0 01-3.203-1.971l-.274-.589v-16.1c.096-.986.15-1.191.465-1.616a2.342 2.342 0 012.081-.999c.411 0 1.041 0 1.37-.069l.602-.082v-4.559h-5.27c-2.903 0-6.846-.082-8.914-.082h-3.641l-.206.22zm25.71-.136c-2.218 0-2.738 0-2.738.206v4.435h1.054a3.19 3.19 0 013.053 1.37c.37.52.383.616.48 2.026 0 .807.095 4.572.109 8.378 0 7.695 0 8.215-.603 8.872-.602.657-.917.63-2.519.63h-1.369l-.082.356a17.324 17.324 0 000 3.285v.959h9.87c5.477 0 11.035 0 12.473-.082l2.629-.069v-4.6c0-3.915 0-4.6-.206-4.696a13.535 13.535 0 00-2.204-.11H88.65l-.082 1.753c-.096 1.903-.233 2.369-.822 2.834-.3.233-.438.247-3.683.247h-3.367l-.082-1.068v-9.584c0-9.296 0-9.255.752-9.912.754-.657.836-.602 2.369-.657H85.2v-4.696h-5.956l-8.515.123zm-59.87 37.636s.424.821.945 1.752a48.396 48.396 0 0083.033 3.163c.918-1.37 2.834-4.737 2.834-4.915 0-.178-19.523-.096-43.4-.096-23.876 0-43.412.027-43.412.096z" fill="#575757"/></svg>