<svg width="77" height="90" fill="none" xmlns="http://www.w3.org/2000/svg"><path d="M8.38 5.024a3.65 3.65 0 00-1.236.227V3.789a3.716 3.716 0 013.71-3.71h54.412a3.716 3.716 0 013.71 3.71v1.235H8.38zm64.306 8.659H4.67a3.716 3.716 0 00-3.71 3.71v68.012a3.716 3.716 0 003.71 3.71h27.08l4.074-20.942h-8.31c-.19 0-19.135-.894-19.135-.894l17.21-1.213-.29-1.358-7.338-1.058 6.982-.586-.46-1.666-11.408-1.732s12.395-1.384 12.584-1.384h11.99l.916-4.938c1.072-5.995 3.506-10.413 7.32-13.7 3.832-3.309 8.696-4.941 14.605-4.941 2.386 0 3.907.56 4.567 1.717.438.69.746 1.915 1.035 3.187.275 1.306.52 2.49.353 3.35-.212 1.28-1.71 1.725-4.441 1.725h-.939c-4.923 0-7.916 2.83-8.922 8.57l-.901 5.027h5.713c2.13 0 2.897 1.49 2.307 4.845-.63 3.49-2 5.045-4.121 5.045h-5.706L45.37 89.115h27.312a3.716 3.716 0 003.71-3.71V17.393a3.71 3.71 0 00-3.706-3.71zM70.21 8.734a1.239 1.239 0 00-1.235-1.235H8.38a1.24 1.24 0 00-1.236 1.235v2.475h63.067V8.734z" fill="#575757"/></svg>