<svg width="127" height="79" fill="none" xmlns="http://www.w3.org/2000/svg"><path d="M113.158 3.744c-21.193 4.746-42.39 9.524-63.593 14.334A15996.596 15996.596 0 01.772 29.031v49.6h125.707V3.58c.04-.73.127-1.458.261-2.177V.965c-4.477.93-9.05 1.766-13.582 2.779zM24.334 72.936h-9.762V36.451h9.762v36.485zm39.949-3.326c-3.697 2.519-7.913 3.162-12.212 3.299-4.299.137-11.281 0-16.087.069V36.205c6.654.123 15.47.095 21.905.396 2.012.177 3.959.804 5.696 1.835 4.613 2.574 5.051 8.214.78 11.309-1.93 1.369-4.45 1.998-6.708 2.943-.606.215-1.223.398-1.849.548 2.369.52 4.258.78 6.052 1.369 3.053.985 5.668 2.656 6.27 6.078a8.365 8.365 0 01-3.847 8.927zm40.196 3.463c-3.149.452-4.86-.794-6.504-3.3a127.718 127.718 0 00-10.322-13.525v16.716H77.385V36.588c7.749 0 15.333-.384 22.863.137 4.641.3 9.063 3.901 8.475 9.213a8.109 8.109 0 01-4.505 6.558c-1.807.959-3.792 1.616-5.914 2.492l14.334 18.003a59.499 59.499 0 00-8.159.082zm-7.257-23.027c-2.012 3.641-5.709 3.546-9.583 3.614V39.34c3.34-.178 6.845-.712 9.241 2.012 2.163 2.506 1.903 5.832.343 8.694zm-40.839 8.406a6.394 6.394 0 01.37 7.42c-2.341 3.738-5.996 4.34-10.268 3.806V55.522c3.738-.205 7.475-.48 9.898 2.902v.028zm-4.86-6.64c-1.533.26-3.121.246-5.148.397V39.353a33.065 33.065 0 014.943 0c3.56.438 5.558 2.45 5.64 5.545a6.695 6.695 0 01-5.435 6.886v.028z" fill="#575757"/></svg>