<svg width="129" height="104" fill="none" xmlns="http://www.w3.org/2000/svg"><path d="M126.379 40.952a17.71 17.71 0 00-6.735-8.078c-8.749-5.558-22.097-5.955-31.12-.93a18.113 18.113 0 00-9.158 12.58c-1.821 8.407-1.37 18.401 5.12 24.644 7.544 6.626 18.524 8.078 28.285 5.367a13.21 13.21 0 002.944-1l.287-.123a19.958 19.958 0 008.091-6.092c4.984-7.284 5.326-18.195 2.286-26.41v.042zm-15.894 18.824a5.143 5.143 0 01-3.108 3.834 10.558 10.558 0 01-8.817-.52c-2.095-1.466-2.355-3.916-2.629-6.23-.205-4.559-.533-9.392.74-13.567 1.013-2.588 3.778-3.245 6.27-3.437 2.492-.191 5.175.397 6.845 2.52 1.014 1.505.945 3.504 1.15 5.284-.082 3.779.261 8.214-.41 12.116h-.041zm-79.79 4.107c-2.217-.137-4.709 0-6.845-.205V40.404l.137-.192h6.654c.082-3.778.137-7.817 0-11.253L5.258 28.89l-4.189.069v11.185c2.3 0 4.45 0 6.681.205v22.508l-.068.917-6.668.137a136.98 136.98 0 000 10.952H30.71V63.911l-.013-.028zm74.779 15.882a51.92 51.92 0 01-10.295 10.952.465.465 0 01-.685 0c-1.684-1.054-3.505-1.917-5.12-2.97a54.59 54.59 0 005.86-8.023h-2.095a45.973 45.973 0 01-5.655 7.215 73.476 73.476 0 00-8.68-3.053l-.342-.247a33.37 33.37 0 001.616-3.915h-1.821l-1.82 3.573a85.915 85.915 0 00-12.322-1.588c-.206-.603 0-1.452-.206-1.986h-1.752c-.137.795.205 1.37-.192 2.054a77.118 77.118 0 00-12.13 1.465l-1.82-3.519a5.475 5.475 0 00-1.876.069l1.67 3.902-.192.191a84.548 84.548 0 00-8.899 3.122l-.26-.137a54.231 54.231 0 01-5.202-6.544c-.329-1.136-1.684-.466-2.423-.602a57.967 57.967 0 005.928 8.214c-1.821 1.054-3.628 2.245-5.477 3.108A48.85 48.85 0 0120.647 79.86a8.073 8.073 0 00-2.15 0A52.75 52.75 0 0038.61 97.946h.068c.069 0 .192.123 0 .191a55.873 55.873 0 0016.977 5.23 53.052 53.052 0 0051.874-23.438 11.273 11.273 0 00-2.15 0l.096-.164zm-28.19 6.12l.206-.138a38.564 38.564 0 018.215 2.848 41.416 41.416 0 01-7.475 6.353c-1.547.93-3.095 1.93-4.724 2.738l-2.888-1.246.205-.466a79.407 79.407 0 006.462-10.062v-.028zm-13.264-1.96a52.21 52.21 0 0111.24 1.37l.082.191a69.479 69.479 0 01-6.845 10.268 18.69 18.69 0 01-3.273-.547l-1.15-.137c-.136-3.902-.205-7.352 0-11.254l-.054.11zm-12.94 1.083a58.77 58.77 0 0110.952-1.191v11.199c-1.369.315-2.957.315-4.312.657a58.869 58.869 0 01-6.996-10.405l.342-.26h.014zm-10.857 3.573a44.759 44.759 0 018.215-2.916l.273.069a102.054 102.054 0 006.846 10.528c-.931.534-2.095.849-3.026 1.369a45.44 45.44 0 01-12.321-8.885v-.192l.013.027zm8.694 11.322a48.08 48.08 0 01-15.772-7.434v-.205a39.585 39.585 0 014.984-2.738 68.74 68.74 0 0012.13 9.35 5.081 5.081 0 01-1.37 1.055l.028-.028zm24.958.877a51.125 51.125 0 01-22.22-.124c-.137-.328.329-.397.534-.588 6.27-4.039 16.032-4.039 22.165.315.192.397-.342.273-.48.397zm6.476-1.835l-3.177.986a7.216 7.216 0 01-1.478-1.068l.137-.192a59.882 59.882 0 0011.924-9.2 26.215 26.215 0 015.189 2.848 45.864 45.864 0 01-12.595 6.626zm-60.02-75.01a62.182 62.182 0 015.476-6.545 35.597 35.597 0 015.257-4.436c1.753 1.123 3.71 2.054 5.394 3.108a57.235 57.235 0 00-5.79 7.94c.66.173 1.352.173 2.012 0a50.364 50.364 0 015.668-7.078c2.888 1.055 5.722 2.177 8.68 2.971l.273.274-1.684 3.834c.649.102 1.31.102 1.958 0 .603-1.123 1.068-2.383 1.739-3.505a65.901 65.901 0 0012.198 1.451c.534.465.137 1.451.343 2.054h1.807c.205-.657-.069-1.37.205-1.986a65.363 65.363 0 0011.801-1.52l.329.07 1.82 3.422c.632.1 1.277.058 1.89-.123l-1.698-3.834.151-.137a73.31 73.31 0 008.954-3.176 62.159 62.159 0 015.79 7.27c.68.07 1.364.024 2.027-.137a27.277 27.277 0 00-2.902-4.107 26.41 26.41 0 00-2.971-3.56v-.342l4.723-2.738.685-.274a49.301 49.301 0 0110.624 11.048c.807 0 1.492.288 2.163 0A53.398 53.398 0 0067.25.455l-.082.137-.137-.137a31.13 31.13 0 00-5.997-.069 17.332 17.332 0 00-2.492.069 52.818 52.818 0 00-40.346 23.63c.671 0 1.479.205 2.163 0l-.027-.15zm27.983-5.669h-.273a54.16 54.16 0 01-8.023-2.738l.137-.397A52.283 52.283 0 0152.08 6.465c1.013.397 2.026.712 3.025 1.191l-.192.52a83.962 83.962 0 00-6.599 9.994v.096zm13.404 1.698a25.177 25.177 0 01-5.477-.205 37.75 37.75 0 01-5.928-1.068 60.075 60.075 0 017.01-10.378l4.313.589c.205 3.436.068 7.406.068 11.062h.014zm2.067 0c-.137-3.519-.069-7.42 0-11.062l4.107-.603a57.374 57.374 0 016.955 10.323 48.353 48.353 0 01-11.13 1.37l.068-.028zm21.426-4.614a43.618 43.618 0 01-8.215 2.738 113.8 113.8 0 00-6.954-10.405c.944-.506 2.108-.903 3.107-1.437a47.274 47.274 0 0112.199 8.858l-.137.246zM76.587 4.028a47.917 47.917 0 0115.826 7.42l-.137.26-4.641 2.574h-.342a59.044 59.044 0 00-11.98-9.131c.124-.452.808-.794 1.274-1.123zm-2.739-.657v.11a20.536 20.536 0 01-21.548.711c-.343-.26-1.014-.383-1.082-.849a50.327 50.327 0 0122.63 0v.028zm-41.071 8.187a48.232 48.232 0 0113.95-7.01c.192-.205.329-.397.59-.397v.137c.547.123.944-.48 1.368-.082.424.397.876.602 1.205.93a68.6 68.6 0 00-12.048 9.324 21.902 21.902 0 01-5.12-2.738v-.137l.055-.027zm28.9 52.955a17.797 17.797 0 01-17.797-4.367c-.534-.657-.877-1.451-1.37-2.108h-9.09c-.137 5.353-.205 11.513 0 16.812h10.104l.137-3.177c1.15.52 2.3 1.192 3.436 1.78 7.01 2.916 16.018 3.573 22.96 0a13.61 13.61 0 007.009-13.91c-.74-5.613-6.134-10.706-11.582-12.102l-16.306-4.696-1.205-.602a1.862 1.862 0 01-.74-1.78c1.274-2.19 4.245-1.52 6.463-1.465 4.723.657 9.583 2.245 12.322 6.558H75.6c.137-5.476 0-10.186-.137-15.69-3.026 0-6.736 0-9.761.069.028.917-.04 1.835-.206 2.738l-3.012-1.82c-7.42-3.109-17.797-3.437-24.533 1.368-4.381 3.176-5.723 8.872-4.573 13.896.876 4.764 5.476 8.214 9.83 9.926 5.996 2.108 12.253 3.642 18.332 5.695.602.274 1.369.863 1.273 1.602-.096.74-.602.917-1.068 1.177" fill="#575757"/></svg>