<svg class="zm-brand-logo" width="180" height="40" viewBox="0 0 275 41" fill="none" xmlns="http://www.w3.org/2000/svg"><path fill-rule="evenodd" clip-rule="evenodd" d="M67.0076 8.92212V0H36.2192V40.8189H67.0076V31.8978H45.1403V24.871H64.3838V15.9489H45.1403V8.92212H67.0076Z" fill="#202020"/><path fill-rule="evenodd" clip-rule="evenodd" d="M198.519 8.92212V0H167.729V40.8189H198.519V31.8978H176.652V24.871H195.895V15.9489H176.652V8.92212H198.519Z" fill="#202020"/><path fill-rule="evenodd" clip-rule="evenodd" d="M274.876 0H262.779L247.484 16.7098V0H238.562V40.8189H247.484V29.925L252.747 24.175L263.922 40.8189H274.671L258.947 17.4015L274.876 0Z" fill="#202020"/><path fill-rule="evenodd" clip-rule="evenodd" d="M210.448 8.92317H223.112C225.048 8.92317 226.624 10.4983 226.624 12.4355C226.624 14.3727 225.048 15.9478 223.112 15.9478H210.448V8.92317ZM226.286 40.8189H237.033L226.101 24.5068C231.525 23.1682 235.547 18.2723 235.547 12.4355C235.547 5.56782 229.98 0 223.112 0H201.527V40.8189H210.448V24.871H215.604L226.286 40.8189Z" fill="#202020"/><path fill-rule="evenodd" clip-rule="evenodd" d="M0 0V8.92213H20.6627L0 32.9621V32.9695V40.8189H33.3462V31.8978H12.6846L33.3462 7.85042V7.84938V0H0Z" fill="#202020"/><path fill-rule="evenodd" clip-rule="evenodd" d="M156.736 0L148.545 25.9825L140.356 0H130.998L122.808 25.9825L114.617 0H105.262L118.123 40.8H127.492L135.676 14.8374L143.861 40.8H153.23L166.091 0H156.736Z" fill="#202020"/><path fill-rule="evenodd" clip-rule="evenodd" d="M103.267 0H90.8679H81.9458H69.5469V8.92213H81.9458V40.8189H90.8679V8.92213H103.267V0Z" fill="#202020"/>
          </svg>
