<svg width="88" height="144" fill="none" xmlns="http://www.w3.org/2000/svg"><path fill-rule="evenodd" clip-rule="evenodd" d="M58.779 58.67c.329.37 1.93 2.438 2.286 2.74.319-.548.58-1.126.78-1.726.275 0 .302.205.452.41l1.15 1.602c1.164 1.561 3.259 4.874 4.395 6.709 2.15 3.423 4.272 6.845 6.106 10.432 1.465 2.916 2.629 5.983 3.86 9.036a33.873 33.873 0 012.739 11.952v1.369a11.541 11.541 0 01-6.654 10.049c-3.258 1.246-7.187.602-10.528-.507a43.808 43.808 0 01-5.75-2.738l-2.026-1.04a81.051 81.051 0 01-13.362-8.612c-.616-.493-1.698-1.533-2.3-1.944.89-1.369 2.232-3.025 3.258-4.45.192-.26.343-.478.534-.725.192-.246.342-.534.534-.794 1.054-1.492 2.15-3.04 3.108-4.614.178-.287.329-.492.507-.766a5.41 5.41 0 00.479-.849c-1.37 0-2.424.082-3.779.082l-6.517 9.296c-.164.205-.356.425-.492.616-.603-.41-2.492-2.847-3.067-2.902-.794-.096-2.82 0-3.697 0a48.463 48.463 0 005.12 5.038c-.739 1.081-1.944 2.245-2.738 3.286a69.613 69.613 0 01-4.97 5.271l-1.067.985c-2.3 2.026-6.175 5.175-9.145 5.175-1.493 0-2.054-.972-2.41-2.231-1.698-5.819 1.191-18.195 2.834-24.027.178-.63 1.739-5.6 1.78-6.01h.15c.175.377.416.72.712 1.013 1.37 1.861 2.889 3.641 4.258 5.476l.794.93c.205.234.192.33.466.494 0-.753.095-3.888 0-4.381 0-.22-3.45-4.847-3.724-5.244-1.465-2.218-1.465-1.52-1.04-2.738.725-2.19 1.601-4.381 2.463-6.517l1.917-4.737c1.232-2.943 2.738-6.339 4.244-9.214l.767-1.52c.876-1.765 2.861-5.968 3.738-7.433.3-.507.479-.986.794-1.492l1.574-2.903c.534-1.013 1.082-1.903 1.602-2.889.534.25 1.027.577 1.465.972.493.356.972.712 1.369 1.096l8.776 7.352c.196.223.406.433.63.63a51.865 51.865 0 013.805 3.737l2.369 2.601a33.422 33.422 0 012.3 2.738c-.342.63-.603 1.37-.945 1.972l.096-.055zm11.432 55.955h-1.575c-5.284 0-13.239-3.971-17.798-6.969l-2.615-1.725c-2.546-1.848-4.107-2.985-6.68-4.97l-2.437-1.957c-.288-.233-.466-.493-.836-.59a20.119 20.119 0 01-2.026 2.465c-.1.107-.19.222-.274.342A56.525 56.525 0 0132.507 105c-.233.246-.302.356-.507.589-.205.232-.356.356-.561.561a6.91 6.91 0 01-.589.507l-2.916 2.669a24.427 24.427 0 01-6.133 3.943 10.355 10.355 0 01-4.381.89c-2.67 0-4.108-2.218-4.751-4.463-.15-.493-.26-.999-.356-1.465a17.705 17.705 0 01-.329-3.286c-.045-3.344.22-6.685.794-9.98.165-1.123.452-2.437.685-3.491a131.018 131.018 0 013.505-13.102c.164-.493 1-2.738 1-3.094l-4.286-7.612c-.247-.425-1.054-.452-1.465-.657-2.738-1.37-4.107-5.997-5.01-8.845a40.22 40.22 0 01-.617-2.135c-.205-.767-.37-1.37-.561-2.19l-.534-2.3a42.96 42.96 0 01-.835-9.406c-.078-4.022.93-7.99 2.916-11.487.123-.192.219-.383.356-.588a12.664 12.664 0 013.93-3.793c3.819-2.259 9.24-1.89 13.279-.438a25.701 25.701 0 014.641 2.3l7.366 4.833a3.43 3.43 0 001.054.67 22.442 22.442 0 011.739-2.806c1.67-2.492.848-1.136.848-3.642 0-2.505 5.874-9.145 8.215-11.513l1.725-1.808.48-.479 1.368-1.3c1.191-1.191 2.547-2.218 3.779-3.382a61.918 61.918 0 018.296-6.037l2.287-1.246C68.705.54 71.046-.527 73.017.582c2.957 1.697 3.313 7.187 3.313 10.144 0 .726-.082 1.164-.082 1.821a49.003 49.003 0 01-1.013 8.351 139.977 139.977 0 01-5.764 20.358c-.328.89-.684 1.835-1.013 2.739l-5.476 13.143c.123.191.301.37.452.575l4.518 6.201a84.567 84.567 0 015.298 8.31l1.369 2.465c1.123 2.15 2.259 4.258 3.204 6.476l1.204 2.738c1.684 3.82 4.327 11.075 4.327 15.06.098 2.416-.23 4.83-.972 7.132a11.358 11.358 0 01-1.04 2.259 13.232 13.232 0 01-4.012 4.258c-.676.459-1.402.84-2.163 1.136a14.54 14.54 0 01-1.246.411 13.185 13.185 0 01-3.765.466h.055zM19.35 71.732c-.35-.37-.65-.784-.89-1.232a27.541 27.541 0 01-2.341-4.108c0-.082.15-.492.192-.67a7.802 7.802 0 00.095-2.465 21.521 21.521 0 00-2.546-6.489L12.19 53.4a3.458 3.458 0 00-.165-.315 39.248 39.248 0 01-3.764-10.87c0-.534 0-1.137-.137-1.67-.043-1.652.14-3.3.547-4.902a13.145 13.145 0 012.027-4.34l.835-.972c2.08-1.643 3.956-3.217 7.256-3.217 1.85.053 3.672.482 5.353 1.26a7.61 7.61 0 011.109.547c2.56 1.479 4.75 2.656 7.338 4.313l4.107 2.615c0 .274-2.56 4.353-3.012 5.243l-1.15 2.15c-.219.37-.397.766-.616 1.122l-2.328 4.3c-1.218 2.272-2.19 4.394-3.326 6.653-.206.397-.329.725-.534 1.136-1.26 2.478-3.56 8.064-4.505 10.432-.3.726-1.67 4.108-1.834 4.86l-.041-.013zM60.819 54.33l-3.395-3.902c-.575-.684-3.108-3.19-3.67-3.751l-1.218-1.218c-.233-.247-.41-.33-.67-.59-.781-.793-1.37-1.163-1.917-1.765-.863-.835-1.78-1.534-2.602-2.287l-5.476-4.408a7.59 7.59 0 00-1.465-1.04c.376-.864.835-1.69 1.37-2.465.273-.41.478-.78.752-1.205a6.5 6.5 0 00.753-1.218c2.848 0 7.284-6.079 8.954-8.119l6.845-8.748c.15-.192.22-.287.384-.48.164-.19.218-.314.37-.492l3.038-3.806c.247-.301.507-.575.753-.89L66.2 5.32c.165-.151.301-.247.48-.384l.479-.397 1.026-.698a4.86 4.86 0 012.739-.986c.848 0 1.642 1.246 1.944 2.163.47 1.813.641 3.69.506 5.559a54.205 54.205 0 01-.835 7.502 133.005 133.005 0 01-5.777 21.317l-2.26 6.078-1.19 2.985-2.15 5.079a5.331 5.331 0 00-.315.794h-.027z" fill="#575757"/><path fill-rule="evenodd" clip-rule="evenodd" d="M27.454 71.294v18.578h4.49V71.294a11.46 11.46 0 011.273-4.929 13.69 13.69 0 015.175-5.777c.324-.209.657-.4 1-.575a13.02 13.02 0 0113.868 1.533 11.594 11.594 0 012.19 2.218c.22.301.439.547.63.862a12.02 12.02 0 012.068 5.408V89.79h4.49V70.623a14.486 14.486 0 00-.492-3.6 17.058 17.058 0 00-4.108-7.284l-.547-.548-2.328-1.848a16.826 16.826 0 00-10.843-3.094 17.483 17.483 0 00-9.405 3.19c-.419.287-.821.598-1.205.93-.219.192-.328.247-.547.466-.92.85-1.746 1.795-2.465 2.82a18.948 18.948 0 00-3.217 9.584l-.027.055z" fill="#575757"/><path fill-rule="evenodd" clip-rule="evenodd" d="M44.772 75.593a3.71 3.71 0 003.532-1.657h3.546c-.164.315-.246.658-.424 1a7.052 7.052 0 11-11.322-8.105 6.762 6.762 0 012.012-1.451 7.147 7.147 0 017.461.903 6.846 6.846 0 012.273 3.396h-3.464a3.846 3.846 0 00-5.887-.767 3.902 3.902 0 00-.985 4.19c.146.437.384.838.698 1.177a3.698 3.698 0 002.56 1.369v-.055zm-11.5 14.238h4.408l.165-8.817c.81.556 1.662 1.05 2.546 1.479a11.05 11.05 0 003.231.849 11.746 11.746 0 006.626-1.246 11.43 11.43 0 002.738-18.181 11.802 11.802 0 00-12.472-2.588 10.953 10.953 0 00-6.667 8.68c-.178 1.11-.137 1.3-.26 2.26-.096.67 0 1.683-.123 2.395l-.178 15.17h-.014z" fill="#575757"/><path d="M.771 142.484h6.448v-.712c-2.108-.232-2.738-.766-2.738-2.738v-11.363l12.637 15.402h.794v-16.826c0-1.369.164-2.012 2.204-2.272v-.657h-6.092v.711c2.286.178 2.628 1.109 2.628 2.739v8.611l-9.843-12.13H.812v.712c.37 0 .821.082 2.423 2.04v13.458c0 1.875-.807 2.067-2.505 2.272v.753h.041zm20.536 0h9.474v-.712c-1.958-.26-2.492-.314-2.492-2.614v-5.299c3.752 0 5.189-.068 7.01-1.081a4.82 4.82 0 002.587-4.285c0-4.806-5.175-5.23-7.434-5.23h-9.145v.712c1.506.137 2.382.232 2.382 2.615v12.54c0 1.588-.397 1.958-.74 2.218-.341.26-.246.164-1.642.397v.739zm6.982-17.209c0-.616.397-.985 1.37-.985 2.327 0 3.34 1.081 3.34 4.312 0 3.519-1.273 4.34-4.71 4.285v-7.612zm28.559 12.897c-2.355 2.628-4.49 3.491-6.709 3.491a5.209 5.209 0 01-4.312-2.478 13.691 13.691 0 01-1.219-6.243c0-4.792 1.11-9.132 5.258-9.132 3.23 0 5.613 3.313 6.612 5.792h.712v-6.654h-.767c-.287.712-.547 1.369-1.369 1.369-.821 0-2.916-1.369-5.476-1.369a9.804 9.804 0 00-9.395 6.258 9.806 9.806 0 00-.654 3.928 9.582 9.582 0 0010.186 9.98c3.642 0 5.86-1.793 7.927-4.107l-.849-.698.055-.137zm12.322 3.6c-1.561-.109-2.739-.205-2.739-2.012v-13.704c0-1.931 1.37-1.958 2.739-2.013v-.725h-9.94v.711c1.37.083 2.642.137 2.642 2.013v13.691c0 1.752-1.109 1.875-2.642 2.012v.739h9.94v-.712zm18.646-5.736h-.821c-1.37 3.204-2.903 5.572-7.188 5.572-1.903 0-2.52-.233-2.52-1.602v-13.389c0-2.505.877-2.533 2.862-2.615v-.684h-9.912v.711c1.287.083 2.45.137 2.45 2.013v13.691c0 1.725-.848 1.807-2.45 2.012v.739h16.43l1.163-6.448h-.014z" fill="#575757"/></svg>