<svg width="137" height="72" fill="none" xmlns="http://www.w3.org/2000/svg"><path fill-rule="evenodd" clip-rule="evenodd" d="M10.662.205h115.811a10.879 10.879 0 0110.52 10.88v49.761c0 5.745-4.95 10.88-10.52 10.88H10.663A10.88 10.88 0 01.087 60.846v-49.73A10.781 10.781 0 0110.662.206zm3.46 22.161l-1.86 10.956 10.215 5.983 2.644-4.406-5.94-4.58 1.512-7.91h2.818c.38 3.45-.392 5.919-2.176 7.768l3.079 2.307c2.818-1.654 4.776-4.852 5.679-10.074h11.63l-.87 3.524-10.466.11-.882 4.612c.882 1.686 1.872 3.155 3.743 3.58a3.1 3.1 0 002.97-1.894 7.612 7.612 0 00.544-1.686h2.926l-1.653 6.67h6.158l3.731-14.96h1.686l.936-4.352H14.024l-.935 4.352h1.033zm102.451 30.92c-.99 4.35-6.06 7.81-12.065 7.81-6.865 0-12.435-4.493-12.435-9.932 0-5.44 5.57-9.966 12.424-9.966 6.06 0 11.26 3.612 12.25 8.28l-8.355.119a4.356 4.356 0 00-3.895-2.176 3.763 3.763 0 00-3 6.57 3.762 3.762 0 003 .883 4.723 4.723 0 003.34-1.36l8.736-.229zM24.447 41.371h7.996l5.33 10.88 2.1-10.88h7.3l-4.569 20.105h-8.127l-5.2-9.584-1.588 9.584h-7.366l4.123-20.105zm46.922 0h11.369c3.155 0 7.54 3.133 7.54 6.528 0 5.853-3.025 8.986-8.225 8.986h-6.93l-1.088 4.559h-6.746l4.08-20.073zm6.07 6.44l-.685 2.786h3.96c.465.004.919-.141 1.295-.413.435 0 .99-.708.99-1.24 0-.719-.674-1.089-2.35-1.089l-3.21-.043zm-27.992-6.44h19.8l-1.425 6.745h-6.745l-2.97 13.36H51.58l2.35-13.36h-5.875l1.392-6.745zm55.485-15.535h4.352l.674-3.471h-3.623l-1.403 3.47zm3.427 4.612h-5.277l-.152.37 2.861 2.524-2.97 3.884-8.453-5.44 1.643-3.263c3.264-1.262 4.504-3.884 2.633-5.984l5.853-.163H98.23l.936-4.352h9.389l1.545-5.157c.435-1.381 1.751-1.61 3.078-1.61 2.416-.109 5.266-.109 8.345 0 1.316 0 2.752 1.839 2.752 2.872l-.315 3.895h1.088l-.947 4.352h-1.109l-3.145 14.818-5.439.097 2.926-14.915h-1.447l-3.144 14.818-5.711.097 1.327-6.843zm-34.52-8.083c-.653 3.525-2.122 8.225-1.088 9.998.881 1.578 2.741 1.676 4.721 1.262a9.38 9.38 0 003.264-1.349l-.979 5.005 5.712-.098 3.144-14.818h1.447l-2.97 14.916 5.494-.098 3.21-14.818h1.033l.935-4.352H96.73l.305-3.894c0-1.088-1.426-2.873-2.742-2.873-3.405-.108-6.158-.108-8.355 0-1.317 0-2.633.229-3.068 1.61l-1.545 5.157h-7.616l-.935 4.352h1.066zm7.833 5.146c-1.654.718-2.753.185-2.328-1.088l.729-4.014h2.61l-1.011 5.102zm33.367-9.454l.337-.914c.109-.228.326-.228.653-.228h1.653c.218 0 .544.456.544.456l-.076.686h-3.111zm-27.199 0l.327-.914c.12-.228.337-.228.663-.228h1.654c.218 0 .544.456.544.456l-.087.686h-3.1zm-16.895 0l.315-3.895c0-1.088-1.425-2.872-2.752-2.872a41.07 41.07 0 00-8.345 0c-1.316.12-2.632.228-3.078 1.61l-1.545 5.157h-3.46l-.946 4.352h6.179l-.5 2.458c-6.81 0-9.89 3.667-9.444 7.344.544 4.406 5.82 6.092 12.631 5.352l.99-5.44h-5.44c-1.762 0-1.087-1.783-.108-2.099l5.929-.109 1.578-7.496h1.294l-2.915 14.916 5.711-.098 2.644-14.872h1.893l.935-4.352-1.566.044zm-8.91 0l.326-.914c.109-.228.326-.228.653-.228h1.654c.217 0 .543.456.543.456v.686h-3.176zM14.557 5.634h108.881c6.07 0 8.605 2.61 8.605 8.486v43.756c0 5.81-2.85 8.486-8.605 8.486H14.492c-7.485 0-8.595-3.122-8.595-8.486V14.12c0-5.44 1.98-8.486 8.595-8.486" fill="#575757"/></svg>