<svg width="116" height="117" fill="none" xmlns="http://www.w3.org/2000/svg"><path d="M65.661 77.013L65.648 77l.013.013zM58.158.798a57.665 57.665 0 1057.501 57.734A57.722 57.722 0 0058.158.797zm49.149 50.546c0 .164-.41.452-.671.493-1.793.301-3.614.534-5.476.807l.411 3.259c-.519.118-1.045.2-1.575.246a.71.71 0 01-.506-.438 82.823 82.823 0 01-.685-4.805c0-.206.329-.452.52-.671.192-.22.178 0 .274 0l7.489-1.054c.134.715.23 1.437.288 2.163h-.069zm-1.109-6.23c.137.617.288 1.233.452 2l-8.214 2.026-.603-2.56 4.217-1.082 3.204-.794c.424-.096.821-.164.944.41zm-2.149-6.475c.684 1.807.712 1.807-.78 3.026l-5.395 4.408a16.791 16.791 0 01-.835-2.108 1.042 1.042 0 01.466-.822c.712-.424.63-.958.342-1.574-.287-.616-.37-1.37-1.369-1-.616.206-.986 0-1.136-.684a9.587 9.587 0 00-.507-1.246l4.107-.356c1.369-.11 2.738-.192 4.025-.328a.93.93 0 011.082.684zM91.946 62.707c1.055.616 2 1.027 2.739-.41-.343 1.286 0 2.121 1.369 2.505-1.192.123-2.013.534-1.972 1.93a1.795 1.795 0 00-2.505-1.369 1.672 1.672 0 00.37-2.656zm2.958-8.913c-.863-.82-1.67-1.492-2.739-.492.151-.48.466-.986.384-1.37-.082-.383-.589-.698-1.04-1.204 1.19.164 2.286.41 2.327-1.219l2.286 1.986c-1.287.26-1.711.958-1.218 2.327v-.028zm5.626-21.466c.2.43.27.91.2 1.38a2.438 2.438 0 01-3.17 1.96.793.793 0 00-1.123.383c-.534.836-1.11 1.657-1.752 2.588-.52-.767-.986-1.37-1.37-2.081a.972.972 0 01.137-.808c.397-.657.904-1.246 1.37-1.889a2.56 2.56 0 00.15-.931h-.342c-.685.452-1.37.931-2.081 1.37a.835.835 0 01-.78-.138c-.417-.552-.8-1.128-1.15-1.725l7.146-4.668c.958 1.492 1.958 2.97 2.765 4.559zm-9.405 8.898c-1.123-.506-2.026-.575-2.738.712.11-1.19 0-2.135-1.52-2.327 1.178-.26 2.122-.643 1.917-2.136.452 1.37 1.369 1.451 2.56 1.11-.767.807-1.054 1.628-.178 2.642h-.041zm-1.711-20.262c-.178 1.15-.274 2.3-.411 3.464l1.123-1.369c.383-.48.766-.945 1.163-1.369a.877.877 0 01.78-.123c.302.465 1.52.575.89 1.369-1.601 2.08-3.354 4.107-5.024 6.037-1.67-.958-1.766-1.108-1.52-2.833.178-1.26.397-2.52.63-4.108l-3.108 3.656-1.656-1.37 5.366-6.38c1.698.795 2.013 1.384 1.767 3.026zm-9.474 7.037c.958 1.137 1.848.877 2.738 0-.165 1.684-.164 1.684.643 2.738a3.958 3.958 0 00-1.506.178c-.356.206-.493.767-.849 1.37-.136-1.37-.698-2-2.067-1.726 1.095-.533 1.739-1.177 1.096-2.546l-.055-.014zm2.177-13.827c1.738.944 1.766.93 1.369 2.875-.397 1.944-.836 4.107-1.26 6.106 0 .192-.123.383-.22.726a17.795 17.795 0 01-1.916-1.164c-.192-.137-.219-.616-.164-.89.15-.616.123-1.054-.561-1.37-.685-.314-1.205-.862-1.849 0a.808.808 0 01-1.369.179c-.354-.229-.72-.439-1.095-.63.22-.246.383-.465.561-.643 1.753-1.657 3.519-3.314 5.258-4.997a.862.862 0 011.246-.178v-.014zm-7.298-2.437c.233-.643.52-.822 1.137-.507.616.315 1.068.425 1.656.644-.958 2.505-1.862 4.942-2.82 7.338a.82.82 0 01-.74.37c-1.984-.466-2.026-.562-1.286-2.451.74-1.89 1.396-3.573 2.053-5.38v-.014zm-4.107 14.06c-.315-.383-.575-.945-.972-1.068-.397-.123-.972.137-1.643.274.356-.52.835-.903.863-1.369.027-.465-.342-.917-.548-1.369 1.232.78 1.862 0 2.56-.972-.219 1.273.22 2.026 1.534 2.245-1.15.397-2.013.863-1.766 2.273l-.028-.014zm-6.352-9.789a238.487 238.487 0 011.643-7.05.821.821 0 01.67-.425c1.143.2 2.272.47 3.382.808a3.93 3.93 0 012.505 4.655 4.108 4.108 0 01-4.34 3.505c-.93-.192-2.258-.452-3.559-.794-.123-.028-.315-.466-.274-.685l-.027-.014zm-8.488-.616V7.85a16.509 16.509 0 012.245 0c.335.11.614.346.78.657.74 1.205 1.438 2.437 2.273 3.874V8.027c.094-.052.195-.09.301-.11 2.218 0 1.78-.26 1.78 1.739s0 3.792-.096 5.695v.959c-1.999.273-2.081.219-2.985-1.37a27.383 27.383 0 00-2.053-3.203v3.683c0 1.218-.657.876-1.37.944-.711.069-.862-.274-.848-.958l-.027-.014zm1.752 3.6c.287 1.11.74 1.945 2.19 1.575-1.067.726-1.505 1.561-.794 2.738a1.672 1.672 0 00-2.738.083c.411-1.123.616-2.109-.835-2.739 1.533.398 1.89-.533 2.204-1.642l-.027-.014zM51.751 8.26a4.792 4.792 0 012.04-.246c.137 0 .383.356.41.575.206 2.41.384 4.82.548 7.229 0 .191-.205.561-.356.588a6.27 6.27 0 01-1.82 0c-.206 0-.48-.52-.508-.821-.164-1.944-.273-3.902-.396-5.86h-.083c.069-.451-.054-1.341.192-1.45l-.027-.015zm-4.737 13.69c-.384.74-.808 1.191-.78 1.616.027.424.492.862.917 1.547-1.37-.671-2.15-.452-2.643.89 0-1.233-.219-2.218-1.766-2.287 1.63-.137 1.63-1.205 1.602-2.368.616 1.095 1.424 1.396 2.697.561l-.027.041zm-4.422-8.707a2.327 2.327 0 012.272 2.286 2.298 2.298 0 01-3.214 2.285 2.3 2.3 0 01-1.372-2.285 2.341 2.341 0 012.34-2.327l-.026.04zm-28.49 38.553a1.574 1.574 0 001.245 0 20.534 20.534 0 002.027-1.37c.123-.095.246-.164.616-.396 0 .56.164 1.067 0 1.369a5.833 5.833 0 01-4.108 2.573c-1.19.096-1.834-.479-1.738-1.67.095-1.19.383-2.231.52-3.354 0-.205-.233-.452-.356-.67-.233.122-.63.218-.657.396a38.98 38.98 0 00-1.054 8.365 7.271 7.271 0 012.259-.164 7.378 7.378 0 011.985 1.246c.506-.616 1.122-1.37 1.67-2.054.342-.479.643-.807 1.369-.397a11.363 11.363 0 01-2.834 4.545 3.382 3.382 0 01-1.698.767c-.807.123-1.19-.465-1.081-1.287 0-.315 0-.862-.137-.944a1.369 1.369 0 00-1.109 0c-.233.123-.342.588-.356.903v1.752c0 .59.26.836.904.754 1.93-.247 3.874-.439 5.982-.671a14.57 14.57 0 01-.766 1.862 1.369 1.369 0 01-.89.465 78.21 78.21 0 01-4.107.41c-.671 0-.808.343-.74.945.069.603.466.59.918.507l4.696-.821c.41-.069.835-.083 1.369-.124a12.138 12.138 0 01-.548 1.753 1.245 1.245 0 01-.849.534c-.726.123-.944.438-.684 1.136.129.377.239.761.328 1.15l.698-.192c.63-.219 1 0 1.164.657a3.244 3.244 0 01-.547 2.876 1 1 0 01-1.794 0 9.14 9.14 0 01-.616-.986h-.274a7.1 7.1 0 00.123.766c.206.629.353 1.275.438 1.93a1.63 1.63 0 01-1.245 1.808c-.877.246-1.452-.288-1.903-.958a3.436 3.436 0 011.204-4.792c.343-.22.918-.561.89-.78a8.214 8.214 0 00-.684-1.972c0-.082-.329-.096-.507-.082l-1.533.246a18.2 18.2 0 01.205 2.739c0 .355-.67.643-1.15 1.081a50.873 50.873 0 01-1.862-11.664 47.3 47.3 0 01.959-11.802c-.534.206-.904.384-1.37.507a1.205 1.205 0 01-1.738-1.054 5.148 5.148 0 013.86-5.778 2.41 2.41 0 001.643-1.602c.986-2.204 2.081-4.353 3.122-6.53.534-1.095 1.479-.452 2.286-.74-.315 1.37-.315 1.37.945 2.054l4.696 2.355c-1.164.48-1.684 1.835-3.094.89-.07.38-.12.764-.15 1.15-.11 1.807-1.74 2.889-3.875 2.328-.137 0-.26-.59-.192-.863.137-.63.315-1.205-.342-1.643-.452-.287-.849-.342-1.082.288-.233.63-.63 1.52-1.013 2.45l6.517 2.273c-.459.502-.963.96-1.506 1.369a1.547 1.547 0 01-1.11 0c-1.505-.48-2.997-1.013-4.572-1.547l-.616 1.862 6.476 1.232c-.671 1.698-1.123 1.971-2.738 1.684a4.249 4.249 0 01-.63-.137c-.67-.233-1.04 0-1.15.698 0 .411-.274.808-.315 1.232-.041.425.041.986.233 1.096l-.028.04zm8.063 13.58c-.397.179-.616.754-1.109 1.37.22-1.616-.725-1.862-1.916-1.958 1.04-.465 1.656-1.095 1.287-2.396.835 1.123 1.697.986 2.738.26a1.766 1.766 0 00.479 2.739c-.493-.028-1.054-.233-1.451-.055l-.028.04zm1.068-11.979c-1.095-.78-1.985-.82-2.738.452.493-1.369-.178-2.094-1.37-2.6 1.26 0 2-.453 1.918-1.89.56 1.122 1.204 1.848 2.573 1.26-.958.793-1.26 1.629-.356 2.737l-.027.041zm.794-25.574c.192-.123.493-.438.452-.534a2.026 2.026 0 00-.685-.89c-.164-.123-.56 0-.794.11-.232.11-.328.356-.492.548-1.041 1.19-1.192 1.218-2.82.63l1.984-2.314a2.875 2.875 0 00-3.217 1.054c-.438.589-.903.52-1.834-.247.63-1.807 1.369-2.409 3.244-2.258a6.23 6.23 0 005.271-1.808 60.239 60.239 0 016.695-5.134c1.287-.93 1.369-.862 2.56.425l-1.123.821 4.108 5.299c-1.027.643-1.917.725-2.451.178-.534-.548-1.11-1.287-1.739-2.013a4.63 4.63 0 00-.246.643c-.22 1.37-.206 1.37-1.37 1.164-.3-.328-.506-.753-.739-.767a1.068 1.068 0 00-.876.507c-.15.288-.15.917 0 1.068a6.984 6.984 0 001.876.972c.454.069.915.069 1.369 0 .452 1.027.383 1.218-.671 1.191a14.012 14.012 0 01-2.738-.26 2.601 2.601 0 01-1.971-2.82 2.505 2.505 0 012.655-2.054c1.37 0 1.63-.589.945-1.985a49.085 49.085 0 00-7.023 5.654c1.697.548 2.656 1.492 2.245 3.245a3.957 3.957 0 002.834-.082.93.93 0 011.369.616 10.952 10.952 0 01-5.819 1.369 2.3 2.3 0 01-1.136-.534c-.725-.63-.616-1.355.165-1.807l-.028.013zm10.282 4.573c-.425-1.082-.863-2.053-2.41-1.533 1.37-.712 1.137-1.643.616-2.738a1.768 1.768 0 002.739-.22c-.48 1.233-.274 2.081 1.04 2.588-1.191.055-2.04.41-1.958 1.862l-.027.041zm-7.366 9.584c-.808-.808-1.478-1.794-2.738-.575a1.766 1.766 0 00-.37-2.82 1.725 1.725 0 002.478-1.178c.083 1.232.425 2.136 1.917 2.095-1.328.342-1.766 1.095-1.26 2.41l-.027.068zm-3.08 35.732v-.26c.287-.397.767-.767.821-1.191.055-.424-.3-.89-.493-1.37a1.863 1.863 0 002.739-.807 1.699 1.699 0 001.369 2.41c-1.164.205-2.15.451-1.862 2.053-.616-1.273-1.452-1.547-2.574-.835zm4.696-21.262c0-.492.123-.725.657-.725h9.789c-.301 1.273-.616 2.492-.863 3.71-.11.602-.329.876-1 .863h-7.707c-.67 0-.931-.178-.89-.877-.014-.958-.041-1.957-.055-2.97h.069zm58.28 3.19c0 .507-.205.699-.711.699H74.285c-.232 0-.657-.301-.67-.48v-4.107h12.24c.752 0 1.067.192 1.026.972-.15.959-.123 1.93-.041 2.916zM74.026 76.89c-.602 0-.807-.177-.794-.78v-3.12c0-.425.082-.712.589-.712h8.803c.186.047.365.116.534.205-1.054 1.438-2.04 2.82-3.067 4.108a1.095 1.095 0 01-.753.205c-1.834.096-3.614.068-5.38.096h.068zm4.984 1.233l-5.367 4.49-.287-.205v-4.545h5.476l.178.26zm3.997-6.763h-9.09c-.534 0-.698-.192-.685-.699v-3.217c0-.493.151-.725.685-.712h10.952c.218.029.433.075.644.137-.644 1.465-1.219 2.862-1.862 4.217-.082.178-.466.274-.712.274h.068zm2.068-5.477H74.107c-.739 0-.958-.232-.917-.958v-2.848c0-.63.206-.862.835-.862h11.856c.562 0 .794.178.671.767-.219 1.04-.452 2.08-.616 3.148-.096.59-.37.767-.93.753h.068zM65.73 77.013c-.096.138-.192.37-.301.37H51.162v-.26a4.863 4.863 0 011.205-.3h12.321c.194.002.387.025.575.068l.548.096-.233-.452-.096-.137a2.109 2.109 0 01.178-2.738 2.013 2.013 0 11.863 3.381 4.228 4.228 0 00-.712-.096l-.082.069zm-8.872-1.08c.233-1.206 1.027-.904 1.698-.945.67-.041.67.273.698.725.028.452-.233.616-.67.616h-2.246l-.164-1.725h-.26l-.137 1.67h-3.628l.11-1.875h8.104v1.807c-.493.233-.698.096-.698-.479 0-1.26 0-1.246-1.287-1.177h-.917c-.904.054-1.027.479-.671 1.382h.068zm3.82-2.26a17.62 17.62 0 007.598-3.56v2.985a2.587 2.587 0 00-3.176.507.548.548 0 01-.315.164c-1.437.014-2.793.014-4.176-.096h.069zm4.107 2.574h-3.956c0-.342 0-.67-.096-1-.096-.698.191-1.012.93-.971.74.04 1.822 0 2.739 0l.383 1.971zm8.05-2.847v.3a18.847 18.847 0 01-3.929 0v-.328l3.93.028zm-2.998-2.177a1.026 1.026 0 011.04-1.027 1.136 1.136 0 011.137 1.177 1.205 1.205 0 01-1.164 1.178c-.712-.028-1.15-.548-1.15-1.328h.137zm-.52 5.627h3.108c.177 0 .355.205.533.315-.177.109-.37.3-.56.314H68.29v-.314a4.65 4.65 0 01.89-.315h.137zm2.012-.534h-2.012l.164-1.944h3.354c0 .095.123.136.123.191.042 1.78.042 1.78-1.766 1.753h.137zm-.794-8.981c-.063.1-.118.205-.164.315.205-.151.465-.274.575-.48.657-1.081 1.273-2.204 1.862-3.244v6.01c-.466-.589-.698-1.137-1.082-1.3a4.205 4.205 0 00-1.56 0v-.26c0-.247.11-.466.15-.685-.725.684-1.369 1.369-2.163 2.067-.246.233-.507.438-.767.643a14.388 14.388 0 01-11.883 2.738h-.356s-.123 0-.438.096l2.15.562H51.38c.575 1.766.452 2.573-.534 3.19a1.943 1.943 0 01-2.45-.288 2.053 2.053 0 01-.329-2.45c.561-.945 1.451-1.123 3.149-.63-.384-.726-.644-.794-2.56-.644V70.62l.082-.068.274-.096.164-.164a7.108 7.108 0 01-1.287-.876c-.315-.315-.425-.822-.712-1.164a14.731 14.731 0 01-3.217-6.709A14.566 14.566 0 0148.3 47.99c.191-.206.397-.384.575-.589.178-.205 0-.11 0-.288-.274.11-.52.178-.753.288-1.274.589-2.547 1.191-3.834 1.766a2.19 2.19 0 01-.876.233h-9.446c.985-.835 1.834-1.451 2.573-2.19a8.035 8.035 0 016.928-2.465c2.34.22 4.71 0 7.064 0 .562 0 1.273-.383 1.712.37h.246c1.37-.644 3.067-.822 4.258-2.026a2.97 2.97 0 014.203.328 4.79 4.79 0 001.725 1.068 14.814 14.814 0 017.735 22.85h.123zm-23.096 4.107a1.027 1.027 0 01-1.081 1.109 1.083 1.083 0 01-1.082-1.137 1.151 1.151 0 011.109-1.204 1.11 1.11 0 01.917 1.204l.137.028zm.603 1.999a11.446 11.446 0 01-4.108.356v-.356h4.108zm-2.136-4.847c-.603 0-1.37-.26-1.37.835 0 .082-.273.26-.396.247a.466.466 0 01-.302-.356v-6.284c1 1.793 2.013 3.628 3.067 5.558-.41-.027-.78-.04-1.136-.027l.137.027zm-1.643 5.791c1.081-.068 2.177 0 3.245 0l.11 1.972h-3.451c-.15 0-.342-.726-.342-1.123s.137-.876.301-.876l.137.027zm-.164 2.506c1.369 0 2.738 0 4.107.096.164 0 .328.205.493.328v.178H44.29c-.137 0-.274-.192-.41-.287-.096-.11-.014-.343.082-.343l.137.028zm0-26.588a.672.672 0 01.315-.479 37.722 37.722 0 012.245-1.013l-2.574 4.86a29.072 29.072 0 01-.096-3.395l.11.027zm11.39-9.583c-.424.342-.534.561-.219 1.123a2.068 2.068 0 010 1.52c-.068.218-.698.383-1.068.383H41.524l-.123-.22c1.369-.835 2.738-1.642 4.107-2.491a10.706 10.706 0 017.297-1.89c.684.083 1.369 0 2.108 0a1.368 1.368 0 01.89.658c.041.219-.192.712-.452.903l.137.014zm.493 1.013l.123-.192a.794.794 0 01.302-.273 7.243 7.243 0 014.75 0c.274.096.48.41.712.63l-.233.287a3.352 3.352 0 01-.534 0 6.27 6.27 0 00-4.463 0 .615.615 0 01-.383 0h-.411c.051-.15.06-.31.028-.466l.109.014zm29.955 13.088H74.012a.986.986 0 01-1.11-.794c-.438-1.246-1.026-2.45-1.615-3.82h13.677a.93.93 0 011.109.89c.192 1.192.452 2.383.698 3.642-.479.014-.712.069-.944.069l.11.013zm-5.818-5.476H71.3c-.342 0-.835 0-1.013-.246a20.262 20.262 0 00-5.353-4.313h17.729a1.287 1.287 0 011.451.917c.452 1.191.959 2.355 1.506 3.724l-5.503-.082zm1.916-5.558h-17.99c-1.902 0-2.587-.644-1.368-2.56-.233-.165-.52-.26-.616-.439a3.067 3.067 0 01-.329-1.232c0-.137.534-.37.835-.37H78.9a1.863 1.863 0 011.725.836 321.715 321.715 0 002.629 3.778l-1.219-.013zm-3.108-5.477h-16.1c-.849 0-1.081-.26-1.108-1.095a35.292 35.292 0 00-.425-3.56H72.41c.85-.059 1.69.216 2.341.767 1.37 1.205 2.834 2.396 4.258 3.587l-.082.301zM68.33 32.998h-5.476a4.107 4.107 0 01-3.218-.876 3.6 3.6 0 00-3.244-.506 10.17 10.17 0 00-2.738.753 7.243 7.243 0 01-3.382.643h-6.845c1.78-2.012 8.967-4.011 14.32-4.025a26.285 26.285 0 0114.307 4.025l-3.724-.014zm-18.044.918c-.425.26-.863.52-1.273.794-1.547 1.04-3.067 2.122-4.628 3.121a3.04 3.04 0 01-1.506.507h-6.284l-.205-.356 5.12-4.107a.835.835 0 01.424-.15c2.656-.083 5.422-.083 8.242.081l.11.11zm-8.05 5.34a1.366 1.366 0 01-.178.355c-1.561 1.37-3.122 2.642-4.71 3.943-.17.166-.393.267-.63.288h-4.203l-.178-.26a364.77 364.77 0 012.944-4.108c.194-.188.455-.29.725-.287 1.93-.055 3.97-.041 6.12-.041l.11.11zm-6.312 5.475l-1.109 1.054c-1.067 1-2.15 1.986-3.176 3.026a1.533 1.533 0 01-1.793.397c.588-1.369 1.163-2.738 1.78-4.107a.864.864 0 01.657-.356c1.013-.082 2.135-.068 3.532-.068l.11.054zm14.814-10.364a15.264 15.264 0 015.79-2.19c2.492-.301 4.108.767 4.546 3.245a25.7 25.7 0 01.082 4.477c0 .178-.465.506-.725.506h-3.478a.85.85 0 01-.575-.465c-.589-1.493-1.369-2.136-2.902-1.972a16.17 16.17 0 00-4.422 1.054A58.65 58.65 0 0032.816 49.88l-3.504 3.176-.302-.15c.178-.493.22-1.123.562-1.452 6.434-6.407 13.116-12.554 21.056-17.14l.11.054zm-21.7 19.455a135.883 135.883 0 013.56-3.313 1.37 1.37 0 01.82-.301h9.584c-.328.534-.575.958-.862 1.369-.753 1.068-1.37 2.519-2.355 3.08-.986.561-2.505.164-3.792.164h-7.16l-.288-.137a2.89 2.89 0 01.493-.862zm8.105 7.434c.164 0 .52.48.465.602-.52 1.246-1.081 2.506-1.725 3.697-.137.246-.698.356-1.068.37h-4.49a.888.888 0 01-1.054-.85c-.206-1.218-.452-2.436-.712-3.82 3.039-.013 5.805-.026 8.584.015v-.014zm-2.04 5.558a9.65 9.65 0 01-.466 1.753 14.657 14.657 0 01-1.287 2.314 1.122 1.122 0 01-1.998-.165c-.562-1.218-1.04-2.478-1.63-3.902h5.38zm-3.204 8.872a1.972 1.972 0 01.137-1.657c.917-1.67 1.958-3.258 2.944-4.874.11-.15.287-.3.287-.465 0-1.807 1.492-2.985 2.067-4.518a39.326 39.326 0 001.452-5.476 6.434 6.434 0 011-2.506c1.204-1.642 2.326-3.34 3.64-5.243v12.965c0 5.64-.109 11.267-.15 16.908 0 .548-.11.917-.684 1.123-5.326 1.807-10.638 3.655-15.964 5.476-.159.017-.32.017-.479 0l1.26-2.3c1.492-2.643 2.957-5.285 4.463-7.913a1.369 1.369 0 00.027-1.479v-.041zM41.95 90.65a1.37 1.37 0 01-1.945-.329 9.41 9.41 0 01-.643-1.136 12.468 12.468 0 01-2.068 2.259c-.739.506-1.369-.069-2.231-1.753-1.11 1.89-1.78 1.479-2.93 0-1.37 1.37-1.37 1.37-2.738.452-.548-.082-1.095-.123-1.63-.246a13.68 13.68 0 01-1.765-.52 2.741 2.741 0 01-.534-.384c.188-.163.407-.289.643-.37 1.37-.136 2.738-.232 4.025-.342l12.171-.958h.822a3.245 3.245 0 01-1.178 3.34v-.013zm4.914 3.149c-1.369-.699-1.999 0-2.615.972.123-1.246-.11-2.136-1.574-2.3 1.246-.302 2.04-.85 1.711-2.328.644 1.246 1.465 1.56 2.738.876-.657.89-1.533 1.684-.26 2.793V93.8zm4.929-3.628c-2.52-.74-5.011-1.561-7.516-2.328-.671-.205-1.055-.589-.808-1.369-.562.466-13.02 1.588-16.539 1.37l16.197-5.6c.26 1.369.178 1.492-.904 1.766l-7.366 1.807.069.315 7.968-1.684c.248.249.524.47.821.657 3.478 1.657 7.352 2.533 10.433 5.476-.793-.08-1.58-.213-2.355-.397v-.013zm5.777 6.845a1.724 1.724 0 00-2.163-1.67 1.752 1.752 0 00.808-2.629c1.013 1 1.875.78 2.738-.123-.48 1.095-.63 2.026.698 2.738-1.492-.342-1.766.67-2.08 1.752v-.068zm3.71-7.776l-.56.315c-.521.3-.946.547-1.37.725-.424.178-.356.164-.506.233-1.219.465-1.808 0-3.71-1.37-.233-.136-.48-.246-.726-.369a7.397 7.397 0 01-.712-.41c-.15-.096-.165-.398-.274-.699-1.712.11-2.902-1.287-4.532-1.999l.917-1.3c-1.848.082-3.641.397-5.037-1.37l1.369-1.519h-1.972l-.137 1.205h-.246V77.67h27.86c.959 0 1.219.274 1.15 1.205-.068.93 0 2.08 0 3.121a1.07 1.07 0 01-.342.835c-1.588.959-3.217 1.876-4.915 2.848l-.123-1.369c-.52.205-1.164.246-1.37.561-.205.315-.082 1.068.863 1.137-1.506.876-2.738 1.985-4.504 1.56.164 1.04-.41 1.438-1.123 1.74v-.07zm1.37.684a37.86 37.86 0 015.476-3.368C79.187 82.038 85.922 74.03 87.73 62.201a30.215 30.215 0 00-24.027-34.063 30.517 30.517 0 00-35.87 23.931 30.037 30.037 0 003.327 20.755 1.438 1.438 0 010 1.684c-.205.302 0 .918.123 1.37.123.451.164.712.26 1.067l-.315.069a32.57 32.57 0 0139.936-48.766 32.652 32.652 0 0118.332 36.965C86.306 79.519 73.847 88.91 62.758 90.17l-.11-.247zm8.214 4.737c-.63-1.218-1.492-1.26-2.601-.767a1.726 1.726 0 00-.124-2.738c1.178.397 2.109.384 2.396-1.136l.206.205c0 .507 0 1.137.219 1.493.219.356.89.424 1.533.698-1.342.219-1.794.986-1.616 2.314l-.013-.069zm11.87-6.612c-.986-.754-1.862-.877-2.739.232.302-1.205.343-2.19-1.163-2.615 1.369 0 2.08-.451 2.08-1.848.453 1.068.85 2.04 2.383 1.492-1.314.712-1.177 1.602-.561 2.739zm7.119-10.474c-.37.15-.562.726-1.013 1.37 0-1.438-.329-2.287-1.849-2.219 1.37-.438 1.78-1.163 1.37-2.464.793.862 1.505 1.725 2.737.534-.903 1.15-.643 2.012.52 2.848-.82-.124-1.382-.315-1.793-.124l.028.055zm8.762 9.748a3.56 3.56 0 01-3.327 1.465c0-1.37.233-1.848 1.246-2.26.11 0 .26-.095.301-.177.205-.41.37-.835.547-1.26a5.26 5.26 0 00-1.163.37c-.52.356-.959.849-1.479 1.219a2.41 2.41 0 01-2.916 0 2.436 2.436 0 01-1.04-2.657 4.709 4.709 0 013.367-3.86 7.902 7.902 0 011.931 0c-.685 1.081-.466 2.34-1.985 2.505-.767.096-1.191.78-1 1.862.493-.301.904-.52 1.287-.78a20.52 20.52 0 011.698-1.233 2.272 2.272 0 013.258 1.192 3.56 3.56 0 01-.753 3.56l.028.054zm5.476-9.871a.993.993 0 01-.685.329c-.753.095-1.519.15-2.478.232.315.411.562.74.808 1.04 1.205 1.52 1.205 1.575 0 3.314-.671-.863-1.369-1.657-1.971-2.547a6.216 6.216 0 00-3.628-2.738c-.822-.246-1.04-.602-.603-1.369.712-1.369.74-1.52 1.986-.753 1.82 1.123 3.669.63 5.476.452l1.93-.164c-.287.766-.575 1.478-.917 2.15l.082.054zm2.177-6.407c-.493 1.89-.493 1.916-2.451 1.944h-6.845c.142-.66.33-1.31.561-1.944.096-.233.589-.384.904-.384 1.026 0 1.013-.766 1.26-1.369.246-.602 0-.93-.562-1.232-.808-.493-.808-.93 0-2.41 2.355 1.48 4.655 2.917 6.941 4.395.192.124.233.493.315.767.082.274-.178.096-.205.178l.082.055zm1.027-12.472c-1.26.246-2.52.438-3.765.657v.178c1.232.383 2.437.807 3.669 1.122.876.206.629.808.629 1.37 0 .56.001.985-.766 1.081a19.08 19.08 0 00-3.779.876c.89.301 1.766.603 2.656.876 1.766.534 1.766.52 1.438 2.451l-.685-.178c-2.286-.794-4.545-1.63-6.845-2.355-.931-.301-.562-.917-.589-1.465-.027-.547 0-1.013.767-1.109a22.8 22.8 0 003.724-.766c-1.164-.37-2.314-.767-3.478-1.096-.616-.164-.821-.41-.739-1.081.178-1.479.137-1.492 1.643-1.78l7.064-1.369c-.03.715-.098 1.428-.205 2.136-.151.164-.561.342-.822.397l.083.055z" fill="#575757"/><path d="M61.867 45.32a3.6 3.6 0 01-1.37 2.875c-.232.178-.506.562-.465.767.041.205.452.452.726.52a9.282 9.282 0 016.845 10.556 9.31 9.31 0 01-16.634 4.011 9.282 9.282 0 01-.561-10.2 9.13 9.13 0 015.969-4.394c.794-.178 1.054-.63.575-.986a3.738 3.738 0 01-1.63-3.258 13.69 13.69 0 00-10.514 15.06 13.704 13.704 0 1027.382-1.205c.205-6.613-4.86-13.308-10.323-13.746zm-12.24 21.317c-.164.11-.657-.096-.862-.315a5.19 5.19 0 01-.712-1.164c-.219-.424-.438-.78-1.04-.657a.755.755 0 01-.603-.288c0-.136.123-.41.178-.63.055-.218.301-.82.192-1.15a11.54 11.54 0 011.013-9.802c.137-.246-.096-.684-.123-1.04a1.231 1.231 0 010-.671c0-.137.342-.165.52-.247.712.493 1.027 0 1.369-.451a14.05 14.05 0 011.369-1.37c.205-.164.603 0 .904-.082.007.298-.054.593-.178.863-.35.424-.724.827-1.123 1.205-.37.383-.862.739-.41 1.369 0 0-.357.602-.48.575-.643-.11-.904.246-1.15.698a9.322 9.322 0 00-.67 8.53c.109.287.547.437.793.684.247.246.493.588.438.643-.465.575 0 .959.233 1.37.257.303.457.65.589 1.026a1.013 1.013 0 01-.247.904zm4.107 3.313c-.191-.575-.82-1.178 0-1.725v1.725zm.288-.301c0-.972.452-.52.904-.466l-.904.466zm2.136.89l-.589-.411.452-1.11c.328.192.342.288.164 1.52h-.027zm1.739.218c-.165-.219-.33-.506-.398-.492-1.506.397-.506-.712-.766-1.123 1.355 0 1.355 0 1.19 1.615h-.026zm5.777-1.095l-1.37-.479h-.081v1.164h-.11l-.233-.671h-.191a4.639 4.639 0 00-.164.465c0 .206 0 .411-.11.616l-.438-.41.904-1.232h-.78l2.943-1.26-.37 1.807zm1.574-.725l-.725-.74-.288.507-.219-.22.507-.287.164-.232.37-.507-.931.206 1.109-.877.013 2.15zm4.696-4.45c-.725 0-.972.315-1.232.835-.15.368-.359.71-.616 1.013a2.93 2.93 0 01-.917.37 3.052 3.052 0 01-.26-1.04c.118-.344.305-.66.547-.931.288-.425.699-.808.233-1.37 0-.068.192-.465.37-.643s.74-.41.876-.712a9.118 9.118 0 00-.849-8.748 1.247 1.247 0 00-.876-.425c-.589 0-.753-.218-.575-.807a1.15 1.15 0 00-.164-.918c-.397-.533-.945-.958-1.37-1.492a.945.945 0 01-.15-.534v-.342h.26c.243-.028.489.01.712.11.45.368.863.78 1.232 1.232.424.465.726 1 1.56.684.425-.15.863.233.494.712-.37.48-.233 1 0 1.492a12.322 12.322 0 011.52 6.175c-.151.643-.466 1.917-.685 3.203-.054.417.028.839.233 1.205.356.562.273.986-.315.931h-.028z" fill="#575757"/><path d="M59.924 53.589v-.246c-1.273.698-1.3.698-2.012.219l1.465-1.643c-.876.753-1.082.11-1.37-.425.165.452.302.808-.41.657h-.315l.15-.232-.218-1.164 1.369-.15c-1.37-.302-1.643-.083-1.794 1.245 0 .26-.356.698-.575.712-.657 0-.602.384-.575.589l1.123.794.274-.89c.105.217.224.428.356.63.178.267.4.503.657.698.193.103.4.177.616.22l.164-.288.931 2.382h-.356l-.862.068-.178.945c-.123 0-.41-.082-.425-.164a6.711 6.711 0 01-.082-1.479 1.232 1.232 0 00-.698-1.37c-.657-.218-.643.521-.822.932a2.855 2.855 0 00-.136.438c-.274-.123-.507-.233-.74-.315-.233-.082-.643-.246-.698-.178-.178.274-.41.657-.328.917a5.54 5.54 0 00.766 1.534c.22.37.575.41.712 0 .137-.411.342-.329.685-.15a2.615 2.615 0 002.656.246 1.246 1.246 0 011.793.739c1.232-.726 1.219-1.903.904-3.245l.301.22c.301-.89.588-1.726.89-2.56h.342l-.356-.727a3.697 3.697 0 01-.506 1.014 3.6 3.6 0 01-1.233.712c-.15 0-.89.219-.67-.507l-.315.082-.425.123-.356.438-.205-.164.356-.506.15-.151z" fill="#575757"/><path d="M59.047 54.712l-.26-.082-.246.397.506-.315zm-1.544-2.766c0-.37-.137-.753-.22-1.164l.22 1.164zm3.023 1.958l-.424.123.425-.123zm-.782 9.118l.013.013-.013-.013zm1.792-1.767l-.178 1.04h-.287l-.753-1.875h-.329l.233 1.657-1.11.41.63.52c.52-.081 1.041-.177 1.561-.246.945-.123.411.918.89 1.205l.192-.849h.274l.219 1.37c.078-.272.12-.553.123-.836.082-1.109-.808-1.725-1.465-2.396zm-.52 1.191l-.096-.068.096.069z" fill="#575757"/><path d="M60.953 65.349c0-.302-.137-.616-.22-.945-.15-.561-.287-1.15-.944-1.369v.548l-1.698-.178v1.081h.082c.302-.164.753 0 1.04-.219a.247.247 0 00.11-.096.726.726 0 00.11-.205.494.494 0 000-.15s.356-.097.397 0c.098.144.137.32.11.492a1.218 1.218 0 01-2.122.493.999.999 0 010-1.506c.232-.287.547-.561.424-.89a.957.957 0 00-.192-.26l-.11-.082c-.095-.082 0-.425 0-.466h-1.218l.48-1.45a3.34 3.34 0 00-.795 1.15c-.219.41-.342 1.053-1.013.396 0 0-.424.123-.547.274-.124.15-.233.63-.439.863a1.52 1.52 0 00-.136 2.053 3.012 3.012 0 002.45 1.56c.644 0 1.287.097 1.93 0 1.219-.122 2.465.357 3.601-.82a2.54 2.54 0 00.63-.973l-.288-.15-1.642.849zm-4.108-.972c0 .219-.506.465-.794.465-.47-.067-.93-.19-1.369-.37 0-.438 0-1.067.192-1.492.575-.985 1.533-.26 2.19-.383a9.17 9.17 0 01-.191 1.78h-.028zm1.241-2.34zm1.671.998l-.013-.013.013.013zm1.779-1.779v-.068s-.013.054 0 .068z" fill="#575757"/><path d="M57.803 63.131c.233-.287.547-.561.424-.89.123.329-.137.603-.424.89zm.518-14.991v-5.27c-.725.643-.67 4.846 0 5.27zm1.616-4.737v4.436c.725-.78.684-3.943 0-4.436zm-.475.097c0-.192-.233-.384-.356-.575l-.165.123v5.079h.48c.04-1.506.04-3.08.04-4.627zm-2.125-.097c-.685.48-.726 3.724 0 4.381v-4.38zM53.984 72.99l-4.847-2.739-.164.164a13.827 13.827 0 005.011 2.574zm-4.82-2.822l-.164.164.164-.164zm10.571-21.124c-.561-.684-1.465.083-2.08-.479-.07.767-.042.78 2.08.48zm-5.89 5.037l.52.822.178-1.602-.698.78zm1.37-1.136h-.15l.136.644h.165l-.151-.644zm3.16 3.711l.26.137a2.181 2.181 0 01-.068-.287l-.192.15zm.262.164l.026-.014-.026.014zm-7.391-11.213l-.15-.178-.411.191v.124l.56-.137zm.001.001l-.52.137.52-.137zm11.716 6.845l.288.069a3.153 3.153 0 010-.356l-.288.287zm.289.137l.013-.014-.013.014zm-3.588-.042v.069l.027-.055-.027-.014zm-.423-1.985l.014-.04-.014.04zm.011-.04l-.027.027.014.013.013-.04zm-7.279-5.299v-.123a.359.359 0 000 .123zm-.373.178v-.11a.247.247 0 000 .124s-.027-.028 0-.014z" fill="#575757"/><path d="M51.341 45.415h-.287l.15.178.137-.178zm-.101.192l.138-.246-.137.246zm.001 0l-.15-.178.15.178zm12.377 7.736l.027-.014h-.04l.014.014zm.003-.001l.027-.013-.027.013zm-8.423.603s.027-.014 0 0zM39.36 71.715c.28-.278.45-.647.48-1.04v-5.928l-2.86 3.313a.794.794 0 00-.15.424v4.997c.998-.684 1.806-1.177 2.532-1.766zm-5.038 7.914c-1.465.63-1.698 1.163-1.369 3.094 1.547-.548 1.766-1.082 1.37-3.094zm-3.284 4.312c1.136-.479 1.136-.479.972-2.382-1.301.698-1.301 1.013-.972 2.382zm-1.933 1.082c1.15-.315 1.246-.575.78-1.875l-.78 1.875zM17.603 40.446c.368-.198.672-.497.876-.862.506-1.37.137-2.067-1.37-2.738-1.012-.52-1.04-.507-1.464.712a2.136 2.136 0 011.958 2.888zm-8.8 5.983c1.547 0 2.053-.698 2.08-2.615a2.108 2.108 0 00-2.08 2.615zm4.804 26.381v1.711h.52l-.136-1.697-.384-.014zm41.484 5.573v2.067l2.245-1.848-.246-.22h-1.999zm-3.449 5.188l1.89-2.08c-2.15-.055-2.178-.548-1.89 2.08zm7.284 6.066l1.916-1.93h-1.916v1.93zm7.16-6.312l1.903-1.807h-1.903v1.807zm-7.091.329l1.862-2.177c-2.19-.041-2.122-.52-1.862 2.177zm13.375-4.915l-.343-.37h-1.903v1.903l.329.288 1.916-1.821zm-9.67 1.588l2.095-1.794-.11-.219h-2.108l.452.616-.493 1.287.164.11zm-10.4 4.121c-.589-.096-.794.232-.78.821.013.589.205.712.725.67.52-.04.862-.232.712-1.135a1.905 1.905 0 00-.657-.356zm7.157 1.492c.562 0 .918-.206.794-.808a3.462 3.462 0 00-.41-.808c-.78.069-1.054.288-1.054.89 0 .602.219.726.67.726zm4.629-3.805a2.931 2.931 0 00-.465-.822c-.712 0-1.013.206-1 .808.014.602.124.78.726.78s.808-.26.74-.766zm-16.25-.822l-.301.247c0 .424 0 .944.232 1.232.233.287.808.137 1.082 0a1.013 1.013 0 00.082-.972c-.246-.301-.725-.356-1.095-.507zm8.694 6.42c-1.26-.26-1.451-.096-1.369 1.081v.33c1.56-.083 1.56-.11 1.369-1.411zm10.334-7.9c1.219 0 .425-.876.767-1.547-.712.247-1.451-.383-1.575.63-.068.52.124.917.808.917zm-14.004-.232a3.953 3.953 0 000-1.273h-1.507c.076.483.243.948.493 1.369a1.055 1.055 0 001.013-.096zm17.963 3.3c.534 0 .849-.11.739-.698-.11-.589-.082-.808-.67-.78-.59.027-.795.136-.795.725s.165.753.726.753zm-14.609-.109a3.34 3.34 0 00.342-1.26l-.232-.219c-.438.08-.86.233-1.246.452-.137.11 0 .794.15.972.151.178.877.22.986.055zM44.26 78.656a.973.973 0 00.082.959c.206.192.863.233.986 0a3.41 3.41 0 00.383-1.232l-.219-.233a3.752 3.752 0 00-1.232.506zm15.305 1.178c.711 0 .821-.384.753-.945-.151-1.04-.877-.315-1.547-.561.26.616-.343 1.506.794 1.506zm-11.95-1.478v2.327l.315-.356.739-.821-.137-.137-.548.26-.205-.123.41-.931.727.452.78-.52-.123-.151h-1.958zm1.055 1.15l-.74.821.74-.821zm.263-.466l-.014-.013.014.013zm6.161 7.462h.288a4.762 4.762 0 010-.767c0-.315.137-.616.205-.917l.958.274c.078.005.156.005.233 0l.466-.575H55.08l.013 1.985zm7.484-.219h.233a3.722 3.722 0 01.082-.959c0-.233.246-.547.424-.588.178-.041.438.205.685.342l.643-.616h-2.067v1.82z" fill="#575757"/><path d="M48.849 79.327v-.26l-.164.137.164.123z" fill="#575757"/><path d="M48.502 79.37l.137.136.178-.178-.11-.123-.205.164zm.172.136l.178-.178-.178.178z" fill="#575757"/><path d="M48.502 79.37l.137.136-.137-.137zm49.114-46.084c.082.069.63-.191.698-.383.288-.78-.26-1.287-.876-2.012-.383.465-.986.93-.904 1.163.247.498.62.923 1.082 1.232zM68.11 15.488a2.163 2.163 0 001.78-2.232c.082-1.369-.37-2.053-1.615-2.245-.315 1.287-.644 2.574-.918 3.874-.136.603.315.603.753.603zm20.77 8.981v.082l.095-.082h-.096z" fill="#575757"/><path d="M88.88 24.551l.095-.082-.096.082zm.106-.095l.014.013-.014-.013zm12.215 46.124h1.875l.069-.192-1.725-.986-.219 1.177zm.083-30.449l-.082-.15-1.862.164.438 1.232 1.506-1.246zm-20.18-23.123l-.15-.096-1.466 1.547 1.123.562.493-2.013zm-18.24 51.723l-.67.164v.247h.082l.56-.11.028-.301z" fill="#575757"/></svg>