<svg width="249" height="57" fill="none" xmlns="http://www.w3.org/2000/svg"><path d="M199.554 33.465v1.202H1.743v-1.202h197.811zm18.655-7.235l7.116-6.66 7.211 6.671 9.615-8.774 6.731 7.212-16.31 15.625-7.211-7.32-7.116 7.332-16.382-15.625 6.743-7.212 9.603 8.75zm14.303 12.127l14.423-13.75-4.964-5.337-9.459 8.75-7.211-6.659-7.116 6.66-9.615-8.727-4.904 5.337 14.543 13.726 7.116-7.38 7.187 7.38zM135.16 26.013l.902-3.498c.432-1.707.877-3.425 1.298-5.144a.435.435 0 01.517-.397h2.596c-.205.722-.385 1.395-.589 2.068-1.09 3.758-2.188 7.512-3.293 11.262-.097.336-.241.444-.577.432h-1.851c-.325 0-.409-.144-.493-.396-.914-2.9-1.835-5.798-2.764-8.69a.957.957 0 00-.241-.445c0 .12-.096.24-.132.349l-2.801 8.81c-.096.288-.216.384-.504.372h-1.779a.443.443 0 01-.529-.384c-.938-3.205-1.879-6.41-2.825-9.616l-1.009-3.389c0-.12 0-.252-.096-.409h3.221c.737 2.917 1.466 5.846 2.187 8.786h.108c0-.132.097-.252.133-.384.877-2.668 1.767-5.349 2.62-8.03.108-.3.228-.42.553-.408.66.036 1.322.036 1.983 0 .324 0 .433.12.517.409l2.596 8.245.156.397.096.06zm63.564 4.723h-3.762c-.133 0-.277-.192-.361-.324a1305.536 1305.536 0 01-5.565-9.063 1.007 1.007 0 00-.348-.372v9.747h-2.957V17.023h3.69a.577.577 0 01.565.336l5.384 8.798c.088.162.211.302.361.409v-9.003c0-.528 0-.528.517-.528h2.404l.072 13.701zm-120.13 0h-3.737c-.12 0-.277-.18-.361-.312L68.883 21.3l-.228-.348h-.109v9.735h-2.932V16.986h3.617a.697.697 0 01.674.373 3248.12 3248.12 0 005.396 8.834c.076.143.194.26.337.337v-9.508h2.956v13.714zm97.299-14.098a7.45 7.45 0 015.889 2.296 6.778 6.778 0 011.731 4.074 7.864 7.864 0 01-.529 3.87 6.632 6.632 0 01-5.432 4.087 8.115 8.115 0 01-5.325-.806 6.58 6.58 0 01-3.473-5.336 7.708 7.708 0 01.565-4.099 6.653 6.653 0 015.336-3.978c.493-.024.986-.024 1.238-.108zm-4.098 7.211a4.26 4.26 0 003.544 4.471 4.265 4.265 0 002.056-.156 3.977 3.977 0 003.029-3.678 4.306 4.306 0 00-3.234-5.051 4.315 4.315 0 00-2.186.051 4.179 4.179 0 00-3.209 4.375v-.012zM93.647 18.38l-2.067 2.26-.168-.12a4.652 4.652 0 00-4.988-.805 3.966 3.966 0 00-2.536 3.606 4.52 4.52 0 001.13 3.605 4.219 4.219 0 003.75 1.274 12.6 12.6 0 002.055-.528.469.469 0 00.264-.301v-2.127H88.6V22.84c0-.18 0-.337.277-.337h4.928a.444.444 0 01.132 0v6.767a.553.553 0 01-.192.42 11.178 11.178 0 01-8.414.734 6.43 6.43 0 01-4.483-5.757 7.404 7.404 0 011.202-5.289 6.672 6.672 0 014.591-2.788c1.606-.267 3.25-.16 4.808.312a5.458 5.458 0 012.2 1.479zM47.634 30.736h-3.378c-.12 0-.276-.18-.348-.312a347.466 347.466 0 01-2.524-4.808.649.649 0 00-.673-.42c-1.094 0-1.094 0-1.094 1.105v4.423h-2.945V17.479c0-.348.06-.492.457-.492h5.289c.84.039 1.67.2 2.464.48a3.354 3.354 0 012.271 3.258 5.565 5.565 0 01-.168 1.67 3.149 3.149 0 01-2.308 2.404l-.505.144 3.462 5.793zm-8.017-8.004c1.094 0 2.115 0 3.125-.157a1.334 1.334 0 001.286-1.274c0-.913-.312-1.55-1.142-1.67a25.841 25.841 0 00-3.053-.169.3.3 0 00-.204.229c-.012.997-.012 1.971-.012 3.04zm-12.184-3.029v2.404c0 .288.205.24.373.24h5.577v2.788h-5.926v2.885h6.19c.373 0 .517.084.493.493v2.235h-9.255c-.336 0-.432-.096-.432-.432V17.419c0-.24 0-.444.348-.444h8.966v2.5c0 .072-.216.18-.348.192h-6.01l.024.036z" fill="#575757"/><path d="M224.485 18.73l-6.262 5.6-.325-.252c-1.586-1.322-3.209-2.608-4.807-3.979a4.697 4.697 0 01-.89-6.334c.069-.098.145-.19.229-.276A6861.64 6861.64 0 00225.038.34a.55.55 0 00.12-.168l6.959 6.79a6.448 6.448 0 01-.385.41l-8.305 8.509c-.757.781-.769 1.202 0 1.97.337.312.69.605 1.058.878zm-2.031 0a9.894 9.894 0 01-.577-.89 1.981 1.981 0 01.084-2.2c.234-.344.5-.666.793-.961l7.212-7.38c.11-.102.214-.21.312-.324l-5.084-4.964c0 .072-.156.216-.277.348-3.749 3.91-7.499 7.825-11.249 11.743a3.327 3.327 0 00.264 4.94c1.286 1.142 2.656 2.187 3.978 3.293a.356.356 0 00.283.144.346.346 0 00.282-.144c1.202-1.202 2.512-2.271 3.774-3.401l.205-.205zm-55.362-.71l-2.043 2.224a3.197 3.197 0 00-3.209-.71 2.188 2.188 0 00-.601.313 1.203 1.203 0 000 1.995c.783.36 1.585.678 2.404.95.524.168 1.038.368 1.538.6a3.38 3.38 0 011.827 3.703 4.244 4.244 0 01-3.606 3.81 7.02 7.02 0 01-5.685-1.07c-.18-.132-.348-.288-.541-.457l2.152-2.404c.064.127.145.244.24.349a3.255 3.255 0 003.522.77 1.336 1.336 0 00.997-1.203 1.197 1.197 0 00-.769-1.298c-.745-.336-1.514-.6-2.284-.89-.372-.144-.757-.264-1.129-.42-3.209-1.298-2.657-4.94-.938-6.418a5.373 5.373 0 012.909-1.202 6.97 6.97 0 014.122.637c.378.22.743.46 1.094.721zM10.76 18.008l-2.044 2.236a3.198 3.198 0 00-3.437-.625 1.202 1.202 0 00-.865 1.346 1.07 1.07 0 00.673.973c.757.313 1.538.565 2.295.854.611.207 1.206.46 1.78.757a3.161 3.161 0 011.586 2.596 4.34 4.34 0 01-3.99 4.808 6.959 6.959 0 01-4.808-.806c-.373-.216-.697-.492-1.094-.769l2.115-2.331a3.8 3.8 0 001.815 1.201c.73.22 1.515.155 2.2-.18a1.202 1.202 0 00.132-2.296 18.579 18.579 0 00-2.404-.961c-.433-.18-.89-.313-1.31-.505a3.607 3.607 0 01-1.73-5.012 3.966 3.966 0 012.343-2.163 7.033 7.033 0 015.493.144c.433.214.851.46 1.25.733zm97.09 5.385l2.789 2.944c.528-.865 1.033-1.67 1.526-2.488a.611.611 0 01.637-.372h1.611c-.097.168-.157.288-.229.396-.733 1.13-1.454 2.26-2.199 3.378a.407.407 0 000 .613c.853.841 1.682 1.706 2.512 2.56l.312.348h-2.235a.635.635 0 01-.361-.216l-1.478-1.587-.721.698a5.218 5.218 0 01-6.01.95 3.684 3.684 0 01-2.031-2.58 3.68 3.68 0 01.042-1.687 3.679 3.679 0 01.787-1.491 10.841 10.841 0 011.731-1.37c.152-.102.313-.191.481-.265-.349-.456-.697-.865-.998-1.31a3.159 3.159 0 01.709-4.514 3.16 3.16 0 011.587-.558 6.01 6.01 0 012.067.072 2.93 2.93 0 012.285 3.635c-.138.52-.417.993-.807 1.365-.492.447-1.023.849-1.586 1.202a4.76 4.76 0 01-.421.277zm-1.574.78c-.493.35-.974.65-1.407.999a2.306 2.306 0 00-.877 2.403 2.53 2.53 0 001.815 1.827 3.606 3.606 0 003.822-1.707l-.204-.24c-1.034-1.118-2.068-2.14-3.113-3.281h-.036zm1.202-5.852c-1.383 0-2.152.697-2.092 1.73a3.416 3.416 0 001.322 2.188.232.232 0 00.217 0 14.83 14.83 0 001.658-1.322 1.55 1.55 0 00-1.105-2.584v-.012zM218.2 56.758l-6.719-7.428 13.822-14.074c.101.07.197.146.288.228l4.267 3.81a3.413 3.413 0 01.902 4.327c-.111.185-.24.358-.385.517l-11.899 12.38c-.096.084-.18.144-.276.24zm0-1.923l.264-.229 10.901-11.322a1.671 1.671 0 00.313-2.007 4.558 4.558 0 00-.841-1.118c-1.058-.985-2.152-1.935-3.246-2.908a2.394 2.394 0 00-.24-.18l-12.019 12.307 4.868 5.457zM15.762 30.736V19.62h-3.907v-2.61h10.818v2.596h-3.87v10.625c0 .396-.097.54-.517.516-.842-.036-1.647-.012-2.524-.012zM49.45 17.01h2.932v10.47c0 .409.108.529.517.529h4.688c.36 0 .48.108.468.48v2.248h-8.581L49.45 17.01zm107.007 13.714h-8.57V17.023h2.897v10.432c0 .541 0 .541.553.541h4.639c.349 0 .481.084.469.457-.012.733.012 1.49.012 2.271zM141.911 17.01h2.945v13.714h-2.945V17.011zM62.69 30.724h-2.908V17.023h2.908v13.701z" fill="#575757"/></svg>