<svg version="1.1" id="Layer_1" xmlns="http://www.w3.org/2000/svg" x="0" y="0" viewBox="0 0 44 44" xml:space="preserve"><style>.st59{fill:none;stroke:#faf3e7;stroke-width:1.9219;stroke-linecap:round;stroke-linejoin:round;stroke-miterlimit:10}</style><path fill="transparent" d="M-252.8-1.4h367.3v46.8h-367.3z"/><circle cx="15.2" cy="21.5" r="12.4" opacity=".4" fill="#ffc900"/><path class="st59" d="M22.6 41.2H5.5c-1.4 0-2.5-1.1-2.5-2.5V23.5C3 22.1 4.1 21 5.5 21h17.2c1.4 0 2.5 1.1 2.5 2.5v15.1c0 1.5-1.2 2.6-2.6 2.6z"/><path class="st59" d="M11.9 21h3.7v7.9h-3.7zM6.3 37.4h2.3m5.5-18.2v-12c0-.7.6-1.3 1.3-1.3h5.1m14.6 0h4.3c.7 0 1.3.6 1.3 1.3V40c0 .7-.6 1.3-1.3 1.3H26.5m3.3-37.6c0-1.2-1-2.2-2.2-2.2s-2.2 1-2.2 2.2H21V8h13.1V3.7h-4.3zM19.7 13.9l1 1.6 4-3.9m3.6 2.9h8.3m-8.3 6h8.3m-8.3 7.2h8.3m-8.3 7.2h8.3"/></svg>