<svg version="1.1" id="Layer_1" xmlns="http://www.w3.org/2000/svg" x="0" y="0" viewBox="0 0 44 44" xml:space="preserve"><style>.st54{fill:none;stroke:#faf3e7;stroke-width:2;stroke-linecap:round;stroke-linejoin:round;stroke-miterlimit:10}</style><path fill="transparent" d="M-205.3-1.4H162v46.8h-367.3z"/><circle cx="25.3" cy="19.1" r="12" opacity=".4" fill="#ffc900"/><path class="st54" d="M22.8 20H9c-1.4 0-2.5-1.1-2.5-2.5v-12C6.5 4.1 7.6 3 9 3h13.7c1.4 0 2.5 1.1 2.5 2.5v12c.1 1.4-1 2.5-2.4 2.5z"/><path class="st54" d="M14 2.9h3.2v6.7H14zm-3.7 13.7h1.9m14 .7h2.7c.7 0 1.3.6 1.3 1.3v19.2c0 .7-.6 1.3-1.3 1.3H12.5m-7.3 0H2.9c-.7 0-1.3-.6-1.3-1.3V18.6c0-.7.6-1.3 1.3-1.3h3.6"/><path class="st54" d="M32.6 39.1h-2.5V22h3.4c4.9 0 8.8 3.9 8.8 8.8v8.3h-2.2"/><circle class="st54" cx="8.9" cy="39.2" r="3.1"/><circle class="st54" cx="36.3" cy="39.2" r="3.1"/><path class="st54" d="M27.1 6.2c6.2 1.9 11 7.4 11.9 14M1.6 34h25.5m6-4h1.2"/></svg>