<svg version="1.1" id="Layer_1" xmlns="http://www.w3.org/2000/svg" x="0" y="0" viewBox="0 0 44 44" xml:space="preserve"><style>.st54{fill:none;stroke:#faf3e7;stroke-width:2;stroke-linecap:round;stroke-linejoin:round;stroke-miterlimit:10}</style><path fill="transparent" d="M-306.8-1.4H60.5v46.8h-367.3z"/><circle cx="31.8" cy="31.3" r="12.2" opacity=".4" fill="#ffc900"/><path class="st54" d="M33.1 33.4v7.3c0 .7-.6 1.3-1.3 1.3H3c-.7 0-1.3-.6-1.3-1.3V2.9c0-.7.6-1.3 1.3-1.3h28.8c.7 0 1.3.6 1.3 1.3v5.6"/><path d="M41.4 20.5c0 1-1.2 1.7-1.5 2.6-.3.9.2 2.2-.3 3-.6.8-2 .7-2.8 1.2-.8.6-1.1 1.9-2 2.2-.9.3-2-.6-3-.6s-2.1.9-3 .6c-.9-.3-1.3-1.7-2-2.2-.8-.6-2.2-.5-2.8-1.2-.6-.8 0-2.1-.3-3-.3-.9-1.5-1.7-1.5-2.6 0-1 1.2-1.7 1.5-2.6.3-.9-.2-2.2.3-3 .6-.8 2-.7 2.8-1.2.8-.6 1.1-1.9 2-2.2.9-.3 2 .6 3 .6s2.1-.9 3-.6c.9.3 1.3 1.7 2 2.2.8.6 2.2.5 2.8 1.2.6.8 0 2.1.3 3 .3.8 1.5 1.6 1.5 2.6zm-6.5 9.4l3.5 6.8.7-2 1.9.7-3.3-6.5m-8.7 1l-3.5 6.8-.7-2-1.9.7 3.3-6.5" stroke-width="1.772" fill="none" stroke="#faf3e7" stroke-linecap="round" stroke-linejoin="round" stroke-miterlimit="10"/><circle cx="31.8" cy="20.5" r="5.1" fill="none" stroke="#faf3e7" stroke-width="1.404" stroke-linecap="round" stroke-linejoin="round" stroke-miterlimit="10"/><circle class="st54" cx="16.8" cy="6.4" r="2.2"/><path class="st54" d="M20 12.8H5.1v5.3h14.7M4.7 24.2h15m-15 6.6h5.5m-5.5 6.6h15"/></svg>