<svg width="24" height="24" fill="none" xmlns="http://www.w3.org/2000/svg"><path d="M14.282 4.007c0-.997-1.188-1.516-1.92-.837L7.937 7.276a.571.571 0 01-.389.153h-2.98a1.714 1.714 0 00-1.714 1.714v5.715a1.714 1.714 0 001.714 1.714h2.98a.57.57 0 01.389.152l4.425 4.107c.732.678 1.92.16 1.92-.837V4.007zM8.714 8.114l4.425-4.107v15.987l-4.425-4.108a1.714 1.714 0 00-1.166-.457h-2.98a.571.571 0 01-.572-.571V9.143a.571.571 0 01.572-.57h2.98c.433 0 .85-.164 1.166-.458v-.001zm6.878 1.196a.572.572 0 01.81 0l1.88 1.883 1.881-1.883a.572.572 0 01.81.808l-1.883 1.883 1.883 1.88a.572.572 0 11-.808.809l-1.883-1.881-1.88 1.88a.571.571 0 11-.81-.807L17.474 12l-1.88-1.883a.572.572 0 010-.808h-.002z" fill="#FAF3E7"/></svg>