<svg width="19" height="19" fill="none" xmlns="http://www.w3.org/2000/svg"><path d="M11.713 1.436c0-.998-1.19-1.516-1.92-.838L5.366 4.706a.571.571 0 01-.39.152h-2.98A1.715 1.715 0 00.282 6.572v5.715a1.714 1.714 0 001.715 1.715h2.98c.145 0 .284.055.39.153l4.425 4.107c.732.679 1.92.16 1.92-.838V1.436zm-5.57 4.108l4.426-4.108v15.988l-4.425-4.107a1.715 1.715 0 00-1.166-.457H1.997a.571.571 0 01-.572-.571V6.574a.571.571 0 01.572-.572h2.98c.433 0 .85-.164 1.167-.458zm9.296-2.254a.571.571 0 01.806.045 9.144 9.144 0 010 12.192.571.571 0 01-.851-.762 8.001 8.001 0 000-10.668.571.571 0 01.045-.807z" fill="#FAF3E7"/><path d="M14.095 12.783a.571.571 0 01-.21-.78 5.141 5.141 0 000-5.144.572.572 0 01.99-.572 6.285 6.285 0 010 6.286.571.571 0 01-.78.21z" fill="#FAF3E7"/></svg>