<svg width="908" height="615" fill="none" xmlns="http://www.w3.org/2000/svg"><path d="M870.089 320.673c0 162.505-131.685 294.191-294.19 294.191-42.844 0-83.587-9.106-120.244-25.684-1.168-.584-2.335-1.05-3.503-1.634 58.605-25.216 107.403-68.995 139.04-123.98.351 0 .701-.117 1.168-.117 71.68-8.055 127.482-68.995 127.482-142.893 0-68.411-47.747-125.614-111.722-140.207-3.853-.817-7.705-1.401-11.558-1.518h-2.334l-.701.351c-30.703-55.92-79.151-100.866-137.756-127.133l5.604-2.451c35.023-14.827 73.781-23.115 114.524-23.115 162.505 0 294.19 131.685 294.19 294.19z" fill="#FAEAD5"/><path d="M719.725 318.338v2.335c0 73.898-55.686 134.721-127.483 142.893-.35 0-.7.116-1.167.116-31.637 54.869-80.436 98.647-139.04 123.981 1.167.583 2.335 1.05 3.502 1.634 36.774 16.461 77.4 25.683 120.245 25.683 162.505 0 294.19-131.685 294.19-294.19v-2.335H719.725v-.117z" fill="#E4DED3"/><path d="M73.44 317.754c-10.624-.35-21.365-.817-32.222-1.167v4.086c0 162.505 131.686 294.19 294.191 294.19 42.844 0 83.587-9.105 120.244-25.683-26.267-11.791-50.432-27.317-71.913-45.88-25.8-22.297-47.631-48.915-64.442-78.917-.233-.467-.583-.934-.817-1.518l-.817.35c-70.979-8.755-126.082-69.345-126.082-142.775v-1.752c-39.459.584-79.034 1.051-118.143-.934z" fill="#FFDEB6"/><path d="M593.41 179.182c-30.703-55.92-79.151-100.866-137.756-127.133-36.774-16.46-77.4-25.683-120.244-25.683-161.105 0-291.973 129.467-294.074 290.104 10.857.351 21.597.701 32.22 1.168 39.109 1.984 78.685 1.517 118.144 1.167.934-72.964 56.153-132.852 127.132-141.024 5.487-.584 11.091-.934 16.694-.934 50.316 0 94.562 25.8 120.245 64.908 14.826 22.648 23.582 49.733 23.582 78.801 0 28.836-8.522 55.57-22.998 78.101l-.701.35c25.683 39.342 70.045 65.376 120.478 65.376 5.604 0 10.974-.35 16.461-.934l.583-.584c23.349-42.144 36.657-90.709 36.657-142.309-.35-51.133-13.425-99.347-36.423-141.374z" fill="#F4D7C6"/><path d="M67.254 199.494c12.024-8.405 26.5-13.308 42.261-13.308 23.815 0 45.062 11.324 58.487 28.835m19.961 102.967h-52.884v-67.827h72.964" stroke="#231F20" stroke-width="3" stroke-miterlimit="10" stroke-linecap="round" stroke-linejoin="round"/><path d="M208.041 250.161h-40.509v-62.107l64.558-44.946-.7 33.738 66.309-33.738v33.738l66.31-33.738v44.946m56.503 9.573h153.166l37.357 49.615v77.75H498.612" stroke="#231F20" stroke-width="3" stroke-miterlimit="10" stroke-linecap="round" stroke-linejoin="round"/><path d="M463.706 197.627h-51.601l8.172-118.377h37.708l5.721 118.377z" fill="#231F20"/><path d="M164.383 268.256h-11.207v31.754h11.207v-31.754zm315.434 25.099h131.219v117.326m-443.504-160.52v-44.829h76.583" stroke="#231F20" stroke-width="3" stroke-miterlimit="10" stroke-linecap="round" stroke-linejoin="round"/><path d="M570.525 220.275h-85.572v50.549h85.572v-50.549z" fill="#231F20"/><path d="M484.953 253.896h85.689m-85.689-16.81h85.689m-28.603-16.811v50.549m-28.484-50.549v50.549" stroke="#fff" stroke-width="2" stroke-miterlimit="10"/><path d="M83.945 191.556V161.67h51.016v29.886m-67.71 70.863h67.711v16.694H47.055" stroke="#231F20" stroke-width="3" stroke-miterlimit="10" stroke-linecap="round" stroke-linejoin="round"/><path d="M414.91 159.102h44.362" stroke="#fff" stroke-width="2" stroke-miterlimit="10"/><path d="M591.074 463.682c-31.637 54.869-80.435 98.648-139.04 123.981-24.866-11.558-47.864-26.501-68.411-44.246-25.8-22.297-47.63-48.915-64.441-78.917-.234-.467-.584-.934-.818-1.518-23.348-42.144-36.657-90.709-36.657-142.309 0-51.833 13.426-100.515 37.008-142.892 5.487-.584 11.09-.934 16.694-.934 50.316 0 94.561 25.8 120.244 64.908-14.826 22.648-23.582 49.733-23.582 78.801 0 28.952 8.523 55.92 23.349 78.451 25.683 39.342 70.045 65.376 120.478 65.376 5.136.117 10.273-.234 15.176-.701z" fill="#B7CCE2"/><path d="M184.113 174.512l8.756-119.428h16.811l6.654 97.363" fill="#231F20"/><path d="M248.785 167.974L257.191 2.2h16.81l6.888 149.43m209.32 173.362h-7.005M59.311 262.419H51.84m106.169 244.184l-12.927 21.786 12.349 7.328 12.927-21.787-12.349-7.327z" stroke="#231F20" stroke-width="3" stroke-miterlimit="10" stroke-linecap="round" stroke-linejoin="round"/><path d="M151.529 517.363l-6.494 10.943 12.349 7.328 6.494-10.944-12.349-7.327z" stroke="#231F20" stroke-width="3" stroke-miterlimit="10" stroke-linecap="round" stroke-linejoin="round"/><path d="M180.025 512.948l-19.262 32.454c-.818 1.284-2.452 1.751-3.736.934l-3.269-1.985c-1.284-.817-1.751-2.451-.934-3.735l19.263-32.455c.817-1.284 2.451-1.751 3.735-.934l3.269 1.985c1.284.7 1.751 2.451.934 3.736z" fill="#231F20"/><path d="M206.994 491.233l-.35.701c-.7 1.167-2.218 1.518-3.385.817l-58.371-34.672c-1.168-.701-1.518-2.218-.818-3.386l.351-.7c.7-1.168 2.218-1.518 3.385-.818l58.371 34.673c1.051.7 1.518 2.218.817 3.385z" stroke="#231F20" stroke-width="3" stroke-miterlimit="10" stroke-linecap="round" stroke-linejoin="round"/><path d="M175.823 476.524l-10.741 18.212-74.481-50.783-36.19-22.181c-9.106-5.604-15.877-14.359-18.913-24.633L32.93 388.5" stroke="#231F20" stroke-width="3" stroke-miterlimit="10" stroke-linecap="round" stroke-linejoin="round"/><path d="M2.46 370.755c-.116.234-.233.467-.233.701-1.05 12.842 2.335 25.566 9.456 36.307l.117.117c4.67 7.004 10.857 12.724 18.095 17.044l64.792 38.408c7.354 4.436 12.258 11.908 13.308 20.43l3.036 26.15a26.956 26.956 0 0013.308 20.43l14.593 8.639 26.384-44.362 11.557 8.872c4.787 3.619 11.674 2.335 14.71-2.801l7.588-12.842.35-.7 7.588-12.842c3.036-5.137.934-11.791-4.552-14.243l-13.309-5.954 26.384-44.362-14.593-8.639c-7.355-4.436-16.344-5.019-24.282-1.867l-24.4 9.923a27.038 27.038 0 01-24.282-1.868l-64.792-38.408c-7.238-4.32-15.293-6.888-23.582-7.705h-.233c-12.842-1.168-25.684 1.984-36.424 9.106-.35.116-.467.233-.584.466z" stroke="#231F20" stroke-width="3" stroke-miterlimit="10" stroke-linecap="round" stroke-linejoin="round"/><path d="M208.928 448.782l12.927-21.786-12.349-7.328-12.927 21.787 12.349 7.327z" stroke="#231F20" stroke-width="3" stroke-miterlimit="10" stroke-linecap="round" stroke-linejoin="round"/><path d="M215.393 437.959l6.494-10.943-12.349-7.328-6.494 10.944 12.349 7.327z" stroke="#231F20" stroke-width="3" stroke-miterlimit="10" stroke-linecap="round" stroke-linejoin="round"/><path d="M213.062 456.795l18.212-30.587c.817-1.284.35-3.035-.934-3.736l-2.802-1.634c-1.284-.817-3.035-.35-3.735.934l-18.212 30.586c-.817 1.285-.35 3.036.934 3.736l2.802 1.635c1.284.817 2.918.35 3.735-.934zm-6.418 35.022l.35-.7c.701-1.168.351-2.685-.817-3.386l-58.371-34.672c-1.167-.701-2.685-.35-3.385.817l-.351.7c-.7 1.168-.35 2.686.818 3.386l58.371 34.672c1.167.818 2.685.351 3.385-.817z" fill="#231F20"/><path d="M178.741 471.621l10.74-18.095-80.202-40.977-36.774-21.13c-9.222-5.37-20.196-7.005-30.703-4.786l-8.756 1.867m22.649 6.188c3.269-1.401 7.355-1.168 10.857.934m-11.09 18.562a12.548 12.548 0 01-5.837-8.055m14.942 21.83l18.212-30.82" stroke="#231F20" stroke-width="3" stroke-miterlimit="10" stroke-linecap="round" stroke-linejoin="round"/><path d="M103.308 408.917L84.84 440.04l4.518 2.681 18.468-31.124-4.518-2.68z" fill="#231F20"/><path d="M98.305 427.609l45.879 26.851" stroke="#231F20" stroke-width="3" stroke-miterlimit="10" stroke-linecap="round" stroke-linejoin="round"/><path d="M304.122 559.528c5.837.934 9.69 2.802 9.69 4.903 0 3.152-8.756 5.72-19.496 5.72-10.74 0-19.496-2.568-19.496-5.72 0-1.985 3.385-3.619 8.405-4.67" fill="#231F20"/><path d="M322.1 511.196c0 15.294-27.784 53.935-27.784 53.935s-27.785-38.641-27.785-53.935c0-15.293 12.375-27.784 27.785-27.784 15.409 0 27.784 12.491 27.784 27.784z" stroke="#231F20" stroke-width="3" stroke-miterlimit="10" stroke-linecap="round" stroke-linejoin="round"/><path d="M294.434 518.785c-6.071 0-11.091-4.904-11.091-11.091 0-6.07 4.904-11.09 11.091-11.09 6.187 0 11.09 4.903 11.09 11.09 0 .934-.116 1.751-.35 2.685" stroke="#231F20" stroke-width="3" stroke-miterlimit="10" stroke-linecap="round" stroke-linejoin="round"/><path d="M200.223 510.379s1.634.35 4.436 1.284" stroke="#231F20" stroke-width="3" stroke-linecap="round" stroke-linejoin="round"/><path d="M214.117 515.399c12.258 5.487 30.12 15.994 42.845 34.789" stroke="#231F20" stroke-width="3" stroke-linecap="round" stroke-linejoin="round" stroke-dasharray="8.71 8.71"/><path d="M259.761 554.508c.817 1.284 1.518 2.685 2.335 4.086M54.528 356.279s1.4-.933 4.086-2.334" stroke="#231F20" stroke-width="3" stroke-linecap="round" stroke-linejoin="round"/><path d="M67.137 349.625c20.196-9.223 62.107-22.765 108.22-5.137" stroke="#231F20" stroke-width="3" stroke-linecap="round" stroke-linejoin="round" stroke-dasharray="8.28 8.28"/><path d="M179.793 346.24c1.401.583 2.802 1.284 4.319 1.867m113.239 264.305s.817-1.401 2.452-3.969" stroke="#231F20" stroke-width="3" stroke-linecap="round" stroke-linejoin="round"/><path d="M305.289 601.205c10.623-13.075 32.571-34.556 69.811-48.565" stroke="#231F20" stroke-width="3" stroke-linecap="round" stroke-linejoin="round" stroke-dasharray="7.76 7.76"/><path d="M379.422 551.122c1.401-.467 2.918-1.05 4.436-1.517" stroke="#231F20" stroke-width="3" stroke-linecap="round" stroke-linejoin="round"/><path d="M181.31 335.966l12.375 15.527-19.146 4.786 6.771-20.313zm85.223 228.465l-15.877-9.69 13.893-7.821 1.984 17.511zm41.91-349.41h-28.369v12.959h28.369v-12.959z" fill="#231F20"/><path d="M283.809 385.231h40.276v36.658h-22.648" stroke="#231F20" stroke-width="3" stroke-miterlimit="10" stroke-linecap="round" stroke-linejoin="round"/><path d="M324.085 385.231h-14.592v36.658h14.592v-36.658z" fill="#231F20"/><path d="M420.049 385.231h-40.276v36.658h40.276v-36.658z" stroke="#231F20" stroke-width="3" stroke-miterlimit="10" stroke-linecap="round" stroke-linejoin="round"/><path d="M420.049 385.231h-14.593v36.658h14.593v-36.658z" fill="#231F20"/><path d="M437.326 356.396H271.902v21.948h165.424v-21.948zm-5.488 21.948h-154.1v6.887h154.1v-6.887zm-.35-50.55h-7.238v28.252h7.238v-28.252zm-18.443-.233h-69.111v28.135h69.111v-28.135zm6.537-104.601l-2.102-1.518-9.806 18.679-84.521 25.917 2.101 7.938 84.171-25.8 20.547 21.014.817-4.553c.117-1.168 5.253-29.653-11.207-41.677zm4.903 40.743v64.091" stroke="#231F20" stroke-width="3" stroke-miterlimit="10" stroke-linecap="round" stroke-linejoin="round"/><path d="M373.935 260.434c0 7.588-6.188 13.776-13.659 13.776-7.588 0-13.776-6.188-13.776-13.776s6.188-13.776 13.776-13.776c7.588.117 13.659 6.305 13.659 13.776z" fill="#231F20"/><path d="M368.451 260.201c0 4.436-3.619 8.055-8.056 8.055-4.436 0-8.055-3.619-8.055-8.055 0-4.437 3.619-8.056 8.055-8.056 4.437 0 8.056 3.619 8.056 8.056z" stroke="#fff" stroke-width="2" stroke-miterlimit="10"/><path d="M332.376 271.875l14.71 56.036m18.794-55.219h-9.923v54.869h9.923v-54.869z" stroke="#231F20" stroke-width="3" stroke-miterlimit="10" stroke-linecap="round" stroke-linejoin="round"/><path d="M365.88 275.844l-9.923 5.487 9.923 7.004-9.923 3.853v3.035l9.923 5.487-9.923 4.203v2.918l9.923 4.437-9.923 4.903v3.152l9.923 5.487m-54.285-22.648h-32.454v53.234h32.454v-53.234zm16.459 0h-16.227v53.234h16.227v-53.234z" stroke="#231F20" stroke-width="3" stroke-miterlimit="10" stroke-linecap="round" stroke-linejoin="round"/><path d="M332.259 296.741h-58.254v8.639h58.254v-8.639z" fill="#231F20"/><path d="M304.823 224.711h-21.014v72.03h21.014v-72.03zm-21.014 16.577h21.014m-21.014 30.587h21.014m101.914 280.298c0-19.146 15.527-34.673 34.673-34.673s34.672 15.527 34.672 34.673m-34.79-44.829c7.995 0 14.476-6.481 14.476-14.476 0-7.995-6.481-14.476-14.476-14.476-7.995 0-14.476 6.481-14.476 14.476 0 7.995 6.481 14.476 14.476 14.476zm-90.589-14.476c0-12.842 10.39-23.349 23.349-23.349a23.268 23.268 0 0123.348 23.349m-23.464-30.236c5.351 0 9.689-4.339 9.689-9.69 0-5.351-4.338-9.69-9.689-9.69-5.352 0-9.69 4.339-9.69 9.69 0 5.351 4.338 9.69 9.69 9.69zm116.271 51.133c0-12.842 10.39-23.349 23.348-23.349a23.268 23.268 0 0123.349 23.349m-23.351-30.236c5.351 0 9.689-4.339 9.689-9.69 0-5.352-4.338-9.69-9.689-9.69a9.69 9.69 0 00-9.69 9.69c0 5.351 4.338 9.69 9.69 9.69zm271.781-366.688v166.942a15.146 15.146 0 01-15.176 15.176h-52.067m-91.41-115.108V49.714a15.146 15.146 0 0115.176-15.176h15.41m52.187 143.476c21.341 0 38.641-3.502 38.641-7.822 0-4.319-17.3-7.821-38.641-7.821-21.342 0-38.642 3.502-38.642 7.821 0 4.32 17.3 7.822 38.642 7.822z" stroke="#231F20" stroke-width="3" stroke-miterlimit="10" stroke-linecap="round" stroke-linejoin="round"/><path d="M709.454 14.692c-28.719 0-52.067 23.348-52.067 52.067 0 28.718 52.067 101.332 52.067 101.332s52.067-72.614 52.067-101.332c0-28.719-23.349-52.067-52.067-52.067zm.35 66.543c-12.141 0-21.247-9.923-21.714-21.714-.584-11.791 10.39-21.714 21.714-21.714 12.141 0 21.247 9.923 21.714 21.714.584 11.79-10.39 21.714-21.714 21.714z" fill="#231F20"/><path d="M711.903 269.19a10.485 10.485 0 014.319-.584c5.37.467 9.339 5.253 8.756 10.624-.467 4.319-3.619 7.705-7.589 8.638m-9.456-28.368h55.803m6.538 0h7.705M626.681 57.77h24.983" stroke="#231F20" stroke-width="3" stroke-miterlimit="10" stroke-linecap="round" stroke-linejoin="round"/><path d="M813.469 392.353c-2.102 4.786-7.472 7.004-12.258 5.37-1.868 7.588-2.102 15.293-.701 22.648 4.903-1.751 10.39.7 12.375 5.72 1.984 5.02-.467 10.624-5.37 12.725 3.969 6.538 9.339 12.141 15.877 16.578 2.218-4.904 7.938-7.238 12.958-5.02 5.02 2.101 7.238 7.938 5.137 12.841 7.705 1.751 15.526 1.751 22.998.234-1.868-5.02.584-10.624 5.604-12.608 4.903-1.985 10.506.35 12.608 5.136a55.323 55.323 0 0016.11-15.993c-4.553-2.335-6.537-7.822-4.436-12.609 1.985-4.669 7.238-7.004 11.908-5.486 1.634-7.472 1.517-15.06 0-22.298-4.67 1.167-9.573-1.401-11.441-5.954-1.751-4.553 0-9.573 4.086-12.025-3.969-6.187-9.106-11.557-15.41-15.76-2.568 3.853-7.705 5.487-12.141 3.619-4.436-1.868-6.771-6.771-5.604-11.324a52.146 52.146 0 00-22.064-.467c1.051 4.67-1.401 9.456-5.954 11.208-4.67 1.867-9.806-.117-12.141-4.32-6.304 3.853-11.908 8.989-16.227 15.293 4.202 2.452 6.07 7.822 4.086 12.492zm27.201 47.864c-7.238-3.152-12.725-8.639-15.994-15.176l14.009-5.604c1.751 3.035 4.436 5.487 7.938 7.004 3.386 1.518 7.122 1.752 10.507 1.051l5.487 14.009c-7.004 2.102-14.709 1.868-21.947-1.284zm4.552-33.155c1.985-4.553 7.355-6.654 11.908-4.669 4.553 1.984 6.655 7.354 4.67 11.907-1.985 4.553-7.355 6.655-11.908 4.67-4.553-1.985-6.654-7.355-4.67-11.908zm37.825 16.461c-3.152 7.238-8.639 12.725-15.177 15.994l-5.486-14.009c3.035-1.752 5.487-4.437 6.887-7.939 1.518-3.385 1.752-7.121 1.051-10.507l14.009-5.487c2.218 7.005 1.868 14.71-1.284 21.948zm-16.694-42.378c7.238 3.153 12.725 8.639 15.993 15.177l-14.009 5.487c-1.751-2.919-4.436-5.487-7.938-6.888-3.386-1.518-7.121-1.751-10.507-1.051l-5.487-14.009c7.005-2.218 14.71-1.868 21.948 1.284zm-27.318.701l5.487 14.009c-2.919 1.751-5.487 4.436-6.888 7.939-1.517 3.385-1.751 7.121-1.05 10.506l-14.009 5.487c-2.102-7.004-1.752-14.709 1.284-21.947 3.268-7.238 8.755-12.725 15.176-15.994z" fill="#231F20"/><path d="M603.682 464.383c21.364 7.238 35.49 28.718 32.571 51.95-3.268 26.617-27.551 45.413-54.168 42.144-17.161-2.101-31.17-13.075-37.941-27.668m-29.536 24.866l-2.335 2.218c-3.736 3.619-4.203 9.456-1.051 13.542 3.269 4.203 9.223 5.137 13.542 2.219l2.686-1.752c2.801 2.686 5.72 5.254 8.755 7.589l-1.401 2.918c-2.218 4.67-.467 10.39 3.97 12.959 4.553 2.685 10.39 1.401 13.425-2.919l1.868-2.685c3.852 1.634 7.822 2.919 11.908 4.086l-.117 3.269c-.234 5.253 3.619 9.923 8.872 10.507 5.137.7 9.923-2.686 11.091-7.822l.7-3.152c4.67.117 9.339-.234 13.892-.934l1.051 3.035c1.868 5.02 7.121 7.705 12.258 6.304 5.02-1.401 8.055-6.421 7.121-11.557l-.583-3.152a75.422 75.422 0 0011.09-5.487l2.102 2.451c3.502 3.97 9.572 4.437 13.775 1.168 4.086-3.152 5.137-8.989 2.335-13.426l-1.751-2.801a83.255 83.255 0 008.522-9.573l2.919 1.401c4.786 2.335 10.506.583 13.191-4.086a10.218 10.218 0 00-2.918-13.309l-2.685-1.868c1.751-4.086 3.269-8.288 4.436-12.725l3.269.117c5.253.234 9.923-3.619 10.623-8.872.701-5.137-2.685-9.923-7.821-11.091l-3.152-.7c.116-4.086-.117-8.055-.584-12.025l3.035-1.05c5.02-1.752 7.939-7.005 6.538-12.142-1.284-5.02-6.188-8.288-11.324-7.471l-3.152.467c-1.751-4.553-3.736-8.873-6.188-12.959l2.452-2.101c3.969-3.502 4.436-9.573 1.167-13.775-3.152-4.086-8.989-5.137-13.425-2.335l-2.685 1.751-135.421 105.768zm190.173 16.344c10.831 0 19.612-8.781 19.612-19.613 0-10.831-8.781-19.612-19.612-19.612-10.832 0-19.613 8.781-19.613 19.612 0 10.832 8.781 19.613 19.613 19.613z" stroke="#231F20" stroke-width="3" stroke-miterlimit="10" stroke-linecap="round" stroke-linejoin="round"/><path d="M704.782 559.411a7.004 7.004 0 100-14.009 7.004 7.004 0 000 14.009z" fill="#231F20"/><path d="M785.333 320.556c7.705 5.837 12.608 15.177 12.608 25.567 0 17.745-14.476 32.221-32.22 32.221-17.745 0-32.221-14.476-32.221-32.221 0-10.857 5.37-20.43 13.542-26.267" stroke="#231F20" stroke-width="3" stroke-miterlimit="10" stroke-linecap="round" stroke-linejoin="round"/><path d="M765.721 365.736c10.832 0 19.613-8.781 19.613-19.613 0-10.832-8.781-19.613-19.613-19.613-10.831 0-19.612 8.781-19.612 19.613 0 10.832 8.781 19.613 19.612 19.613zm-139.04-256.6h-70.162v-82.07m241.422 210.02h42.728v79.501M523.246 31.152v60.24m47.399 51.716h56.036M785.332 207.9h65.259M690.54 475.123c-3.268-1.051-6.304-2.101-9.339-3.152-1.985-.7-1.985-.7-2.101-2.685-.35-6.304.116-12.608 1.517-18.796.117-.7.467-.934 1.051-1.05l10.507-1.751c.35 0 .7-.351.817-.584 1.634-4.086 3.502-7.939 5.837-11.674v-.117c.701-.934.701-1.751.117-2.802-1.518-2.802-2.919-5.72-4.32-8.639-.233-.584-.233-.934.234-1.401 4.319-5.02 9.339-9.339 15.06-12.958.7-.467 1.167-.35 1.868.117 2.685 1.984 5.486 3.969 8.288 5.953.467.351.934.467 1.518.117a64.593 64.593 0 0112.958-4.203c.234-.116.701-.35.701-.7 1.167-3.385 2.335-6.771 3.385-10.273.234-.584.467-.701 1.051-.817 6.771-.584 13.542 0 20.08 1.517.583.117.817.35.934.934.583 3.386 1.167 6.888 1.751 10.273.116.701.35 1.051 1.05 1.285 3.853 1.517 7.705 3.268 11.091 5.603 1.051.701 1.868.817 3.035.234 2.802-1.518 5.604-2.802 8.406-4.203.7-.35 1.05-.234 1.634.233 5.137 4.437 9.456 9.573 13.075 15.41.35.467.117.818-.117 1.168-1.984 2.685-3.969 5.487-5.953 8.172-.584.7-.584 1.284-.234 2.101 1.868 4.086 3.152 8.172 4.086 12.608.117.584.35.818.934.934 3.385 1.051 6.654 2.218 10.04 3.269.584.234.817.467.817 1.051.584 6.771 0 13.542-1.518 20.196-.116.584-.35.701-.934.817-3.385.584-6.771 1.168-10.039 1.635-.818.116-1.285.467-1.635 1.284-1.634 4.086-3.502 7.938-5.954 11.557-.467.584-.35 1.168 0 1.752l4.553 9.105c.35.584.234 1.051-.233 1.518a67.633 67.633 0 01-15.177 13.075c-.583.35-.934.35-1.401-.117-2.801-1.984-5.487-3.969-8.288-5.953-.584-.467-1.051-.467-1.751-.234-4.086 1.868-8.289 3.152-12.725 4.086-.584.117-.817.35-.934.934a350.004 350.004 0 01-3.386 10.273c-.117.234-.467.584-.7.584-7.005.584-13.893.117-20.664-1.518-.467-.116-.583-.35-.583-.817-.584-3.385-1.168-6.771-1.635-10.273-.116-.817-.35-1.168-1.167-1.401a62.478 62.478 0 01-11.791-6.071c-.584-.35-.934-.35-1.518-.116l-9.106 4.553c-.583.35-1.05.233-1.634-.234-5.02-4.319-9.339-9.339-12.958-14.943-.467-.7-.467-1.167 0-1.751 1.984-2.685 3.969-5.487 5.953-8.289.351-.467.467-.934.117-1.517a63.302 63.302 0 01-4.203-13.076c-.233.234-.467-.116-.467-.233zm67.711-39.459c-16.461-7.471-35.957-.117-43.428 16.344-7.588 16.577-.234 36.073 16.227 43.545 16.577 7.471 36.073.233 43.545-16.344 7.471-16.461.117-36.073-16.344-43.545z" stroke="#231F20" stroke-width="3" stroke-miterlimit="10" stroke-linecap="round" stroke-linejoin="round"/></svg>