<svg width="203" height="100" fill="none" xmlns="http://www.w3.org/2000/svg"><path fill-rule="evenodd" clip-rule="evenodd" d="M81.077 18.134c0 8.237-4.25 7.407-10.52 7.407v10.4H80.98v17.478c0 4.62 2.294 9.559 6.26 11.918 3.965 2.36 7.45 2.076 12.016 2.065h2.862v-10.4h7.057c1.366 0 3.343-.885 3.343-2.633V35.8h-10.4V25.64h21.04v3.277c.241-.055 3.365-1.595 4.73-2.076a19.19 19.19 0 015.79-1.157v-10.16h-31.68v10.04h-10.28v-10.04h-10.63l-.01 2.61zm30.129 49.246h22.471V35.82a11.129 11.129 0 00-8.87 4.643c-3.496 5.56-.809 12.825-2.436 17.763a13.792 13.792 0 01-9.832 8.674 8.237 8.237 0 00-1.333.48zM91.717 35.94h10.28v20.756h-7.734a2.545 2.545 0 01-2.546-2.534V35.94zM63.318 84.356h1.912v-6.095l1.66 2.283c.393.524 2.48 3.813 3.004 3.813h1.552v-8.609h-1.792v5.856l-2.185-2.972c-.36-.48-.71-.961-1.092-1.453l-.546-.764c-.59-.842-.066-.667-2.557-.667l.044 8.608zm63.83 0h1.901v-6.095l1.66 2.283c.394.524 2.48 3.813 3.005 3.813h1.551v-8.609h-1.792v5.856l-2.185-2.972c-.36-.48-.71-.961-1.092-1.453l-.546-.764c-.59-.842-.066-.667-2.557-.667l.055 8.608zm17.096-1.791h-1.442V77.42h1.442a2.613 2.613 0 012.166 2.572 2.611 2.611 0 01-2.166 2.573zm-3.473-6.817v8.248c0 .557.731.36 2.184.36a6.609 6.609 0 003.933-.972c2.48-1.846 2.098-6.97-1.824-7.592a18.05 18.05 0 00-4.293-.044zm-34.663 3.583V77.3c.765 0 1.912-.098 1.912.962s-1.071 1.07-1.912 1.07zm-2.032-3.583v8.248c0 .546.677.36 2.032.36v-3.583l1.092 1.705c.393.592.726 1.221.995 1.879h2.272c-.197-.83-1.967-3.147-2.185-3.944 2.185-.513 2.108-3.703.557-4.37-1.551-.666-3.43-.295-4.763-.295zM88.782 77.78c.24 1.093.689 1.988.95 3.103h-1.911c.212-1.065.534-2.105.961-3.103zm-4.304 6.555h2.032a7.188 7.188 0 00.59-1.792h3.277c.162.608.359 1.206.59 1.792h2.272c-.906-2.425-2.687-6.314-3.222-8.609h-2.272c-.623 1.54-3.19 7.636-3.267 8.63v-.021zm68.244-6.555c.251 1.093.699 1.988.961 3.103h-1.912c.214-1.063.532-2.103.951-3.103zm-4.294 6.555h2.032a7.164 7.164 0 00.59-1.792h3.277c.162.608.359 1.206.59 1.792h2.273c-.907-2.425-2.688-6.314-3.278-8.609h-2.272c-.568 1.54-3.135 7.636-3.212 8.63v-.021zm-30.489-5.167c0 1.267 0 3.102.579 3.976 1.213 1.78 4.894 1.617 6.15.371a3.363 3.363 0 00.809-2.436v-5.374h-1.89c0 1.354.24 5.8-.514 6.554a2.064 2.064 0 01-2.392.175c-1.093-.787-.743-5.342-.688-6.718h-1.912c-.022 1.332-.142 2.184-.142 3.452zm-69.806 5.145h5.146V82.52H50v-1.91h3.278v-1.682H50v-1.671h3.278v-1.552h-5.146v8.609zm63.12 0h5.135V82.52h-3.278v-1.91h3.278v-1.682h-3.278v-1.671h3.278v-1.552h-5.135v8.609zM54.59 79.528a4.556 4.556 0 001.3 3.725 5.332 5.332 0 004.872 1.005c.524-.13.644-.317 1.092-.426V81.8a6.17 6.17 0 00-1.202.601c-2.108.94-4.063-.153-4.063-2.272 0-2.12 1.092-2.993 3.113-2.993 1.027 0 1.41.666 2.185.84v-2.031c-1.311-.11-3.572-1.344-5.932.644-.36.368-.672.779-.928 1.224a3.977 3.977 0 00-.438 1.759v-.044zm26.654 4.905a4.578 4.578 0 002.633-.6V81.8c-1.092.59-2.72 1.639-4.304.36-1.278-1.026-1.573-5.024 2.032-5.024 1.41 0 1.464.622 2.272.84v-2.031a8.363 8.363 0 01-1.092-.284c-7.472-1.704-8.357 8.816-1.54 8.816v-.044zm76.142-6.697c0 2.655 3.179 2.742 3.704 3.846.338.71-.328 1.3-1.093 1.3-.765 0-1.092-.612-1.671-.962-.415.623-1.836 1.093-.121 2.185 3.431 2.076 7.2-2.61 3.278-4.664-1.016-.536-2.032-.732-2.032-1.672 0-.371.655-.72.961-.72.918 0 .907.37 1.431.72.415-.612.852-.765 1.093-1.092-1.53-2.174-5.55-1.147-5.55 1.103v-.043zm-63.96 0c0 2.655 3.178 2.742 3.702 3.846.339.71-.327 1.3-1.092 1.3-.765 0-1.093-.612-1.671-.962-.416.623-1.825 1.093-.12 2.185 3.44 2.076 7.209-2.61 3.277-4.664-1.027-.536-2.032-.732-2.032-1.672 0-.371.655-.72.95-.72.929 0 .918.37 1.442.72.404-.612.841-.765 1.093-1.092-1.53-2.174-5.55-1.147-5.55 1.103v-.043zm-52.339-.48h2.032v7.057h1.912V77.42h2.086v-1.672h-5.975l-.055 1.508zm32.15 7.057h2.032v-8.609h-2.032v8.609zm63.83 0h1.912v-8.609h-1.912v8.609z" fill="#FAF3E7"/></svg>