<svg width="203" height="99" fill="none" xmlns="http://www.w3.org/2000/svg"><path fill-rule="evenodd" clip-rule="evenodd" d="M101.537 14.807a34.548 34.548 0 0131.934 21.329 34.549 34.549 0 01-45.167 45.132A34.55 34.55 0 0167 49.318a34.63 34.63 0 0134.537-34.51zm-4.714 64.387l14.691-25.563h-9.977l4.955-8.587h23.399l-4.955 8.628h-8.481l-14.918 25.95a30.223 30.223 0 100-60.447 27.57 27.57 0 00-3.552.227L83.12 45.084h18.417l-4.995 8.588H73.17L92.228 20.67a30.197 30.197 0 004.541 58.564" fill="#FAF3E7"/></svg>