<svg width="203" height="100" fill="none" xmlns="http://www.w3.org/2000/svg"><path d="M65.508 26.628l.07.228-1.594 2.682a1.509 1.509 0 00-.425 0c-.398.05-.8.05-1.198 0h-.712c-.148 0-.317 0-.386-.208.109-.119.248-.228.218-.426 0 0 0-.079.05-.118.128-.198.266-.386.385-.594.119-.208.416-.673.624-.99.099-.168.257-.297.227-.514l2.741-.06zm-8.036 13.725a5.39 5.39 0 01-1.257 0c-.425-.079-.85.129-1.257-.079a.87.87 0 01.278-.99c.132-.17.235-.36.306-.563.08-.238 0-.386-.218-.386l-1.682.059a1.365 1.365 0 01-.9-.218c.096-.055.186-.122.267-.198.287-.415.554-.85.841-1.266a.237.237 0 000-.347H51.1s-.07.11-.11.11a.268.268 0 00-.237.187c-.05.095-.11.185-.178.267-.159.268-.337.535-.485.812-.223.465-.48.911-.772 1.336-.198.277-.366.574-.564.86a.376.376 0 01-.237.13c-.27.014-.542.014-.812 0h-1.296c-.208 0-.208 0-.218-.169-.01-.168 0-.138 0-.218.406-.178.435-.603.614-.99-.169-.148 0-.256.089-.425a.99.99 0 01-.752 0h-.446l-1.316-.069c-.247.455-.485.89-.732 1.326-.247.436-.445.703-.663 1.069-.376.623-.722 1.266-1.099 1.89-.376.623-.643.99-.989 1.494-.08.116-.176.22-.287.307a.425.425 0 00-.158.455c0 .188.237.158.386.148a8.03 8.03 0 01.821 0c.286.032.574-.03.821-.178.1-.05.228-.099.297 0a.346.346 0 010 .297 7.966 7.966 0 01-.455.861c-.238.416-.485.821-.732 1.237a2.204 2.204 0 01-.287.435 1.199 1.199 0 01-.99.495c-.415-.05-.84-.06-1.266-.099a.584.584 0 00-.614.258c-.099.158-.188.316-.277.474-.228.386-.445.792-.683 1.178-.237.386-.485.792-.712 1.187-.228.396-.426.762-.643 1.128l-1.425 2.633a73.113 73.113 0 00-.99 1.662l-.633 1.059c-.159.267-.287.544-.455.791a28.06 28.06 0 00-1.356 2.207c-.119.245-.25.483-.396.713-.732 1.068-1.365 2.196-1.979 3.325l-.99 1.701c-.207.357-.415.713-.613 1.07a1.387 1.387 0 00-.178.514 2.266 2.266 0 00.495 1.633c.316.395.633.791.99 1.167.355.376.87.9 1.315 1.336.091.078.207.12.327.119h14.447c.228-.033.448-.103.653-.208v-.06c-.345-.24-.675-.501-.99-.781a46.69 46.69 0 01-1.978-1.98 1.57 1.57 0 01-.317-.692 2.306 2.306 0 01.386-1.583c.09-.16.192-.312.307-.455.366-.614.722-1.227 1.078-1.84 0-.06.07-.13.11-.199.187-.366.375-.732.583-1.078.297-.515.623-.99.93-1.514.109-.178.188-.367.287-.545.327-.544.673-1.088.99-1.642.197-.317.336-.673.554-.99.15-.207.28-.43.386-.663.047-.112.107-.218.178-.316l1.256-2.108c.406-.683.802-1.376 1.208-2.068l1.049-1.752c.168-.287.316-.593.484-.88.292-.439.55-.898.772-1.376.053-.117.116-.23.188-.336.188-.307.505-.554.564-.94a.415.415 0 010-.12l1.386-2.305.386-.623.643-1.079c.148-.237.297-.455.425-.692.272-.57.582-1.118.93-1.643.065-.073.122-.152.169-.238.099-.197.178-.405.267-.603-.287-.159-.08-.297-.09-.426zm-8.688 9.183c-.188.347-.347.703-.545.99a3.246 3.246 0 01-.415.574.445.445 0 01-.277.118h-1.9c-.149 0-.287 0-.346-.158-.06-.158 0-.237.108-.346a1.1 1.1 0 00.208-.277c.287-.505.574-.99.87-1.514a.652.652 0 01.605-.327c.346 0 1.365.07 1.979.1-.08.365-.228.731-.287.84zm1.425-6.491c-.26.334-.498.684-.713 1.049a3.476 3.476 0 00-.237.297c-.11.207-.198.415-.307.653h-1.188a3.818 3.818 0 00-.583 0c-.188 0-.337-.1-.515-.08v-.276a9.5 9.5 0 01.633-1.07c.209-.421.447-.828.713-1.216a.228.228 0 01.188-.1h2.157a.722.722 0 01-.148.743z" fill="#fff"/><path d="M27.343 72.038H17.062a.811.811 0 01-.821-.465 1.358 1.358 0 00-.149-.208 4.513 4.513 0 01-.722-.99.158.158 0 00-.06-.078 6.613 6.613 0 01-.83-1.109 1.564 1.564 0 01-.248-1.286c.082-.517.275-1.01.564-1.445l.772-1.118c.504-.732.99-1.465 1.504-2.187.346-.485.702-.99 1.049-1.435.148-.217.277-.445.425-.653l1.475-2.167c.306-.445.603-.9.91-1.336.307-.435.514-.643.752-.99.238-.346.505-.722.752-1.098.068-.12.125-.245.168-.376a.9.9 0 01.09-.168c.356-.465.722-.92 1.068-1.395.346-.475.762-1.099 1.138-1.653.376-.554.742-1.108 1.128-1.652a.464.464 0 01.485-.248c.396 0 .802 0 1.197.08a.593.593 0 00.594-.248l1.207-1.672c.198-.277.406-.554.604-.841.289-.36.547-.745.772-1.148.085-.173.2-.33.336-.465a.772.772 0 01.416-.139h1.732c.138 0 .237.198.376 0 .108.159 0 .258 0 .297-.199.144-.345.35-.416.584a1.98 1.98 0 01-.267.366c-.149.168-.287.356-.446.515a.347.347 0 00-.079.425h1.9c.396-.574.812-1.167 1.207-1.771.238-.356.446-.732.663-1.099 0-.069.1-.118.139-.178.129-.227.277-.435.386-.672.123-.255.302-.478.524-.654a.515.515 0 01.495 0 1.81 1.81 0 001.207-.059c.144-.03.292-.03.436 0a.682.682 0 01-.168.732c-.228.267-.386.584-.594.851-.455.594-.762 1.277-1.178 1.89-.277.406-.495.831-.732 1.257-.129.238-.297.455-.435.683l-1.396 2.305c-.257.436-.554.851-.811 1.287-.257.435-.584 1.069-.89 1.583-.14.248-.317.465-.466.703-.148.237-.247.445-.376.663l-.593.93c-.05.089-.11.158-.159.247-.475.812-.94 1.623-1.405 2.434a.215.215 0 010 .08 7.388 7.388 0 00-.87 1.405c-.377.643-.782 1.276-1.168 1.91-.178.306-.337.623-.525.93-.396.673-.752 1.365-1.207 1.979-.317.435-.465.99-.802 1.355a4.95 4.95 0 00-.534 1.099 1.049 1.049 0 00-.06.692c.071.463.226.91.456 1.317.158.237.366.445.534.692.244.406.584.746.99.99a.652.652 0 01.237.722zM28.6 53.94h.277a1.7 1.7 0 01.86.079.436.436 0 00.248 0 .93.93 0 00.515-.416c.138-.198.297-.396.425-.613.129-.218.188-.357.277-.535a.561.561 0 01.11-.158.277.277 0 00.059-.327.257.257 0 00-.337-.148 2.8 2.8 0 01-.99.099.752.752 0 00-.385.158c-.138.135-.26.285-.366.446-.287.356-.436.82-.851 1.098l.158.317z" fill="#fff"/><path d="M24.878 49.19l.05.673c-.308.29-.572.623-.783.99-.237.346-.514.662-.761.989-.386.524-.772 1.039-1.148 1.573-.228.327-.426.673-.653.99-.574.81-1.168 1.612-1.742 2.424-.356.505-.693.99-1.049 1.514-.218.317-.455.603-.673.91-.218.307-.494.693-.732 1.04l-1.197 1.711c-.347.495-.683.99-.99 1.494-.307.505-.9 1.218-1.326 1.831a13.01 13.01 0 00-1.098 1.722 2.968 2.968 0 00-.267 1.632c.036.334.166.65.375.911.357.465.703.94 1.06 1.395.138.168.296.327.445.475a.664.664 0 01.227.554.934.934 0 01-.217.07c-.485 0-.99-.05-1.455-.05H9.263c-.574 0-1.148.06-1.722.09a.643.643 0 01-.653-.317c-.188-.278-.445-.525-.653-.792-.208-.267-.346-.515-.534-.772-.188-.257-.367-.465-.545-.712a.525.525 0 01-.118-.278v-1.86a.356.356 0 01.049-.208c.218-.267.445-.524.653-.801.208-.277.584-.772.87-1.168.288-.396.535-.752.822-1.118.287-.366.436-.505.643-.762l.802-1.059c.168-.207.317-.435.485-.643.168-.208.386-.514.584-.772l.633-.821.99-1.366v-.059a7.24 7.24 0 00.989-1.178c.366-.475.713-.99 1.069-1.464l.386-.505 1.039-1.326c.27-.304.51-.636.712-.99a.742.742 0 01.643-.355c.181-.02.364-.02.545 0h2.929a.615.615 0 00.554-.278l1.177-1.553c.119-.168.258-.327.376-.485.268-.346.535-.683.782-.99a.306.306 0 01.257-.158c.33-.02.66-.02.99 0 .292-.014.58-.064.86-.148zm88.344 7.5h-3.661a3.232 3.232 0 01-.514-1.622c-.268-.416-.208-.91-.376-1.356-.169-.445-.297-.99-.475-1.465a2.196 2.196 0 00-.485-.989 3.982 3.982 0 00-.841-.534 3.091 3.091 0 00-1.554-.208h-.317a.85.85 0 00-.178.613v4.978c.009.18.032.358.069.534a2.53 2.53 0 01-1.187.129h-2.088a2.959 2.959 0 01-.425-.08V42.392c0-.386 0-.772-.07-1.158.249-.112.52-.166.792-.158.228 0 .455-.1.693-.139.132-.04.268-.067.405-.08h4.859c.248.016.493.055.732.12a9.3 9.3 0 011.969.603 3.57 3.57 0 011.643 1.554c.291.447.443.97.435 1.504 0 .297.08.604.09.9.003.218-.024.434-.08.644-.099.336-.207.672-.336.99-.079.2-.193.384-.337.543a8.518 8.518 0 01-.989.99c-.231.172-.48.318-.742.435l-.258.139c.021.037.045.074.07.109.307.237.633.455.92.712.15.158.273.338.366.535.069.128.129.267.188.405.126.224.223.464.287.713.06.247.198.485.267.722.129.406.228.811.327 1.217.158.624.287 1.257.455 1.88.074.236.177.463.307.673a.527.527 0 01.067.219.53.53 0 01-.028.227zm-8.183-13.19a.558.558 0 00-.218.514v3.474c0 .218.109.307.317.307h1.979c.085.01.172.01.257 0 .43-.12.819-.352 1.128-.673a1.658 1.658 0 00.525-1.247 2.748 2.748 0 010-.287 1.367 1.367 0 00-.258-.99 1.829 1.829 0 00-.989-.86 3.147 3.147 0 00-.861-.248c-.613-.04-1.267 0-1.88.01zm-33.237-2.712h3.79c0 .297 0 .545.05.782.05.238 0 .287 0 .426v8.658c.028.277-.002.557-.09.822-.187.425-.138.92-.336 1.345-.198.426-.435 1.148-.732 1.683-.099.158-.188.316-.297.465a5.643 5.643 0 01-1.642 1.336 9.251 9.251 0 01-1.643.573 6.025 6.025 0 01-2.058.198 8.64 8.64 0 01-1.683-.118 4.393 4.393 0 01-1.533-.584c-.248-.159-.515-.307-.782-.455a3.621 3.621 0 01-.99-1.07 5.166 5.166 0 01-.762-1.464 10.683 10.683 0 01-.257-.92c-.119-.455-.218-.9-.317-1.356a2.124 2.124 0 010-.257V40.77h3.602c.124.237.17.507.129.772v5.591c0 .99 0 1.979.06 2.899a8.116 8.116 0 000 1.098 4.72 4.72 0 00.662 1.85c.27.438.688.764 1.178.92.318.114.652.174.99.18a2.553 2.553 0 001.85-.694c.325-.35.574-.765.732-1.217a7.95 7.95 0 00.287-1.157c.02-.205.02-.41 0-.614v-8.48a6.134 6.134 0 00-.07-.614c-.098-.099-.118-.277-.138-.514zM119.1 52.703c-.277.93-.544 1.86-.821 2.78-.109.366-.218.723-.317 1.089 0 .168-.128.237-.297.227h-2.246c-.287 0-.564 0-.841-.059 0-.277 4.829-15.605 4.948-15.902h3.958c.237 0 .336.08.416.327.178.554.346 1.098.514 1.642 1.405 4.5 2.807 8.998 4.206 13.498 0 .138.079.267.128.435h-3.71a2.844 2.844 0 01-.159-.396c-.277-.831-.544-1.662-.821-2.494-.099-.326-.208-.643-.317-.989a.204.204 0 00-.078-.135.205.205 0 00-.149-.043h-4.433l.019.02zm4.265-2.682c-.128-.663-1.781-5.937-1.929-6.145l-1.643 5.937a.283.283 0 00.165.161.29.29 0 00.231-.012.437.437 0 01.158 0l2.514.069.504-.01zm50.477-9.212h1.821c.108.009.215.032.317.07a7.415 7.415 0 012.177 1.058c.207.174.405.36.594.554a6.753 6.753 0 011.395 1.781c.272.437.464.92.564 1.425.066.405.172.803.316 1.188.132.456.185.93.159 1.405.013.618-.013 1.236-.079 1.85a7.119 7.119 0 01-.347 1.504.785.785 0 00-.059.287 1.1 1.1 0 01-.178.584c-.228.426-.446.861-.703 1.277a4.942 4.942 0 01-1.108 1.415c-.399.316-.815.61-1.247.88a5.01 5.01 0 01-1.346.713 4.71 4.71 0 01-.89.178 16.346 16.346 0 01-3.543-.198c-.168 0-.346 0-.504-.09a1.158 1.158 0 01-.624-.246.836.836 0 00-.287-.169 5.749 5.749 0 01-1.385-.99 4.863 4.863 0 01-.99-1.147 5.563 5.563 0 01-.861-1.504 11.423 11.423 0 01-.564-1.98v-2.899c.009-.455.089-.905.238-1.336.109-.326.188-.662.307-.989.118-.327.217-.445.316-.673a8.18 8.18 0 011.376-2.078 5.685 5.685 0 011.345-.99 7.617 7.617 0 011.208-.603 3.53 3.53 0 011.474-.287c.369.02.739.02 1.108 0v.01zm.139 14.546a5.35 5.35 0 00.831-.06 4.6 4.6 0 001.554-.702 6.167 6.167 0 002.078-2.9c.146-.343.22-.714.217-1.088a2.16 2.16 0 010-.227c.06-.357.139-.713.179-1.069.039-.356 0-.604 0-.91a6.342 6.342 0 00-.218-1.495c0-.099-.089-.188-.089-.277a3.128 3.128 0 00-.386-1.227c-.3-.692-.73-1.32-1.267-1.85a3.848 3.848 0 00-2.335-1.098 8.607 8.607 0 00-2.137.069c-.104.03-.204.073-.297.128l-.901.446a1 1 0 00-.168.099 4.443 4.443 0 00-1.059 1.177 7.27 7.27 0 00-.91 1.92c0 .148-.149.277-.168.416a8.94 8.94 0 00-.099 1.266c-.043.832-.017 1.666.079 2.494.044.37.114.737.208 1.098a7.16 7.16 0 001.385 2.395c.251.284.553.519.891.693.265.163.539.312.821.445.577.19 1.183.278 1.791.257zM87.21 44.044v-3.246c4.047.07 8.064-.069 12.102 0v3.325c-.248-.227-.525-.109-.772-.188a2.248 2.248 0 00-.772 0c-.629.055-1.261.055-1.89 0a.782.782 0 00-.693.228h-.188a.703.703 0 010 .554c-.025.184-.025.37 0 .554v9.954c-.058.477.017.96.218 1.396a4.1 4.1 0 01-.544.07h-2.86a4.95 4.95 0 01-.515-.07c0-.099.06-.208.07-.307a1.39 1.39 0 000-.287V44.034a1.237 1.237 0 00-.841-.158 6.807 6.807 0 00-.99.089 3.016 3.016 0 01-1.188 0c-.237-.06-.544-.159-.781.109-.06.02-.218-.03-.356-.03zm106.574-3.255h1.722a.707.707 0 01.178.07v15.288c0 .554 0 .554-.554.554h-1.138a.455.455 0 01-.465-.258c-.792-1.306-1.603-2.602-2.405-3.908-1.702-2.751-3.4-5.502-5.096-8.253l-.208-.297a2.938 2.938 0 000 .297v11.419c0 .307 0 .624.06.99h-1.9V40.779h1.514a.633.633 0 01.673.376 328.394 328.394 0 002.177 3.592l5.422 8.906a.806.806 0 00.238.247c-.089-4.344-.158-8.698-.218-13.111zm-114.918.02h2.949c.178 0 .376 0 .435.188.06.188.208.247.159.465-.035.27-.035.542 0 .811v8.53a12.553 12.553 0 00-.1 1.979v1.128h5.938a.782.782 0 01.514.139 1.99 1.99 0 000 .336v1.692a.633.633 0 00.169.505 5.84 5.84 0 01-1.703.099h-8.232l-.129-15.872zM134.788 56.7l-5.215-15.891h1.91a.435.435 0 01.465.316c.08.238.149.475.218.713.069.237.168.514.247.772.198.564.436 1.118.574 1.692.143.576.325 1.14.545 1.692.178.495.277.99.435 1.524.158.534.238.732.356 1.108.119.376.327.99.495 1.534.168.544.297.93.435 1.395.228.752.446 1.514.673 2.276a.94.94 0 00.07.168 1.5 1.5 0 00.366-.801c.118-.356.217-.723.326-1.089.109-.366.287-.92.446-1.385.158-.465.316-.871.465-1.306.148-.436.247-.693.366-.99.069-.188.128-.386.198-.574l.89-2.681c.267-.822.554-1.643.831-2.465.179-.534.347-1.068.525-1.602a.357.357 0 01.396-.297l1.296.059h.703c-.05.168-.08.277-.119.396l-5.403 15.16c-.119.346-.129.346-.505.346l-1.989-.07zm15.225-2.503c.198.139.357.257.535.366.133.088.276.161.425.218.337.129.693.237.99.366a.603.603 0 00.178 0c.643 0 1.286.119 1.919.099a2.852 2.852 0 001.98-.9 2.518 2.518 0 00.409-3.074 2.507 2.507 0 00-.756-.805 7.552 7.552 0 00-1.454-.832c-.327-.158-.693-.237-1.039-.376a11.118 11.118 0 01-2.069-1.148 4.506 4.506 0 01-1.217-1.444c-.049-.1-.128-.178-.168-.277a1.923 1.923 0 01-.168-.545c-.03-.477-.03-.957 0-1.434a2.974 2.974 0 01.435-1.465 5.946 5.946 0 011.366-1.415 4.112 4.112 0 011.86-.801 11.982 11.982 0 012.454-.149 8.76 8.76 0 012.573.633l-.574 1.752-.989-.327a2.776 2.776 0 00-.99-.178h-2.118c-.458.161-.872.43-1.207.782a1.77 1.77 0 00-.415 1.069 3.238 3.238 0 01-.08.425c-.059.327.119.604.139.92a.166.166 0 00.059.11 3.612 3.612 0 001.762 1.464c.514.198 1.049.386 1.553.613.663.287 1.306.633 1.979.99a.255.255 0 01.129.099c.351.374.682.767.989 1.177.308.466.523.987.634 1.534.015.237.015.475 0 .712a4.548 4.548 0 01-.376 1.89 3.958 3.958 0 01-1.405 1.742 3.202 3.202 0 00-.357.287c-.241.22-.534.376-.851.455-.435.12-.88.238-1.316.337a.986.986 0 01-.297 0h-1.791a5.475 5.475 0 01-1.593-.258c-.326-.118-.673-.178-.989-.267a1.994 1.994 0 01-.337-.118c-.356-.159-.405-.268-.287-.624.119-.356.267-.87.406-1.306-.04-.06.01-.148.069-.297zm-3.354-13.359v15.833c-.737.074-1.479.074-2.216 0V40.838a11.043 11.043 0 012.216 0zm15.073-.029h1.979c.227.287.138.593.138.89v14.922a6.728 6.728 0 01-2.226 0 39.89 39.89 0 00.059-4.077v-9.638c.099-.712.069-1.375.05-2.097zm-85.714 22.67c.356-.258.782 0 1.197-.139v9.599a1.05 1.05 0 01-.673.109c-.613 0-.455.108-.791-.436-1.524-2.385-3.028-4.78-4.542-7.174a.761.761 0 00-.228-.248v7.838h-1.157V63.37h1.325c.08 0 .169.119.218.198.346.554.673 1.118.99 1.672.099.124.212.237.336.337.034.255.14.495.307.692.386.594.791 1.178 1.158 1.771.544.891 1.068 1.791 1.603 2.682l.158.238c.06-.1.139-.169.139-.238v-6.254a7.467 7.467 0 00-.04-.99zm92.167 1.207v.307c.039 2.236.085 4.473.138 6.709v.752c.009.175.009.35 0 .525h-1.098v-7.847a7.868 7.868 0 010-.842c0-.297.089-.574.148-.89h1.207a.31.31 0 01.179.119c.22.341.458.671.712.989.238.337.406.713.623 1.059.099.168.218.317.317.485.238.356.465.732.693 1.098.227.366.425.623.623.99.198.366.396.643.574.99.317.573.604 1.157.901 1.73.059.11.099.228.158.357.218-.158.178-.366.178-.564V63.47a1.1 1.1 0 011.059.129v8.638c.005.076.005.152 0 .228-.089.485-.188.534-.683.574a.842.842 0 01-.9-.505 720.753 720.753 0 00-4.186-6.867l-.594-.99-.049.01zm-5.543 3.681a5.175 5.175 0 01-2.078 4.166 4.12 4.12 0 01-5.572-.554 5.288 5.288 0 01-1.395-3.088 5.488 5.488 0 011.108-4.126 4.244 4.244 0 012.89-1.702 3.679 3.679 0 011.761.168c.583.176 1.12.476 1.574.881a5.34 5.34 0 011.227 1.752c.343.788.509 1.643.485 2.503zm-7.857-.138a4.95 4.95 0 00.781 2.74 3.077 3.077 0 002.029 1.406c.279.04.562.04.841 0 .203-.041.402-.101.594-.178.136-.035.268-.08.396-.139a3.27 3.27 0 001.157-1.079c.473-.72.743-1.553.782-2.414a2.64 2.64 0 00-.218-1.484 1.307 1.307 0 010-.198c.01-.096.01-.192 0-.287a3.899 3.899 0 00-1.217-1.781 2.7 2.7 0 00-2.305-.624 3.02 3.02 0 00-1.633.99 4.652 4.652 0 00-1.267 3.048h.06zm-39.871-3.048v7.58c0 .277 0 .287-.307.287h-.752V63.37h1.178a.325.325 0 01.217.149c.327.484.653.99.99 1.464l3.829 6.195.218.336V63.38h.901v9.678h-.931a.564.564 0 01-.603-.327c-.297-.524-.653-.99-.99-1.534-.485-.771-.989-1.553-1.415-2.335-.257-.445-.544-.86-.841-1.276a14.733 14.733 0 01-.782-1.376l-.504-.88a2.297 2.297 0 00-.139-.169l-.069.02zm-11.726-1.821h2.87a2.742 2.742 0 012.81 2.068 2.53 2.53 0 01-.91 2.622c-.208.178-.396.376-.604.574.149.119.277.208.386.307.304.298.526.67.643 1.079.263.635.449 1.3.554 1.979a3.2 3.2 0 00.159.524c0 .158.069.317.119.515-.372.04-.747.04-1.119 0a50.79 50.79 0 01-.277-.99c-.168-.613-.326-1.237-.514-1.84a2.617 2.617 0 00-.337-.634 1.542 1.542 0 00-1.316-.702h-1.425v4.126h-1.039V63.36zm1.099.683V68l1.098.07a2.77 2.77 0 001.771-.525 1.752 1.752 0 00.782-1.465 1.98 1.98 0 00-1.751-1.91c-.604-.118-1.227-.089-1.93-.128h.03zm82.944 8.985h-1.217c-.327-.99-.643-1.98-.989-2.969h-3.682l-.989 3.018h-1.128c.123-.472.272-.938.445-1.395.149-.465.317-.92.475-1.385l.475-1.385c.158-.456.307-.92.465-1.386.158-.465.337-.91.475-1.375.139-.465.366-.89.485-1.366.13-.467.285-.926.465-1.375h1.435c1.088 3.166 2.207 6.372 3.285 9.618zm-2.523-3.909a44.735 44.735 0 00-1.544-4.68c-.504 1.563-.989 3.097-1.524 4.68h3.068zm-57.689 3.909h-1.147l.831-2.454.821-2.395c.277-.811.525-1.632.831-2.424.307-.792.485-1.613.841-2.385h1.356c.168.248 3.246 9.252 3.295 9.648h-1.108l-.99-3.038h-3.74l-.99 3.048zm4.364-3.909a46.565 46.565 0 00-1.553-4.69c-.505 1.563-.99 3.097-1.524 4.69h3.077zm-37.338-.683v3.73l4.027.05v.772c-.218.08-4.492.109-5.086 0-.07-.228-.09-9.252 0-9.648h5.096v.623a.216.216 0 01-.14.236.218.218 0 01-.097.012h-3.84v3.335h3.671v.811h-3.641l.01.08zm97.659 4.542c.089-1.83 0-3.591 0-5.363V63.45h1.237a.65.65 0 01.129.505 9.098 9.098 0 000 1.167v6.373c0 .228 0 .455.049.722a3.54 3.54 0 00.366-.059c.329-.042.661-.042.99 0h2.573l.485.188v.525a.427.427 0 01-.386.138h-5.116l-.327-.03zm-55.373-8.718v-.88h6.976c.06.29.06.59 0 .88h-2.909v8.709a4.175 4.175 0 01-1.108.059V64.24l-2.959.02zm-51.863 0h-2.74c-.327 0-.327 0-.337-.336v-.534h6.927v.86h-2.81v8.778h-1.04v-8.767zm-21.186 8.768V63.34H64.5v9.688h-1.218zm85.505-9.648v9.648a6.251 6.251 0 01-1.138 0V63.38h1.138zM47.964 32.536c.416 0 .811.07 1.197.06a1.85 1.85 0 001.148-.347c.039.236.039.477 0 .712a2.8 2.8 0 01-.396.614c-.1.114-.19.236-.267.366a80.66 80.66 0 00-.87 1.584 1.65 1.65 0 00-.07.296h-.129c-.168.198-.386.09-.583.09H46.36a3.619 3.619 0 01-.436-.07l.09-.267v-.119c.277-.188.356-.524.554-.772a7.18 7.18 0 00.484-.801c.238-.376.495-.752.743-1.128a1.62 1.62 0 00.168-.218z" fill="#fff"/><path d="M18.792 49.25c.254.05.512.08.772.088.286-.015.571-.054.85-.119.11 0 .209-.079.307 0a.316.316 0 010 .367 1.068 1.068 0 01-.326.564 4.376 4.376 0 00-.505.613.988.988 0 01-.94.446c-.405 0-.821 0-1.227.049-.079 0-.208-.06-.227-.119a.337.337 0 010-.287c.158-.227.356-.435.524-.653.168-.218.524-.593.772-.95z" fill="#fff"/></svg>