<svg width="203" height="99" fill="none" xmlns="http://www.w3.org/2000/svg"><path d="M159.249 52.986v.933H5.727v-.933h153.522zm14.476-5.616l5.523-5.168 5.596 5.177 7.463-6.81 5.224 5.598-12.659 12.126-5.596-5.68-5.523 5.69-12.714-12.127 5.233-5.597 7.453 6.791zm11.101 9.412l11.194-10.671-3.853-4.142-7.341 6.79-5.597-5.167-5.522 5.168-7.463-6.772-3.806 4.141 11.287 10.653 5.523-5.727 5.578 5.727zm-75.557-9.58l.699-2.714c.336-1.325.681-2.659 1.008-3.993a.328.328 0 01.039-.136.327.327 0 01.22-.17.335.335 0 01.142-.002h2.015c-.159.56-.299 1.083-.457 1.605-.846 2.916-1.698 5.83-2.556 8.74-.075.262-.187.345-.448.336h-1.437c-.251 0-.317-.112-.382-.308-.709-2.25-1.424-4.499-2.145-6.744a.752.752 0 00-.187-.345c0 .093-.075.187-.103.27l-2.173 6.838c-.075.224-.168.298-.392.29h-1.38a.347.347 0 01-.411-.3 3045.87 3045.87 0 00-2.192-7.462l-.784-2.63c0-.094 0-.196-.074-.318h2.5c.572 2.264 1.138 4.537 1.698 6.82h.083c0-.103.075-.197.103-.3.681-2.07 1.371-4.15 2.034-6.23.084-.234.177-.327.429-.317.512.028 1.026.028 1.539 0 .252 0 .336.093.401.317l2.015 6.399.121.308.075.046zm49.337 3.666h-2.92c-.103 0-.215-.15-.28-.252a998.924 998.924 0 01-4.319-7.033.787.787 0 00-.27-.29v7.566h-2.295V40.225h2.864a.448.448 0 01.438.26l4.179 6.83a.94.94 0 00.28.316v-6.987c0-.41 0-.41.401-.41h1.866l.056 10.634zm-93.236 0h-2.9c-.094 0-.215-.14-.28-.242l-4.357-7.08-.177-.27h-.084v7.555h-2.276V40.197h2.808a.54.54 0 01.522.289c1.393 2.289 2.789 4.574 4.188 6.856.06.111.15.202.261.261v-7.378h2.295v10.643zm75.515-10.942a5.787 5.787 0 014.571 1.782 5.26 5.26 0 011.343 3.162 6.106 6.106 0 01-.41 3.004 5.15 5.15 0 01-4.217 3.171 6.295 6.295 0 01-4.132-.625 5.116 5.116 0 01-2.696-4.142 6 6 0 01.438-3.18 5.171 5.171 0 014.142-3.088c.383-.019.765-.019.961-.084zm-3.181 5.597a3.305 3.305 0 001.284 2.829 3.312 3.312 0 003.063.52 3.09 3.09 0 002.351-2.855 3.354 3.354 0 00-4.207-3.88 3.25 3.25 0 00-2.491 3.395v-.01zm-60.653-4.244l-1.604 1.753-.131-.093a3.61 3.61 0 00-3.871-.625 3.077 3.077 0 00-1.968 2.799 3.508 3.508 0 00.876 2.798 3.273 3.273 0 002.91.989 9.779 9.779 0 001.596-.41.363.363 0 00.205-.234v-1.65h-1.93v-1.867c0-.14 0-.26.214-.26h3.824a.346.346 0 01.103 0v5.251a.43.43 0 01-.15.327 8.675 8.675 0 01-6.529.569 4.991 4.991 0 01-3.48-4.469 5.747 5.747 0 01.933-4.104 5.178 5.178 0 013.564-2.164 8.208 8.208 0 013.731.242c.655.237 1.241.63 1.707 1.148zm-35.709 9.589h-2.62c-.094 0-.215-.14-.271-.242a268.515 268.515 0 01-1.96-3.731.504.504 0 00-.522-.327c-.849 0-.849 0-.849.858v3.433h-2.285v-10.28c0-.27.047-.382.355-.382h4.104c.652.03 1.296.156 1.912.373a2.602 2.602 0 011.763 2.528c.023.436-.022.874-.13 1.297a2.444 2.444 0 01-1.791 1.865l-.392.112 2.686 4.496zm-6.221-6.212c.848 0 1.641 0 2.425-.121a1.035 1.035 0 00.998-.99c0-.708-.243-1.203-.886-1.296a20.06 20.06 0 00-2.37-.13.233.233 0 00-.158.177c-.01.774-.01 1.53-.01 2.36zm-9.459-2.351v1.866c0 .223.158.186.289.186h4.328v2.164H25.68v2.239h4.804c.29 0 .401.065.383.383v1.734h-7.183c-.261 0-.336-.074-.336-.335v-10.01c0-.186 0-.344.27-.344h6.96v1.94c0 .056-.168.14-.27.149h-4.665l.019.028z" fill="#FAF3E7"/><path d="M178.598 41.55l-4.86 4.346-.252-.196c-1.231-1.026-2.49-2.024-3.731-3.087a3.649 3.649 0 01-.69-4.916c.053-.076.112-.148.177-.215a5159.94 5159.94 0 009.785-10.205.415.415 0 00.093-.13l5.401 5.27c-.112.13-.205.224-.298.317l-6.446 6.605c-.588.606-.597.932 0 1.53.261.24.535.468.821.68zm-1.577 0a7.85 7.85 0 01-.447-.69 1.536 1.536 0 01.065-1.708 5.24 5.24 0 01.616-.746l5.597-5.728a3.2 3.2 0 00.242-.252l-3.946-3.852c0 .056-.121.168-.214.27-2.911 3.035-5.821 6.073-8.731 9.114a2.575 2.575 0 00-.751 1.963 2.589 2.589 0 00.956 1.87c.998.887 2.061 1.699 3.087 2.557a.275.275 0 00.22.112.273.273 0 00.219-.112c.933-.933 1.949-1.763 2.929-2.64l.158-.159zm-42.967-.551l-1.585 1.725a2.486 2.486 0 00-2.491-.55 1.704 1.704 0 00-.466.243.933.933 0 000 1.548c.608.28 1.23.526 1.865.737.408.13.806.286 1.194.467a2.618 2.618 0 011.418 2.873 3.293 3.293 0 01-2.798 2.957 5.45 5.45 0 01-4.412-.83c-.14-.103-.271-.224-.42-.355l1.669-1.866c.05.098.113.19.187.27a2.525 2.525 0 002.733.598 1.034 1.034 0 00.774-.933.933.933 0 00-.597-1.008c-.578-.26-1.175-.466-1.772-.69-.289-.112-.588-.205-.877-.326-2.49-1.008-2.061-3.834-.727-4.981a4.167 4.167 0 012.257-.933 5.412 5.412 0 013.2.494c.293.171.576.358.848.56zM12.723 40.99l-1.586 1.735a2.483 2.483 0 00-2.668-.485.933.933 0 00-.671 1.044.83.83 0 00.522.756c.588.243 1.194.438 1.782.662.474.162.935.358 1.38.588a2.452 2.452 0 011.232 2.015 3.367 3.367 0 01-3.097 3.731 5.4 5.4 0 01-3.732-.625c-.289-.168-.54-.382-.848-.597l1.641-1.81c.369.442.858.767 1.409.933a2.35 2.35 0 001.707-.14.933.933 0 00.103-1.781 14.43 14.43 0 00-1.866-.747c-.336-.14-.69-.242-1.017-.391a2.798 2.798 0 01-1.343-3.89 3.078 3.078 0 011.819-1.68 5.455 5.455 0 014.263.113c.336.166.66.356.97.569zm75.354 4.179l2.164 2.285c.41-.672.802-1.297 1.185-1.931a.476.476 0 01.494-.29h1.25c-.074.131-.121.225-.177.309-.569.877-1.129 1.753-1.707 2.62a.315.315 0 00-.08.37.315.315 0 00.08.107c.662.653 1.306 1.324 1.95 1.986l.242.271h-1.735a.495.495 0 01-.28-.168l-1.147-1.231-.56.54a4.048 4.048 0 01-4.664.738 2.864 2.864 0 01-.933-4.468c.41-.4.86-.756 1.344-1.064a2.29 2.29 0 01.373-.205c-.27-.354-.541-.672-.775-1.017a2.454 2.454 0 011.782-3.936 4.663 4.663 0 011.605.056 2.275 2.275 0 011.147 3.88 8.82 8.82 0 01-1.231.933 3.706 3.706 0 01-.327.215zm-1.222.606c-.382.27-.755.504-1.091.774a1.79 1.79 0 00-.681 1.866 1.958 1.958 0 001.408 1.418 2.798 2.798 0 002.967-1.325l-.159-.187c-.802-.867-1.604-1.66-2.416-2.546h-.028zm.933-4.543c-1.073 0-1.67.541-1.623 1.343a2.65 2.65 0 001.026 1.698.178.178 0 00.168 0c.453-.31.883-.654 1.287-1.026a1.204 1.204 0 00-.858-2.006v-.009zm85.932 29.832l-5.215-5.765 10.728-10.924c.078.055.153.114.224.178l3.311 2.957a2.648 2.648 0 01.7 3.358 2.49 2.49 0 01-.299.401l-9.235 9.608c-.074.065-.14.112-.214.187zm0-1.493l.205-.177 8.461-8.787a1.297 1.297 0 00.242-1.558 3.543 3.543 0 00-.653-.868c-.821-.764-1.67-1.501-2.518-2.257a2.023 2.023 0 00-.187-.14l-9.328 9.552 3.778 4.235zM16.604 50.868v-8.629h-3.032v-2.024h8.396v2.015h-3.004v8.246c0 .308-.075.42-.401.401-.653-.028-1.278-.009-1.96-.009zM42.75 40.215h2.276v8.125c0 .317.084.41.4.41h3.639c.28 0 .373.084.364.374v1.744h-6.66l-.02-10.653zm83.048 10.644h-6.651V40.225h2.248v8.097c0 .42 0 .42.429.42h3.601c.271 0 .373.065.364.354-.009.569.009 1.157.009 1.763zm-11.287-10.644h2.286V50.86h-2.286V40.215zM53.027 50.859H50.77V40.225h2.257v10.634z" fill="#FAF3E7"/></svg>