<svg width="204" height="100" fill="none" xmlns="http://www.w3.org/2000/svg"><path d="M22.27 51.94l5.164-6.223c1.492-1.776 2.917-3.566 4.395-5.327a3.976 3.976 0 015.44-.597 3.904 3.904 0 01.79 5.596 2154.55 2154.55 0 01-12.557 15.146 4.246 4.246 0 01-6.626-.134c-4.02-4.88-8.056-9.752-12.11-14.617-1.82-2.186-1.32-5.126 1.104-6.372a3.873 3.873 0 014.776.948c2.865 3.425 5.7 6.857 8.55 10.29.321.395.657.79 1.075 1.29zm14.058-8.954a1.493 1.493 0 100 .03v-.03zm-25.078 0a1.604 1.604 0 00-1.56-1.492 1.492 1.492 0 101.56 1.492zM22.19 58.7a1.38 1.38 0 001.492-1.403 1.491 1.491 0 00-1.544-1.492 1.492 1.492 0 00-1.493 1.492A1.426 1.426 0 0022.19 58.7zm143.735-17.318c4.88 0 8.506 3.462 8.528 8.17 0 4.865-3.469 8.461-8.207 8.476-5.223 0-8.745-3.327-8.752-8.26-.008-4.931 3.417-8.364 8.431-8.386zm-4.067 8.282v.858a3.9 3.9 0 002.694 3.634c2.798.798 4.91-.59 5.409-3.552.56-3.342-1.261-5.648-4.379-5.529-2.291.09-3.724 1.843-3.724 4.59zm-61.325-.343v6.977c0 1.783.239 1.745-1.716 1.73-2.335 0-2.134.262-2.134-2.126V42.86c0-1.06.067-1.045 1.127-1.135a3.194 3.194 0 013.067 1.493c1.925 2.544 3.962 5.006 6.103 7.692 0-.5.06-.79.06-1.074v-6.91c0-1.096.052-1.163 1.096-1.156 2.619 0 2.239-.306 2.239 2.239v12.863c0 1.134 0 1.12-1.157 1.194a2.666 2.666 0 01-2.492-1.201c-1.962-2.552-3.992-5.052-5.969-7.574l-.224.03zm94.289 1.329v-6.716c0-2.485-.313-2.156 2.238-2.179 1.06 0 1.105.06 1.105 1.142v13.99c0 1.112-.045 1.104-1.179 1.171a2.628 2.628 0 01-2.433-1.149c-1.686-2.238-3.439-4.395-5.178-6.58-.261-.337-.552-.642-.992-1.15 0 .53-.06.828-.06 1.127v6.715c0 .746-.253 1.06-1 1.007h-1.559c-1.306 0-1.313 0-1.313-1.283V45.09a9.374 9.374 0 010-1.298c.082-.671 0-1.626.41-1.94.746-.612 2.664 0 3.335.821 1.873 2.335 3.731 4.678 5.596 7.021.261.336.538.664.806 1l.224-.045zm-119.41-.747v-7.08c0-.747.186-1.09 1.014-1.083h8.723c.656 0 .91.187.903.888 0 2.477 0 2.477-2.5 2.477h-2.85c-.545 0-.784.202-.784.747 0 2.514-.164 2.059 1.955 2.096h2.239c.604 0 .902.187.887.843-.06 2.94.426 2.448-2.417 2.5h-1.813c-.605 0-.88.269-.85.88.03.612 0 1.097 0 1.642-.045.686.268.903.925.888h4.32c.664 0 .947.201.88.895-.037.574-.037 1.15 0 1.724 0 .53-.201.746-.746.746h-9.125c-.702 0-.746-.425-.746-.97-.008-2.425-.015-4.813-.015-7.193zm-17.396 2.239c.746-2.052 1.44-3.955 2.141-5.865.418-1.164.85-2.32 1.268-3.484a1.493 1.493 0 011.493-1.067h2.335c1.075 0 1.134.097.746 1.081a7260.757 7260.757 0 01-3.887 9.7c-.65 1.597-1.313 3.194-1.94 4.798a1.015 1.015 0 01-1.03.746c-2.865.112-2.917.15-3.992-2.447-1.79-4.305-3.492-8.648-5.222-12.96-.262-.657-.112-.91.596-.896.71.015 1.612 0 2.418 0a1.62 1.62 0 011.753 1.216c1.037 2.903 2.097 5.79 3.149 8.685.015.112.067.239.172.493zm68.573-10.402h5.529c.746 0 1.097.194 1.082 1.023-.067 2.738.321 2.298-2.336 2.343-2.089 0-1.813-.254-1.82 1.858v10.02c0 .746-.232 1.112-1.037 1.06a20.179 20.179 0 00-2.328 0c-.747.044-1.067-.247-1.06-1.045V46.374c0-1.268 0-1.268-1.291-1.268h-2.596c-.552 0-.799-.172-.746-.747.052-.574 0-1.149 0-1.723 0-.575.246-.925.91-.918 1.895.037 3.798.022 5.693.022zm21.094 8.238v6.991c0 .746-.216 1.12-1.03 1.067-.813-.052-1.723 0-2.581 0-.545 0-.784-.231-.784-.746V42.53c0-.485.194-.746.746-.746h2.843c.657 0 .836.314.828.903-.022 2.402-.022 4.85-.022 7.29z" fill="#FAF3E7"/></svg>