<svg width="204" height="99" fill="none" xmlns="http://www.w3.org/2000/svg"><path d="M90.93 40.504l-4.174 12.37-4.183-12.37h-4.41v17.041h3.603v-10.2l3.467 10.2h3.037l3.468-10.2v10.2h3.601v-17.04h-4.41zm41.27 17.041c-4.14 0-6.235-2.12-6.235-5.217V45.73c0-3.147 2.095-5.217 6.235-5.217 1.831.012 3.656.192 5.453.539l-.462 3.366a39.005 39.005 0 00-4.991-.413c-1.918 0-2.398 1.002-2.398 2.331v5.37c0 1.329.48 2.431 2.398 2.431.763.006 1.525-.045 2.281-.151v-6.488h3.61v9.256a21.64 21.64 0 01-5.891.842M75.605 40.513v11.781c0 2.592-1.616 5.226-6.42 5.226-4.806 0-6.421-2.634-6.421-5.226v-11.78H66.6v11.46c0 1.38.665 2.172 2.583 2.172 1.919 0 2.584-.791 2.584-2.172v-11.46h3.837zm108.414 0v11.781c0 2.592-1.607 5.226-6.421 5.226-4.813 0-6.421-2.634-6.421-5.226v-11.78h3.838v11.46c0 1.38.665 2.172 2.583 2.172 1.919 0 2.584-.791 2.584-2.172v-11.46h3.837zm-75.401 0v3.097h-6.883v3.888h6.892v2.995h-6.892v3.964h6.883v3.097h-10.72v-17.04h10.72zm-48.428 0v3.097h-6.884v3.888h6.892v2.995h-6.892v3.964h6.884v3.097H49.469v-17.04h10.72zm104.591 5.546c0-1.33-.841-2.146-2.76-2.146-1.919 0-2.768.842-2.768 2.146v5.933c0 1.33.841 2.145 2.768 2.145 1.927 0 2.76-.841 2.76-2.145v-5.933zm3.838 6.26c0 2.584-1.793 5.218-6.598 5.218s-6.606-2.634-6.606-5.217v-6.598c0-2.583 1.793-5.217 6.606-5.217 4.814 0 6.598 2.634 6.598 5.217v6.598zm21.805-8.717h2.381c1.077 0 1.532.462 1.532 1.203v1.49c0 .74-.463 1.203-1.532 1.203h-2.381v-3.896zm7.741.26v-.042c-.151-2.053-1.506-3.307-4.847-3.307h-6.732v17.032h3.838v-6.959h2.886c3.56 0 4.855-1.43 4.855-3.728v-2.996zm-159.627-.26h2.382c1.203 0 2.154.26 2.154 1.489v.968c0 .95-.589 1.43-1.615 1.43h-2.92v-3.887zm4.536 9.366c0 1.228-.95 1.48-2.154 1.48h-2.382v-3.963h2.92c1.027 0 1.616.488 1.616 1.43v1.053zm3.837-7.448v-.942c0-2.407-1.54-4.065-4.94-4.065h-7.27v17.032h7.27c3.367 0 4.94-1.683 4.94-4.064v-1.683a3.231 3.231 0 00-2.524-3.147 3.224 3.224 0 002.524-3.14m97.572-1.91h2.382c1.203 0 2.146.261 2.146 1.49v.967c0 .951-.581 1.43-1.608 1.43h-2.92v-3.887zm0 10.847v-3.963h2.92c1.027 0 1.608.488 1.608 1.43v5.63h3.837v-5.73a3.224 3.224 0 00-2.525-3.148 3.234 3.234 0 002.525-3.139v-.942c0-2.407-1.54-4.065-4.94-4.065h-7.27v17.032h3.837v-3.096l.008-.009zm-29.451-10.847h2.382c1.203 0 2.146.261 2.146 1.49v.967c0 .951-.589 1.43-1.608 1.43h-2.92v-3.887zm0 10.847v-3.963h2.92c1.019 0 1.608.488 1.608 1.43v5.63h3.837v-5.73a3.224 3.224 0 00-2.525-3.148 3.219 3.219 0 002.525-3.139v-.942c0-2.407-1.532-4.065-4.931-4.065h-7.271v17.032h3.837v-3.105zm-99.34 2.962a8.516 8.516 0 010-16.762V37.61a11.512 11.512 0 000 22.83v-3.03zm3.006-19.8v3.038a8.516 8.516 0 010 16.763v3.03a11.513 11.513 0 000-22.83zm-.002 22.83c-.996.146-2.008.146-3.004 0v3.13h-2.104l3.593 8.584 3.602-8.583h-2.087v-3.13zm-3.002-22.83a10.372 10.372 0 013.004 0v-3.114l1.22-1.212v-7.371l-2.735 2.726-2.726-2.726v7.372l1.228 1.211.009 3.114z" fill="#FAF3E7"/><path d="M17.184 40.504c-.503 0-1.005.049-1.498.143V57.41c.493.105.994.167 1.498.185a8.87 8.87 0 001.506-.143V40.647a8.09 8.09 0 00-1.506-.143z" fill="#FAF3E7"/></svg>