<svg width="203" height="99" fill="none" xmlns="http://www.w3.org/2000/svg"><path fill-rule="evenodd" clip-rule="evenodd" d="M50.592 8.638h100.282v82.057H50.592V8.638z" fill="#FAF3E7"/><path fill-rule="evenodd" clip-rule="evenodd" d="M59.266 12.043h82.933a5.27 5.27 0 015.257 5.257v12.34H54.009V17.3a5.269 5.269 0 015.257-5.257zm40.869 23.976c-.111.197-.42.567-.58.777-.16.21-.357.518-.567.79L95.57 42.36c-.185.26-4.393 6.01-4.566 6.405h1.148l-6.725 21.186h4.244l-3.874 12.45 8.76-12.117h-1.134c.213-.837.477-1.661.79-2.467l2.467-7.293 2.58.234c0 .346-1.136 3.961-1.321 4.578-.185.617-1.32 4.27-1.333 4.578h3.838l-4.01 12.994 2.467-3.172c.432-.58 6.997-9.18 7.12-9.451h-1.234c.223-.898.503-1.78.839-2.641.297-.901.58-1.777.889-2.653.58-1.777 1.234-3.554 1.777-5.306.543-1.752 1.172-3.53 1.777-5.318.407-1.234 1.505-4.307 1.776-5.319h-4.553l3.9-12.931c-.358.148-.988 1.233-1.234 1.505l-8.021 11.105h1.234l-2.999 9.514-2.603-.148c-.087-.469 2.468-7.774 2.776-9.057h-4.257l4.023-12.993.024-.025zM73.938 60.784c1.11 0 2.468-.432 2.345 1.074a38.011 38.011 0 01-1.962 5.182 2.086 2.086 0 01-2.653.383l2.27-6.577v-.062zm3.283-9.612c1.085-.074 2.468-.395 2.344 1.049-.234.882-.54 1.745-.913 2.579a16.96 16.96 0 01-1.024 2.467c-.593.889-1.48.778-2.64.445.123-.79 1.825-5.356 2.233-6.59v.05zm7.662 8.23c.482-.308.938-.42 1.234-.851.296-.432 1.32-3.998 1.469-4.48 1.234-3.997 2.171-5.083-.432-5.083-1.16 0-15.19-.087-15.918 0-.765 1.036-5.812 16.04-6.54 18.25a6.066 6.066 0 00-.642 2.702h17.732l2.049-5.22c.345-.888.69-1.727 1.011-2.603.605-1.567.753-1.629.062-2.703l-.025-.012zm41.855-8.403c.359-.6.574-1.277.629-1.974h-12.426c-.37 1.234-.925 2.468-1.382 3.702-1.863 4.935-3.591 10.118-5.281 15.128-.839 2.468-.765 2.11 1.95 2.11 3.306 0 6.786.172 10.068 0a4.674 4.674 0 00.519-2.246l-4.122-.32c.099-.396 2.147-6.17 2.468-6.788h4.294a5.483 5.483 0 00.642-2.282l-4.121-.148 2.468-6.985a35.88 35.88 0 014.355-.185l-.061-.012zm6.305 11.92c.63-1.913 4.467-13.388 4.43-13.71l-8.07-.209-1.801 5.22c-.617 1.715-1.234 3.418-1.802 5.145l-2.715 7.774a5.164 5.164 0 00-.542 2.801l12.339.099c.48-.701.734-1.532.728-2.382l-4.097-.135 1.493-4.603h.037z" fill="#4C4A48"/><path fill-rule="evenodd" clip-rule="evenodd" d="M119.567 17.374h1.444c-.247 1.32-1.505 4.578-1.308 5.762a39.314 39.314 0 002.53 4.652h2.468c-.124-.444-2.185-3.8-2.616-4.602-.432-.802.185-2.209.394-2.986.199-.957.455-1.9.766-2.826h2.541l-1.098 4.023c-.197.703-.321.666-1.11.666l-.457 1.234c3.64 0 3.307.456 4.43-3.826.185-.678.457-1.48.58-2.146h8.946l-.21.876c-1.147.098-1.999-.445-2.468.592-.629-.568 0-.568-1.628-.568-3.27 0-3.209-.395-4.035 2.616-.457 1.654-1.654 5.59-1.938 6.96 2.863 0 2.16.48 2.863-2.012.21-.728.395-1.431.592-2.134a38.585 38.585 0 011.234-4.159h1.234c.173.642-.666 2.937-.765 3.776 2.246 0 2.147.16 2.295-.37.207-1.14.512-2.258.913-3.344.176-.072.366-.105.556-.099 1.098 0 .826.235.296 2.086-.444 1.517-1.53 5.046-1.765 6.17 2.715 0 2.197.382 2.653-1.235.124-.444.259-.888.383-1.32l2.221-7.885h1.542l.371-1.295h-21.483l-.371 1.233v.16zM64.81 24.555c.121-1.046.357-2.077.703-3.072a17.093 17.093 0 011.024 3.183 7.102 7.102 0 01-1.727-.11zm4.035-4.935a18.814 18.814 0 01-.778 2.628l-.913-2.591h1.69v-.037zm3.837-4.936h1.234a3.503 3.503 0 01-.284 1.234h-1.345l.37-1.308.025.074zm3.32 1.32c0-.715.654-1.666.074-2.233-.58-.568-1.95-.272-2.678-.284-3.394-.086-2.58.42-3.406 2.468H60.54c-.222.136-.062-.111-.21.308l-.185 1h9.477l-.26.938a28.379 28.379 0 00-4.676.247c-.715.234-.777.752-1 1.48-.221.728-.382 1.234-.567 1.851-.271.987-1.16 3.01-.493 3.776.407.457 1.394.333 2.097.333h2.394l-.506 1.826c2.715 0 2.221.395 2.69-1.234.555-1.986 2.32-7.761 2.616-9.168h1.394c-.32 1.358-2.936 9.983-2.85 10.476l2.135.1c.2-.438.346-.898.432-1.37l2.233-7.972c.444-1.567-.16-1.234 2.628-1.234.16-.418.272-.852.334-1.295H76v-.013zm25.022.086H80.047c-.284.198-.383.926-.395 1.235h1.234c-.309 1.098-1.506 4.75-1.32 5.737a46.272 46.272 0 002.467 4.665h2.468a22.425 22.425 0 00-1.308-2.332c-1.937-3.258-1.74-2.185-.518-6.8l.296-1.073c.099-.222 0-.136.185-.222h2.468c-.16.851-.518 1.9-.74 2.74-.58 2.11-.37 1.863-1.518 1.961l-.395 1.234c2.295 0 3.27.469 3.825-1.715.358-1.345.876-2.912 1.136-4.27h8.378c-.185 1.086-1.357 4.862-1.79 6.454-.27.987 0 .777-1.616.765h-.641c-1.024 0-.407-1.049.086-2.628.214-.84.482-1.664.802-2.468h1.037l.42-1.234-5.146-.087c-.235.112 0-.123-.222.272l-.26 1h1.666c-.246.999-1.234 4.343-1.332 4.935-.173 1.58.913 1.469 1.591 1.481 1.025 0 2.061 0 3.11.074l-.481 1.876h2.282c.186-.95 2.197-7.787 2.641-9.267.444-1.481 0-1.234 2.308-1.234l.259-1.234v.136zm12.907-.012c.031-.466.161-.92.383-1.332h1.073l-.16.678a6.01 6.01 0 002.172-.074 1.117 1.117 0 00.323-.984 1.132 1.132 0 00-.619-.83 19.394 19.394 0 00-2.715-.061c-3.011 0-2.073.456-2.999 2.59h-8.637l-.272 1.309h8.638l-.309.876c-2.282.358-3.701-.95-4.281 1.826-.148.716-.679 2.036.111 2.37.567.234 2.134 0 2.813.16a3.697 3.697 0 01-.21 1.542c-.185.58-.53.482-1.147.395-.296-.42-.383-.827-1.604-.642-2.345.346-.951 2.086-1.074 2.604-.123.518-.395 1.086-.531 1.654 2.468 0 2.246.172 2.468-.482l.432-1.703c2.752.087 3.122.47 3.912-2.22 1.012-3.419-.592-2.246-3.036-2.555a3.24 3.24 0 01.185-1.345c.173-.469.58-.382 1.148-.358h2.986l.617-2.171h4.331l.296-1.296-4.294.05z" fill="#FAF3E7"/></svg>