<svg width="203" height="100" fill="none" xmlns="http://www.w3.org/2000/svg"><path d="M110.728 26.666l-10.81 7.403c23.445.679 39.277-6.787 39.277-6.787-16.942 8.243-34.834 8.984-42.35 8.885l-12.87 8.773s40.24-1 65.856-25.715c0 0-15.831 11.735-39.103 7.478" fill="#FAF3E7"/><path d="M159.138 44.78h-1.062a1.514 1.514 0 01-.185 1.69L148.97 58.6l1.086-11.55c.15-.903.64-1.716 1.37-2.27h-13.401L127.857 58.6l1.061-11.476c.14-.937.646-1.78 1.407-2.344h-13.413c-.629 0-31.268-1.444-35.858 6.725 1.888-3.788 3.17-6.552 3.245-6.676H62.088c.234.074 1.456.728 1.036 1.888a158.385 158.385 0 01-7.206 19.867c-4.121 8.884-13.425 12.142-19.743 14.412-.58.21-.494.63.123.642 15.696.099 28.59-1.16 38.351-18.065 2.258-3.912 4.48-8.206 6.17-11.698a4.512 4.512 0 00-.271.815c-2 9.118 15.03 9.698 14.807 11.87-.222 1.925-10.377 1.333-17.078-.876h-.086a3.764 3.764 0 01-1.826-1.234v.518a.27.27 0 010 .074l.271 2.468c.272 2.567.63 6.17.63 6.17s35.475 4.48 36.129-7.058c.506-8.724-16.584-9.773-16.399-11.686.185-1.912 8.49-2.023 13.574-1.234 2.258.358 2.579 1.567 2.579 1.567l.37-.851s3.06-7.009 3.319-7.614l-2.283 24.457a3.627 3.627 0 01-1.394 2.308h13.4l10.181-13.845-1.086 11.55a3.546 3.546 0 01-1.382 2.295h13.4l19.743-26.826h-8.341" fill="#FAF3E7"/></svg>