<svg width="217" height="61" viewBox="0 0 217 61" fill="none" xmlns="http://www.w3.org/2000/svg">
<path d="M70.6087 26.7889C69.9065 26.7889 69.2331 26.51 68.7365 26.0134C68.24 25.5169 67.9611 24.8435 67.9611 24.1413C67.9611 23.4391 68.24 22.7656 68.7365 22.2691C69.2331 21.7726 69.9065 21.4936 70.6087 21.4936C70.9627 21.4792 71.316 21.5366 71.6472 21.6624C71.9784 21.7883 72.2806 21.98 72.5357 22.2259C72.7907 22.4719 72.9933 22.7669 73.1311 23.0934C73.2689 23.4198 73.3391 23.7707 73.3375 24.125C73.3368 24.4801 73.2652 24.8315 73.1269 25.1586C72.9887 25.4857 72.7866 25.782 72.5325 26.03C72.2784 26.2781 71.9774 26.473 71.6471 26.6033C71.3167 26.7336 70.9637 26.7967 70.6087 26.7889Z" fill="white"/>
<path d="M194.109 43.1519C190.879 43.1519 188.401 40.1339 188.401 36.2746C188.373 35.2222 188.558 34.1751 188.943 33.1955C189.328 32.2159 189.907 31.3237 190.644 30.5721C191.381 29.8205 192.262 29.2248 193.234 28.8204C194.205 28.4159 195.249 28.2111 196.301 28.218C197.27 28.231 198.226 28.4444 199.108 28.845L199.215 28.8937V25.7425C199.215 24.2774 199.04 24.1799 198.29 24.0013L198.062 23.946L197.088 23.6602L203.747 21.4966V39.2925C203.747 40.8876 203.958 41.2872 204.93 41.5666L205.521 41.716L205.342 42.1351L199.222 43.1454V40.1469L199.085 40.3191C197.676 42.0994 195.821 43.1519 194.109 43.1519ZM196.513 29.0691C194.323 29.0691 193.264 30.9923 193.264 34.9524C193.264 38.4219 194.547 40.5758 196.61 40.5758C197.282 40.5689 197.926 40.3048 198.41 39.8377C198.893 39.3707 199.179 38.7361 199.209 38.0646V31.7752C199.212 29.7318 197.393 29.0691 196.513 29.0691Z" fill="white"/>
<path d="M66.7039 42.6744L66.7753 42.2683L67.8116 42.1059C68.0072 42.0918 68.1901 42.0037 68.3229 41.8594C68.4557 41.7151 68.5285 41.5256 68.5263 41.3295V32.6134C68.5263 30.9664 67.7727 30.5505 67.1164 30.3719L66.7266 30.2744L73.0484 28.218V41.31C73.0427 41.4983 73.1053 41.6823 73.2247 41.8281C73.3442 41.9738 73.5123 42.0713 73.6981 42.1026L74.7832 42.2716L74.8547 42.6776L66.7039 42.6744Z" fill="white"/>
<path d="M137.218 50.4096L137.29 50.0035L138.326 49.8411C138.522 49.827 138.705 49.7389 138.838 49.5946C138.97 49.4503 139.043 49.2608 139.041 49.0647V32.7436C139.041 31.6358 138.544 30.6807 137.858 30.4695L137.209 30.3039L143.566 28.2085V31.22L143.703 31.0478C145.103 29.2708 146.831 28.2085 148.543 28.2085C151.769 28.2182 153.985 31.5383 153.985 35.3945C153.985 40.537 150.054 43.1457 146.188 43.1457C145.314 43.1711 144.444 43.0048 143.641 42.6584L143.534 42.6097V49.0549C143.532 49.2515 143.605 49.4415 143.738 49.5859C143.872 49.7303 144.056 49.8181 144.252 49.8313L145.285 49.9938L145.356 50.3998L137.218 50.4096ZM146.136 30.7132C145.463 30.7404 144.823 31.0172 144.343 31.4898C143.863 31.9625 143.575 32.597 143.537 33.2699V39.7931C143.541 40.4447 143.797 41.0695 144.252 41.5359C144.707 42.0024 145.325 42.2744 145.977 42.2945C147.461 42.2945 149.362 41.1023 149.362 36.0474C149.352 32.5779 148.199 30.7132 146.136 30.7132Z" fill="white"/>
<path d="M103.846 41.3326V33.4449C103.843 33.1149 103.774 32.7888 103.644 32.4857C103.513 32.1825 103.324 31.9083 103.087 31.679C102.849 31.4498 102.569 31.2702 102.261 31.1506C101.954 31.031 101.625 30.9738 101.295 30.9825C100.672 30.9981 100.078 31.2525 99.6369 31.6932C99.1956 32.1339 98.9403 32.7273 98.9239 33.3507V41.3163C98.9223 41.5011 98.9869 41.6804 99.1061 41.8217C99.2253 41.9629 99.3911 42.0568 99.5736 42.0863L100.659 42.2552L100.73 42.6613H92.8619L92.9334 42.2552L93.7358 42.0863C93.9166 42.057 94.0811 41.9646 94.2001 41.8254C94.3191 41.6861 94.3848 41.5092 94.3855 41.3261V25.5508C94.3862 25.1874 94.2775 24.8323 94.0736 24.5315C93.8696 24.2308 93.5799 23.9985 93.242 23.8647L92.5338 23.5854L98.9693 21.49V31.1319L99.109 30.9207C99.1285 30.8948 100.945 28.2179 104.161 28.2179C105.271 28.2445 106.331 28.6901 107.127 29.4654C107.871 30.2418 108.319 31.6095 108.319 33.1168L108.351 41.3358C108.35 41.5206 108.414 41.6999 108.534 41.8411C108.653 41.9824 108.819 42.0763 109.001 42.1058L110.086 42.2747L110.158 42.6808H102.306L102.377 42.2747L103.18 42.1058C103.36 42.0765 103.525 41.9841 103.644 41.8449C103.763 41.7056 103.829 41.5287 103.829 41.3456" fill="white"/>
<path d="M49.4863 22.8378C49.4885 22.6418 49.4157 22.4522 49.2829 22.3079C49.1501 22.1637 48.9672 22.0755 48.7716 22.0614L47.7353 21.899L47.6638 21.4929H56.604L56.5261 21.899L55.4898 22.0614C55.2941 22.0755 55.1113 22.1637 54.9785 22.3079C54.8456 22.4522 54.7729 22.6418 54.7751 22.8378V41.1211C54.7751 41.982 55.9023 41.852 55.9023 41.852C59.125 41.852 61.1229 40.6436 63.2832 35.9363L63.6373 35.1631H64.6476L63.7445 42.674H47.6638L47.7353 42.2679L48.7716 42.1054C48.9672 42.0914 49.1501 42.0032 49.2829 41.8589C49.4157 41.7146 49.4885 41.5251 49.4863 41.329V22.8378Z" fill="white"/>
<path d="M117.6 43.1521C116.511 43.1393 115.471 42.6969 114.707 41.9212C113.942 41.1456 113.514 40.0994 113.517 39.0101V30.6709H110.327L112.308 28.7217H112.981C113.051 28.7217 113.121 28.7077 113.186 28.6806C113.251 28.6534 113.31 28.6136 113.36 28.5634C113.41 28.5132 113.449 28.4537 113.475 28.3883C113.501 28.3229 113.515 28.253 113.514 28.1825V26.4509L117.737 25.0508V28.7282H121.791L119.936 30.6774H117.75V38.5033C117.75 40.5077 119.183 41.2354 120.147 41.2354C120.56 41.2314 120.965 41.1325 121.333 40.9463L121.388 40.9236L121.788 41.3881C120.635 42.4179 119.472 43.1521 117.6 43.1521Z" fill="white"/>
<path d="M161.346 34.1922L170.036 34.3254C170.069 34.0558 170.075 33.1949 170.062 32.8928C169.965 30.6967 168.438 28.218 164.445 28.218C159.933 28.218 156.528 31.5219 156.528 36.0147C156.528 40.1047 159.488 43.1617 163.415 43.1617C166.567 43.1617 168.779 41.7583 170.007 38.9092L169.682 38.6299C169.289 39.2451 168.744 39.7487 168.1 40.0924C167.456 40.4361 166.734 40.6081 166.005 40.592C163.191 40.592 161.353 38.318 161.32 34.7802C161.317 34.5839 161.326 34.3875 161.346 34.1922ZM161.346 33.1072C161.567 30.3686 162.512 29.1244 164 29.1244C164.203 29.1201 164.405 29.1578 164.593 29.2349C164.78 29.312 164.95 29.427 165.092 29.5727C165.709 30.1997 166.008 31.197 165.979 33.0812V33.1559L161.343 33.1884L161.346 33.1072Z" fill="white"/>
<path d="M177.115 34.1922L185.805 34.3254C185.837 34.0558 185.844 33.1949 185.831 32.8928C185.733 30.6967 184.207 28.218 180.214 28.218C175.702 28.218 172.297 31.5219 172.297 36.0147C172.297 40.1047 175.257 43.1617 179.184 43.1617C182.335 43.1617 184.548 41.7583 185.776 38.9092L185.451 38.6299C185.058 39.2516 184.512 39.7609 183.864 40.1082C183.216 40.4555 182.489 40.6289 181.754 40.6115C178.941 40.6115 177.102 38.3375 177.069 34.7997C177.072 34.5965 177.087 34.3936 177.115 34.1922ZM177.115 33.1072C177.336 30.3686 178.281 29.1244 179.769 29.1244C179.972 29.1201 180.174 29.1578 180.361 29.2349C180.549 29.312 180.719 29.427 180.86 29.5727C181.478 30.1997 181.777 31.197 181.747 33.0812V33.1559L177.112 33.1884L177.115 33.1072Z" fill="white"/>
<path d="M130.952 33.7504C129.032 33.013 127.586 32.451 127.586 31.0313C127.586 29.7319 128.493 28.9749 129.799 28.9749C130.442 28.9755 131.072 29.153 131.621 29.4882L134.051 33.0162L134.883 32.9837L134.72 28.218L133.155 28.7281C132.077 28.3962 130.956 28.2244 129.828 28.218C126.375 28.218 124.071 30.0405 124.071 32.8863C124.071 35.5079 126.053 36.502 128.486 37.4344C130.276 38.1393 131.943 38.6429 131.943 40.4491C131.943 41.4789 130.968 42.486 129.383 42.486C127.72 42.486 126.855 41.6543 125.77 40.056L124.88 38.2043L124.026 38.4122L123.724 42.1644C125.513 42.8029 127.396 43.1367 129.295 43.1519C133.58 43.1519 135.533 40.8779 135.533 38.3862C135.526 35.5729 133.158 34.647 130.952 33.7504Z" fill="white"/>
<path d="M86.5889 39.9618H81.5048C81.2012 39.9393 80.9167 39.8049 80.7067 39.5846C80.4966 39.3643 80.3758 39.0738 80.3678 38.7695C80.3617 38.6077 80.3881 38.4463 80.4454 38.2948C80.5028 38.1434 80.5899 38.005 80.7017 37.8878C80.8134 37.7706 80.9475 37.677 81.0961 37.6125C81.2446 37.548 81.4046 37.5139 81.5665 37.5123C81.6357 37.5071 81.7052 37.5071 81.7744 37.5123C82.2578 37.6001 82.7483 37.6426 83.2395 37.639C87.0989 37.639 89.714 35.6281 89.714 32.7921C89.714 31.9474 89.5744 31.3334 89.0968 30.7974L90.8673 29.1731L90.4385 27.9224L87.4108 29.1698C86.1915 28.5386 84.8367 28.2141 83.4637 28.2245C79.7018 28.2245 77.1484 30.6415 77.1484 33.1916C77.1484 35.391 78.3926 36.6059 80.2118 37.2427V37.2752C78.3309 37.8177 76.6091 39.0944 76.6091 40.8162C76.6091 42.3463 78.1392 43.7172 80.0234 43.9413C78.11 44.6755 76.229 45.5364 76.229 47.2257C76.229 49.3633 78.2691 50.4158 82.4014 50.4158C87.6642 50.4158 91.3968 47.4921 91.3968 44.068C91.4033 41.5081 89.4282 39.9618 86.5889 39.9618ZM81.9531 30.021C82.0936 29.7504 82.3058 29.5237 82.5665 29.3655C82.8272 29.2074 83.1263 29.124 83.4312 29.1244C84.63 29.1244 85.3804 30.1477 85.3804 33.0584C85.3804 35.9692 84.8184 36.9568 83.4312 36.9568C82.2585 36.9568 81.5827 35.797 81.5827 33.0227C81.5795 31.6648 81.6542 30.6512 81.9531 30.021ZM82.8237 49.3178C80.8161 49.3178 79.6368 48.1353 79.6368 46.4135C79.6368 45.1141 81.0532 43.9803 82.3397 43.9803H85.0555C87.3296 44.1395 88.4049 44.63 88.4049 46.2543C88.4049 48.0638 85.4096 49.3178 82.84 49.3178H82.8237Z" fill="white"/>
<path d="M31.7747 32.0839H21.1842V21.4934L10.5905 10.8997V21.4934V32.0839V42.6777H21.1842H31.7747H42.3685L31.7747 32.0839Z" fill="white"/>
</svg>
