<svg width="12" height="12" fill="none" xmlns="http://www.w3.org/2000/svg"><path fill-rule="evenodd" clip-rule="evenodd" d="M.4 1.336A.936.936 0 011.336.4h9.327a.935.935 0 01.937.936v9.327a.936.936 0 01-.936.937H1.336a.935.935 0 01-.936-.936V1.336zM4.833 4.67H6.35v.762c.219-.438.779-.832 1.62-.832 1.613 0 1.996.872 1.996 2.472v2.964H8.333v-2.6c0-.91-.219-1.425-.775-1.425-.771 0-1.092.554-1.092 1.426v2.599H4.833V4.67zm-2.8 5.296h1.633V4.6H2.033v5.366zM3.9 2.85a1.05 1.05 0 11-2.1.046 1.05 1.05 0 012.1-.046z" fill="#FAF3E7"/></svg>