<svg width="104" height="104" fill="none" xmlns="http://www.w3.org/2000/svg"><path d="M63.72 38.55c0-5.915 3.995-11.633 6.181-10.554 2.48 1.247-1.864 6.811-6.18 10.553zm-27.189 2.144c0-4.737 4.681-13.763 7.555-12.81 3.377 1.121-2.804 10.231-7.555 12.81zm-4.75 33.958a3.265 3.265 0 01-3.589-3.573c0-6.181 8.578-12.081 15.053-15.263-1.15 8.633-4.065 18.5-11.465 18.836zm39.564-20.14a8.256 8.256 0 00-8.633 7.92c0 3.587 2.158 6.474 5.031 6.474a1.852 1.852 0 002.018-1.864c0-1.878-2.48-2.34-2.298-5.13a3.504 3.504 0 013.588-3.083c3.447 0 5.073 3.35 5.073 6.798a8.846 8.846 0 01-8.661 9.025c-6.04 0-9.923-5.746-9.923-11.94 0-9.209 6.04-12.796 9.208-13.665 0 0 8.269 1.471 8.016-2.159-.126-1.597-2.494-2.214-4.204-2.284a11.9 11.9 0 00-3.84.617 4.751 4.751 0 01-2.116-2.65c5.886-4.47 10.062-8.773 10.062-13.664a4.71 4.71 0 00-5.031-4.891c-5.9 0-10.357 7.47-10.357 14.24a12.08 12.08 0 00.294 3.307c-3.742 2.733-6.53 4.428-11.562 7.456.064-1.466.252-2.924.56-4.359 1.724-1.878 4.093-4.681 4.093-6.84a1.71 1.71 0 00-1.738-1.877c-2.803 0-5.018 4.33-5.606 7.343-1.29 1.598-3.882 3.602-6.04 3.602a2.635 2.635 0 01-2.453-2.158c5.465-1.878 12.235-9.348 12.235-16.117 0-1.402-.575-4.597-4.892-4.597-6.474 0-11.926 9.642-11.926 17.112-2.313 0-3.168-2.438-3.168-4.316a28.63 28.63 0 01.715-4.317 1.162 1.162 0 00-1.15-1.29c-2.158 0-3.46 2.874-3.46 6.181a7.554 7.554 0 007.203 7.779 6.573 6.573 0 006.026 5.325 8.773 8.773 0 005.747-2.018 99.91 99.91 0 01-.435 2.803c-6.32 3.308-10.932 5.606-15.094 9.348a14.953 14.953 0 00-5.172 10.217 7.89 7.89 0 008.325 8.41c6.615 0 11.66-5.312 14.113-12.614a58.246 58.246 0 001.892-13.076 136.636 136.636 0 0013.203-8.41c.357.656.832 1.24 1.401 1.724a17.94 17.94 0 00-10.203 16.538c0 7.484 5.032 15.823 14.968 15.823a13.707 13.707 0 0013.805-13.23c0-5.9-3.321-11.366-9.642-11.366l.028-.126zM96.04 67s-.099.112-.267 0a.182.182 0 01-.182-.308 38.99 38.99 0 001.724-11.058c0-6.349-2.579-10.231-5.886-10.231a3.378 3.378 0 00-3.462 3.602c0 3.882 4.75 4.204 4.75 12.613a33.555 33.555 0 01-1.863 10.357c-5.326 17.982-22.298 26.32-38.836 26.32a41.414 41.414 0 01-14.604-2.171.252.252 0 010-.295c0-.098.154-.168.21-.14a36.173 36.173 0 0011.072 1.724c6.321 0 10.063-2.593 10.063-5.76a3.56 3.56 0 00-3.588-3.602c-3.896 0-4.204 4.891-12.53 4.891a34.492 34.492 0 01-10.496-1.864C14.303 85.612 5.81 68.78 5.825 52.102a48.38 48.38 0 012.312-14.674.253.253 0 01.266 0 .182.182 0 01.14.196 38.486 38.486 0 00-1.71 11.058c0 6.335 2.58 10.077 5.887 10.077a3.393 3.393 0 003.447-3.447c0-3.897-4.737-4.317-4.737-12.614A34.49 34.49 0 0113.294 32.2C18.76 14.359 35.592 6.006 52.144 5.88a43.55 43.55 0 0114.674 2.438.239.239 0 010 .252c-.07.14-.154.154-.196.154A31.899 31.899 0 0055.55 6.89c-6.195 0-10.077 2.579-10.077 5.9a3.449 3.449 0 003.602 3.448c3.882 0 4.204-4.75 12.515-4.75a34.5 34.5 0 0110.498 1.863c17.981 5.466 26.166 22.424 26.32 38.85A44.846 44.846 0 0196.095 67h-.055zM52.144 2.587a49.488 49.488 0 10-.028 98.975 49.488 49.488 0 00.028-98.975zm0 101.413A51.94 51.94 0 11104 52.144 51.856 51.856 0 0152.144 104z" fill="#575757"/></svg>