<svg width="145" height="90" fill="none" xmlns="http://www.w3.org/2000/svg"><path fill-rule="evenodd" clip-rule="evenodd" d="M59.11 53.045c-15.98-3.66-27.6-13.83-27.6-25.755.003-1.47.184-2.933.537-4.358 7.83-2.136 28.357-5.288 32.12-2.804 2.47 1.453-2.339 21.006-4.997 32.933m53.371-30.16c.358 1.425.539 2.889.537 4.358 0 11.942-11.621 22.14-27.761 25.772-2.644-11.927-7.453-31.495-4.983-32.948 3.748-2.484 24.377.668 32.207 2.79" fill="#575757"/><path fill-rule="evenodd" clip-rule="evenodd" d="M72.278.08c17.606 0 32.671 7.495 38.366 17.955-6.552-1.032-36.957-8.324-36.609-2.296v38.73h-3.617v-38.73c.334-6.028-29.912 1.25-36.507 2.281C39.606 7.575 54.671.08 72.278.08z" fill="#575757"/><path d="M81.432 72.105a7.265 7.265 0 013.763-1.032 9.69 9.69 0 014.445.857c-.247.872-.508 1.729-.77 2.6a7.904 7.904 0 00-3.588-.842 3.356 3.356 0 00-2.092.654 1.875 1.875 0 00-.683 1.86 2.094 2.094 0 00.988 1.365c1.119.74 2.455 1.046 3.632 1.67a6.32 6.32 0 012.368 1.86 4.75 4.75 0 01.784 3.56 4.663 4.663 0 01-1.598 2.904 6.305 6.305 0 01-2.905 1.352c-1.23.242-2.494.266-3.734.072a9.46 9.46 0 01-3.108-.9c.203-.901.479-1.787.711-2.673a8.906 8.906 0 004.257 1.118 3.69 3.69 0 002.499-.799 2.193 2.193 0 00.653-1.932 2.237 2.237 0 00-.93-1.453 17.072 17.072 0 00-3.34-1.554 6.48 6.48 0 01-2.979-2.383 4.576 4.576 0 01-.508-3.181 4.765 4.765 0 012.135-3.123zM.325 71.32h17.026v5.143H12.47v12.42H5.38v-12.42H.326V71.32zm21.955-.014h7.394l6.857 17.607h-6.987L25.94 78.497a.695.695 0 00-.13.276l-3.473 10.169h-6.813c2.247-5.879 4.498-11.758 6.755-17.636zm12.594 0H51.9v5.157h-4.925v12.42h-7.09v-12.42h-5.04c.029-1.685.014-3.414.029-5.157zm21.922.014h7.394l6.857 17.607h-6.915l-3.617-10.46c-1.22 3.487-2.383 6.973-3.589 10.46h-6.813l6.683-17.607zm33.857.073h13.278v2.702h-5.055v14.847h-3.21V74.095h-5.013v-2.702zm15.302 0h10.169v2.615h-6.987v4.503h6.624v2.63h-6.61v5.113h7.395v2.644h-10.62V74.923c.029-1.162 0-2.34.029-3.53zm13.902.015h10.169v2.614h-7.002v4.504h6.755v2.6h-6.61v5.114h7.38v2.644H119.93c-.087-5.796-.044-11.636-.073-17.476zm13.95-.015h3.24v14.832h7.264v2.688h-10.416c-.068-5.83-.097-11.67-.088-17.52z" fill="#575757"/></svg>